%TF.GenerationSoftware,KiCad,Pcbnew,10.0.4*%
%TF.CreationDate,2026-07-02T14:28:06-04:00*%
%TF.ProjectId,companion_carrier,636f6d70-616e-4696-9f6e-5f6361727269,rev?*%
%TF.SameCoordinates,Original*%
%TF.FileFunction,Copper,L2,Bot*%
%TF.FilePolarity,Positive*%
%FSLAX46Y46*%
G04 Gerber Fmt 4.6, Leading zero omitted, Abs format (unit mm)*
G04 Created by KiCad (PCBNEW 10.0.4) date 2026-07-02 14:28:06*
%MOMM*%
%LPD*%
G01*
G04 APERTURE LIST*
%TA.AperFunction,ComponentPad*%
%ADD10C,2.200000*%
%TD*%
%TA.AperFunction,ComponentPad*%
%ADD11C,1.600000*%
%TD*%
%TA.AperFunction,ComponentPad*%
%ADD12C,1.800000*%
%TD*%
%TA.AperFunction,ComponentPad*%
%ADD13C,2.400000*%
%TD*%
%TA.AperFunction,Conductor*%
%ADD14C,0.250000*%
%TD*%
G04 APERTURE END LIST*
D10*
%TO.P,SW4,1*%
%TO.N,KEY_MODE*%
X69000000Y-71100000D03*
%TO.P,SW4,2*%
%TO.N,GND*%
X74000000Y-73200000D03*
%TD*%
D11*
%TO.P,R1,1*%
%TO.N,LED_DATA*%
X63000000Y-43500000D03*
%TO.P,R1,2*%
%TO.N,LED_DIN*%
X73000000Y-43500000D03*
%TD*%
D10*
%TO.P,SW3,1*%
%TO.N,KEY_REJECT*%
X51000000Y-71100000D03*
%TO.P,SW3,2*%
%TO.N,GND*%
X56000000Y-73200000D03*
%TD*%
%TO.P,SW2,1*%
%TO.N,KEY_REMEMBER*%
X69000000Y-54100000D03*
%TO.P,SW2,2*%
%TO.N,GND*%
X74000000Y-56200000D03*
%TD*%
D12*
%TO.P,MK1,P1*%
%TO.N,3V3*%
X53650000Y-40000000D03*
%TO.P,MK1,P2*%
%TO.N,GND*%
X56190000Y-40000000D03*
%TO.P,MK1,P3*%
%TO.N,I2S_BCLK*%
X58730000Y-40000000D03*
%TO.P,MK1,P4*%
%TO.N,I2S_SD*%
X61270000Y-40000000D03*
%TO.P,MK1,P5*%
%TO.N,I2S_LRCLK*%
X63810000Y-40000000D03*
%TO.P,MK1,P6*%
%TO.N,GND*%
X66350000Y-40000000D03*
%TD*%
D11*
%TO.P,C2,1*%
%TO.N,3V3*%
X66500000Y-50000000D03*
%TO.P,C2,2*%
%TO.N,GND*%
X71500000Y-50000000D03*
%TD*%
D10*
%TO.P,SW5,1*%
%TO.N,PTT*%
X60000000Y-92100000D03*
%TO.P,SW5,2*%
%TO.N,GND*%
X65000000Y-94200000D03*
%TD*%
D11*
%TO.P,C1,1*%
%TO.N,3V3*%
X41500000Y-50000000D03*
%TO.P,C1,2*%
%TO.N,GND*%
X46500000Y-50000000D03*
%TD*%
%TO.P,C3,1*%
%TO.N,3V3*%
X44500000Y-114000000D03*
%TO.P,C3,2*%
%TO.N,GND*%
X49500000Y-114000000D03*
%TD*%
%TO.P,SW6,1*%
%TO.N,LATCH*%
X79050000Y-43900000D03*
%TO.P,SW6,2*%
%TO.N,GND*%
X79050000Y-46000000D03*
%TO.P,SW6,3*%
%TO.N,N/C*%
X79050000Y-48100000D03*
D13*
%TO.P,SW6,MP1*%
X80050000Y-41900000D03*
%TO.P,SW6,MP2*%
X80050000Y-50100000D03*
%TD*%
D10*
%TO.P,SW1,1*%
%TO.N,KEY_APPROVE*%
X51000000Y-54100000D03*
%TO.P,SW1,2*%
%TO.N,GND*%
X56000000Y-56200000D03*
%TD*%
D12*
%TO.P,U1,L1*%
%TO.N,KEY_REJECT*%
X51800000Y-114880000D03*
%TO.P,U1,L2*%
%TO.N,KEY_MODE*%
X51800000Y-117420000D03*
%TO.P,U1,L3*%
%TO.N,SPARE_D9*%
X51800000Y-119960000D03*
%TO.P,U1,L4*%
%TO.N,LED_DATA*%
X51800000Y-122500000D03*
%TO.P,U1,L5*%
%TO.N,3V3*%
X51800000Y-125040000D03*
%TO.P,U1,L6*%
%TO.N,GND*%
X51800000Y-127580000D03*
%TO.P,U1,L7*%
%TO.N,5V*%
X51800000Y-130120000D03*
%TO.P,U1,R1*%
%TO.N,KEY_REMEMBER*%
X68200000Y-114880000D03*
%TO.P,U1,R2*%
%TO.N,I2S_LRCLK*%
X68200000Y-117420000D03*
%TO.P,U1,R3*%
%TO.N,I2S_BCLK*%
X68200000Y-119960000D03*
%TO.P,U1,R4*%
%TO.N,I2S_SD*%
X68200000Y-122500000D03*
%TO.P,U1,R5*%
%TO.N,KEY_APPROVE*%
X68200000Y-125040000D03*
%TO.P,U1,R6*%
%TO.N,LATCH*%
X68200000Y-127580000D03*
%TO.P,U1,R7*%
%TO.N,PTT*%
X68200000Y-130120000D03*
%TD*%
%TO.N,3V3*%
D14*
X44500000Y-114000000D02*
X44500000Y-117740000D01*
X41500000Y-50000000D02*
X51500000Y-40000000D01*
X66500000Y-50000000D02*
X63650000Y-50000000D01*
X44500000Y-117740000D02*
X51800000Y-125040000D01*
X51500000Y-40000000D02*
X53650000Y-40000000D01*
X63650000Y-50000000D02*
X53650000Y-40000000D01*
%TO.N,KEY_APPROVE*%
X51000000Y-56736400D02*
X62528000Y-68264400D01*
X71315800Y-104716900D02*
X66967400Y-109065300D01*
X66967400Y-109065300D02*
X66967400Y-123807400D01*
X51000000Y-54100000D02*
X51000000Y-56736400D01*
X62528000Y-68264400D02*
X68249700Y-68264400D01*
X66967400Y-123807400D02*
X68200000Y-125040000D01*
X68249700Y-68264400D02*
X71315800Y-71330500D01*
X71315800Y-71330500D02*
X71315800Y-104716900D01*
%TO.N,KEY_MODE*%
X69000000Y-71100000D02*
X66191500Y-73908500D01*
X63136100Y-106083900D02*
X51800000Y-117420000D01*
X63136100Y-79646300D02*
X63136100Y-106083900D01*
X66191500Y-73908500D02*
X66191500Y-76590900D01*
X66191500Y-76590900D02*
X63136100Y-79646300D01*
%TO.N,I2S_SD*%
X68200000Y-122500000D02*
X71794100Y-118905900D01*
X71794100Y-118905900D02*
X71794100Y-51894000D01*
X71794100Y-51894000D02*
X69000100Y-49100000D01*
X69000100Y-49100000D02*
X69000100Y-47730100D01*
X69000100Y-47730100D02*
X61270000Y-40000000D01*
%TD*%
%TA.AperFunction,Conductor*%
%TO.N,GND*%
G36*
X76328720Y-30520185D02*
G01*
X76374475Y-30572989D01*
X76384419Y-30642147D01*
X76355394Y-30705703D01*
X76353831Y-30707472D01*
X76275885Y-30794040D01*
X76275877Y-30794049D01*
X76060222Y-31090874D01*
X76060219Y-31090879D01*
X75876775Y-31408615D01*
X75876772Y-31408620D01*
X75727534Y-31743817D01*
X75614157Y-32092760D01*
X75614157Y-32092762D01*
X75537875Y-32451645D01*
X75500546Y-32806814D01*
X75499523Y-32816544D01*
X75499523Y-33183440D01*
X75499524Y-33183445D01*
X75537876Y-33548340D01*
X75537877Y-33548344D01*
X75614159Y-33907222D01*
X75614160Y-33907223D01*
X75614161Y-33907227D01*
X75727541Y-34256175D01*
X75844297Y-34518412D01*
X75876775Y-34591359D01*
X75876778Y-34591366D01*
X76060225Y-34909106D01*
X76060225Y-34909107D01*
X76275895Y-35205948D01*
X76350633Y-35288952D01*
X76521396Y-35478604D01*
X76651008Y-35595307D01*
X76794051Y-35724104D01*
X76794057Y-35724108D01*
X76794060Y-35724111D01*
X76980385Y-35859484D01*
X77090893Y-35939774D01*
X77408633Y-36123221D01*
X77408637Y-36123222D01*
X77408641Y-36123225D01*
X77743825Y-36272459D01*
X78092773Y-36385839D01*
X78092776Y-36385839D01*
X78092777Y-36385840D01*
X78142222Y-36396350D01*
X78451660Y-36462124D01*
X78816555Y-36500476D01*
X79183460Y-36500477D01*
X79548355Y-36462125D01*
X79907242Y-36385842D01*
X80256190Y-36272463D01*
X80591375Y-36123230D01*
X80909124Y-35939778D01*
X81205957Y-35724117D01*
X81292528Y-35646167D01*
X81355519Y-35615938D01*
X81424854Y-35624563D01*
X81478520Y-35669304D01*
X81499478Y-35735957D01*
X81499500Y-35738318D01*
X81499500Y-40790498D01*
X81479815Y-40857537D01*
X81427011Y-40903292D01*
X81357853Y-40913236D01*
X81294297Y-40884211D01*
X81275184Y-40863386D01*
X81270798Y-40857349D01*
X81092654Y-40679205D01*
X81092649Y-40679201D01*
X80888848Y-40531132D01*
X80888847Y-40531131D01*
X80888845Y-40531130D01*
X80818747Y-40495413D01*
X80664383Y-40416760D01*
X80424785Y-40338910D01*
X80175962Y-40299500D01*
X79924038Y-40299500D01*
X79799626Y-40319205D01*
X79675214Y-40338910D01*
X79435616Y-40416760D01*
X79211151Y-40531132D01*
X79007350Y-40679201D01*
X79007345Y-40679205D01*
X78829205Y-40857345D01*
X78829201Y-40857350D01*
X78681132Y-41061151D01*
X78566760Y-41285616D01*
X78518454Y-41434287D01*
X78488910Y-41525215D01*
X78449500Y-41774038D01*
X78449500Y-42025962D01*
X78479235Y-42213701D01*
X78488910Y-42274785D01*
X78566760Y-42514383D01*
X78625543Y-42629749D01*
X78638439Y-42698418D01*
X78612163Y-42763159D01*
X78571353Y-42796528D01*
X78420805Y-42873236D01*
X78318885Y-42947286D01*
X78267927Y-42984310D01*
X78267925Y-42984312D01*
X78267924Y-42984312D01*
X78134312Y-43117924D01*
X78134312Y-43117925D01*
X78134310Y-43117927D01*
X78086610Y-43183579D01*
X78023240Y-43270800D01*
X77937454Y-43439163D01*
X77879059Y-43618881D01*
X77849500Y-43805513D01*
X77849500Y-43994486D01*
X77879059Y-44181118D01*
X77937454Y-44360836D01*
X77965404Y-44415690D01*
X78023240Y-44529199D01*
X78134310Y-44682073D01*
X78267927Y-44815690D01*
X78315136Y-44849990D01*
X78357802Y-44905318D01*
X78363781Y-44974932D01*
X78357467Y-44986898D01*
X78354714Y-45021872D01*
X78946471Y-45613629D01*
X78895606Y-45627259D01*
X78804394Y-45679920D01*
X78729920Y-45754394D01*
X78677259Y-45845606D01*
X78663629Y-45896471D01*
X78071872Y-45304714D01*
X78071871Y-45304714D01*
X78023668Y-45371062D01*
X78023667Y-45371064D01*
X77937914Y-45539362D01*
X77879548Y-45718997D01*
X77850000Y-45905552D01*
X77850000Y-46094447D01*
X77879548Y-46281002D01*
X77937914Y-46460637D01*
X78023666Y-46628933D01*
X78071872Y-46695284D01*
X78663629Y-46103528D01*
X78677259Y-46154394D01*
X78729920Y-46245606D01*
X78804394Y-46320080D01*
X78895606Y-46372741D01*
X78946471Y-46386370D01*
X78354713Y-46978126D01*
X78356692Y-47003262D01*
X78357802Y-47004702D01*
X78363781Y-47074316D01*
X78331176Y-47136111D01*
X78315138Y-47150008D01*
X78267928Y-47184309D01*
X78267924Y-47184312D01*
X78134312Y-47317924D01*
X78134312Y-47317925D01*
X78134310Y-47317927D01*
X78086610Y-47383579D01*
X78023240Y-47470800D01*
X77937454Y-47639163D01*
X77879059Y-47818881D01*
X77849500Y-48005513D01*
X77849500Y-48194486D01*
X77879059Y-48381118D01*
X77937454Y-48560836D01*
X78023240Y-48729199D01*
X78134310Y-48882073D01*
X78267927Y-49015690D01*
X78420801Y-49126760D01*
X78504061Y-49169183D01*
X78571353Y-49203470D01*
X78622149Y-49251445D01*
X78638944Y-49319266D01*
X78625543Y-49370250D01*
X78566761Y-49485616D01*
X78566760Y-49485618D01*
X78566759Y-49485621D01*
X78544391Y-49554462D01*
X78488910Y-49725214D01*
X78449500Y-49974038D01*
X78449500Y-50225961D01*
X78488910Y-50474785D01*
X78566760Y-50714383D01*
X78632389Y-50843186D01*
X78669330Y-50915687D01*
X78681132Y-50938848D01*
X78829201Y-51142649D01*
X78829205Y-51142654D01*
X79007345Y-51320794D01*
X79007350Y-51320798D01*
X79185117Y-51449952D01*
X79211155Y-51468870D01*
X79354184Y-51541747D01*
X79435616Y-51583239D01*
X79435618Y-51583239D01*
X79435621Y-51583241D01*
X79675215Y-51661090D01*
X79924038Y-51700500D01*
X79924039Y-51700500D01*
X80175961Y-51700500D01*
X80175962Y-51700500D01*
X80424785Y-51661090D01*
X80664379Y-51583241D01*
X80888845Y-51468870D01*
X81092656Y-51320793D01*
X81270793Y-51142656D01*
X81275180Y-51136618D01*
X81330509Y-51093951D01*
X81400122Y-51087970D01*
X81461918Y-51120575D01*
X81496277Y-51181413D01*
X81499500Y-51209501D01*
X81499500Y-128261681D01*
X81479815Y-128328720D01*
X81427011Y-128374475D01*
X81357853Y-128384419D01*
X81294297Y-128355394D01*
X81292528Y-128353831D01*
X81205970Y-128275895D01*
X81205957Y-128275883D01*
X81205955Y-128275882D01*
X81205950Y-128275877D01*
X80909125Y-128060222D01*
X80909120Y-128060219D01*
X80591384Y-127876775D01*
X80591379Y-127876772D01*
X80591375Y-127876770D01*
X80256190Y-127727537D01*
X80256185Y-127727535D01*
X80256182Y-127727534D01*
X80004707Y-127645826D01*
X79907242Y-127614158D01*
X79907239Y-127614157D01*
X79907238Y-127614157D01*
X79548364Y-127537877D01*
X79548355Y-127537875D01*
X79183460Y-127499523D01*
X79183455Y-127499523D01*
X78816559Y-127499523D01*
X78615914Y-127520612D01*
X78451660Y-127537876D01*
X78451655Y-127537876D01*
X78451655Y-127537877D01*
X78092777Y-127614159D01*
X78092776Y-127614160D01*
X77743832Y-127727538D01*
X77408640Y-127876775D01*
X77408633Y-127876778D01*
X77090893Y-128060225D01*
X77090892Y-128060225D01*
X76794051Y-128275895D01*
X76521396Y-128521396D01*
X76275895Y-128794051D01*
X76060225Y-129090892D01*
X76060225Y-129090893D01*
X75876778Y-129408633D01*
X75876775Y-129408640D01*
X75727538Y-129743832D01*
X75614160Y-130092776D01*
X75614159Y-130092777D01*
X75537877Y-130451655D01*
X75499523Y-130816559D01*
X75499523Y-131065892D01*
X75499523Y-131183460D01*
X75537875Y-131548355D01*
X75614158Y-131907242D01*
X75727537Y-132256190D01*
X75876770Y-132591375D01*
X75876772Y-132591379D01*
X75876775Y-132591384D01*
X76060219Y-132909120D01*
X76060222Y-132909125D01*
X76275877Y-133205950D01*
X76275885Y-133205959D01*
X76353831Y-133292528D01*
X76384061Y-133355520D01*
X76375435Y-133424855D01*
X76330694Y-133478520D01*
X76264041Y-133499478D01*
X76261681Y-133499500D01*
X43738319Y-133499500D01*
X43671280Y-133479815D01*
X43625525Y-133427011D01*
X43615581Y-133357853D01*
X43644606Y-133294297D01*
X43646169Y-133292528D01*
X43673141Y-133262570D01*
X43724117Y-133205957D01*
X43939778Y-132909124D01*
X44123230Y-132591375D01*
X44272463Y-132256190D01*
X44385842Y-131907242D01*
X44462125Y-131548355D01*
X44500477Y-131183460D01*
X44500476Y-130816555D01*
X44462124Y-130451660D01*
X44385839Y-130092773D01*
X44272459Y-129743825D01*
X44123225Y-129408641D01*
X44123222Y-129408637D01*
X44123221Y-129408633D01*
X43939774Y-129090893D01*
X43939774Y-129090892D01*
X43792164Y-128887727D01*
X43724111Y-128794060D01*
X43724108Y-128794057D01*
X43724104Y-128794051D01*
X43576137Y-128629718D01*
X43478604Y-128521396D01*
X43326078Y-128384061D01*
X43205948Y-128275895D01*
X43205931Y-128275883D01*
X43130121Y-128220803D01*
X42909106Y-128060225D01*
X42591366Y-127876778D01*
X42591359Y-127876775D01*
X42560065Y-127862842D01*
X42256175Y-127727541D01*
X42256170Y-127727539D01*
X42256167Y-127727538D01*
X42004682Y-127645826D01*
X41907227Y-127614161D01*
X41907224Y-127614160D01*
X41907223Y-127614160D01*
X41907222Y-127614159D01*
X41812877Y-127594106D01*
X41548340Y-127537876D01*
X41297715Y-127511534D01*
X41183438Y-127499523D01*
X40816544Y-127499523D01*
X40816543Y-127499523D01*
X40816540Y-127499523D01*
X40451645Y-127537875D01*
X40451641Y-127537875D01*
X40451639Y-127537876D01*
X40092762Y-127614157D01*
X40092760Y-127614157D01*
X39743817Y-127727534D01*
X39743810Y-127727536D01*
X39743810Y-127727537D01*
X39629792Y-127778300D01*
X39408620Y-127876772D01*
X39408615Y-127876775D01*
X39090879Y-128060219D01*
X39090874Y-128060222D01*
X38794049Y-128275877D01*
X38794040Y-128275885D01*
X38707472Y-128353831D01*
X38644480Y-128384061D01*
X38575145Y-128375435D01*
X38521480Y-128330694D01*
X38500522Y-128264041D01*
X38500500Y-128261681D01*
X38500500Y-123893713D01*
X40149500Y-123893713D01*
X40149500Y-124106287D01*
X40153266Y-124130065D01*
X40169881Y-124234970D01*
X40182754Y-124316243D01*
X40196448Y-124358390D01*
X40248444Y-124518414D01*
X40344951Y-124707820D01*
X40469890Y-124879786D01*
X40620213Y-125030109D01*
X40792179Y-125155048D01*
X40792181Y-125155049D01*
X40792184Y-125155051D01*
X40981588Y-125251557D01*
X41183757Y-125317246D01*
X41393713Y-125350500D01*
X41393714Y-125350500D01*
X41606286Y-125350500D01*
X41606287Y-125350500D01*
X41816243Y-125317246D01*
X42018412Y-125251557D01*
X42207816Y-125155051D01*
X42229789Y-125139086D01*
X42379786Y-125030109D01*
X42379788Y-125030106D01*
X42379792Y-125030104D01*
X42530104Y-124879792D01*
X42530106Y-124879788D01*
X42530109Y-124879786D01*
X42655048Y-124707820D01*
X42655047Y-124707820D01*
X42655051Y-124707816D01*
X42751557Y-124518412D01*
X42817246Y-124316243D01*
X42850500Y-124106287D01*
X42850500Y-123893713D01*
X42817246Y-123683757D01*
X42751557Y-123481588D01*
X42655051Y-123292184D01*
X42655049Y-123292181D01*
X42655048Y-123292179D01*
X42530109Y-123120213D01*
X42379786Y-122969890D01*
X42207820Y-122844951D01*
X42018414Y-122748444D01*
X42018413Y-122748443D01*
X42018412Y-122748443D01*
X41816243Y-122682754D01*
X41816241Y-122682753D01*
X41816240Y-122682753D01*
X41654957Y-122657208D01*
X41606287Y-122649500D01*
X41393713Y-122649500D01*
X41345042Y-122657208D01*
X41183760Y-122682753D01*
X40981585Y-122748444D01*
X40792179Y-122844951D01*
X40620213Y-122969890D01*
X40469890Y-123120213D01*
X40344951Y-123292179D01*
X40248444Y-123481585D01*
X40182753Y-123683760D01*
X40158834Y-123834780D01*
X40149500Y-123893713D01*
X38500500Y-123893713D01*
X38500500Y-97905513D01*
X53299500Y-97905513D01*
X53299500Y-98094486D01*
X53329059Y-98281118D01*
X53387454Y-98460836D01*
X53472788Y-98628312D01*
X53473240Y-98629199D01*
X53584310Y-98782073D01*
X53717927Y-98915690D01*
X53870801Y-99026760D01*
X53950347Y-99067290D01*
X54039163Y-99112545D01*
X54039165Y-99112545D01*
X54039168Y-99112547D01*
X54135497Y-99143846D01*
X54218881Y-99170940D01*
X54405514Y-99200500D01*
X54405519Y-99200500D01*
X54594486Y-99200500D01*
X54781118Y-99170940D01*
X54960832Y-99112547D01*
X55129199Y-99026760D01*
X55282073Y-98915690D01*
X55415690Y-98782073D01*
X55526760Y-98629199D01*
X55612547Y-98460832D01*
X55670940Y-98281118D01*
X55700500Y-98094486D01*
X55700500Y-97905514D01*
X55697646Y-97887497D01*
X55697646Y-97887496D01*
X55695215Y-97872149D01*
X58049500Y-97872149D01*
X58049500Y-98127850D01*
X58069679Y-98281118D01*
X58082874Y-98381340D01*
X58104174Y-98460832D01*
X58149050Y-98628312D01*
X58149053Y-98628322D01*
X58246894Y-98864531D01*
X58246899Y-98864542D01*
X58374734Y-99085957D01*
X58374745Y-99085973D01*
X58530388Y-99288811D01*
X58530394Y-99288818D01*
X58711181Y-99469605D01*
X58711187Y-99469610D01*
X58914035Y-99625261D01*
X58914042Y-99625265D01*
X59135457Y-99753100D01*
X59135462Y-99753102D01*
X59135465Y-99753104D01*
X59371687Y-99850950D01*
X59618660Y-99917126D01*
X59872157Y-99950500D01*
X59872164Y-99950500D01*
X60127836Y-99950500D01*
X60127843Y-99950500D01*
X60381340Y-99917126D01*
X60628313Y-99850950D01*
X60864535Y-99753104D01*
X61085965Y-99625261D01*
X61288813Y-99469610D01*
X61469610Y-99288813D01*
X61625261Y-99085965D01*
X61753104Y-98864535D01*
X61850950Y-98628313D01*
X61917126Y-98381340D01*
X61950500Y-98127843D01*
X61950500Y-97872157D01*
X61917126Y-97618660D01*
X61850950Y-97371687D01*
X61753104Y-97135465D01*
X61753102Y-97135462D01*
X61753100Y-97135457D01*
X61625265Y-96914042D01*
X61625261Y-96914035D01*
X61469610Y-96711187D01*
X61469605Y-96711181D01*
X61288818Y-96530394D01*
X61288811Y-96530388D01*
X61085973Y-96374745D01*
X61085971Y-96374743D01*
X61085965Y-96374739D01*
X61085960Y-96374736D01*
X61085957Y-96374734D01*
X60864542Y-96246899D01*
X60864531Y-96246894D01*
X60628322Y-96149053D01*
X60628315Y-96149051D01*
X60628313Y-96149050D01*
X60381340Y-96082874D01*
X60325007Y-96075457D01*
X60127850Y-96049500D01*
X60127843Y-96049500D01*
X59872157Y-96049500D01*
X59872149Y-96049500D01*
X59646826Y-96079165D01*
X59618660Y-96082874D01*
X59371687Y-96149050D01*
X59371677Y-96149053D01*
X59135468Y-96246894D01*
X59135457Y-96246899D01*
X58914042Y-96374734D01*
X58914026Y-96374745D01*
X58711188Y-96530388D01*
X58711181Y-96530394D01*
X58530394Y-96711181D01*
X58530388Y-96711188D01*
X58374745Y-96914026D01*
X58374734Y-96914042D01*
X58246899Y-97135457D01*
X58246894Y-97135468D01*
X58149053Y-97371677D01*
X58149050Y-97371687D01*
X58082874Y-97618661D01*
X58049500Y-97872149D01*
X55695215Y-97872149D01*
X55670940Y-97718881D01*
X55612545Y-97539163D01*
X55526759Y-97370800D01*
X55415690Y-97217927D01*
X55282073Y-97084310D01*
X55129199Y-96973240D01*
X54960836Y-96887454D01*
X54781118Y-96829059D01*
X54594486Y-96799500D01*
X54594481Y-96799500D01*
X54405519Y-96799500D01*
X54405514Y-96799500D01*
X54218881Y-96829059D01*
X54039163Y-96887454D01*
X53870800Y-96973240D01*
X53783579Y-97036610D01*
X53717927Y-97084310D01*
X53717925Y-97084312D01*
X53717924Y-97084312D01*
X53584312Y-97217924D01*
X53584312Y-97217925D01*
X53584310Y-97217927D01*
X53536610Y-97283579D01*
X53473240Y-97370800D01*
X53387454Y-97539163D01*
X53329059Y-97718881D01*
X53299500Y-97905513D01*
X38500500Y-97905513D01*
X38500500Y-91981902D01*
X58499500Y-91981902D01*
X58499500Y-92218097D01*
X58536446Y-92451368D01*
X58609433Y-92675996D01*
X58716657Y-92886433D01*
X58855483Y-93077510D01*
X59022490Y-93244517D01*
X59213567Y-93383343D01*
X59312991Y-93434002D01*
X59424003Y-93490566D01*
X59424005Y-93490566D01*
X59424008Y-93490568D01*
X59544412Y-93529689D01*
X59648631Y-93563553D01*
X59881903Y-93600500D01*
X59881908Y-93600500D01*
X60118097Y-93600500D01*
X60351368Y-93563553D01*
X60575992Y-93490568D01*
X60786433Y-93383343D01*
X60977510Y-93244517D01*
X61144517Y-93077510D01*
X61283343Y-92886433D01*
X61390568Y-92675992D01*
X61463553Y-92451368D01*
X61500500Y-92218097D01*
X61500500Y-91981902D01*
X61463553Y-91748631D01*
X61390566Y-91524003D01*
X61283342Y-91313566D01*
X61144517Y-91122490D01*
X60977510Y-90955483D01*
X60786433Y-90816657D01*
X60575996Y-90709433D01*
X60351368Y-90636446D01*
X60118097Y-90599500D01*
X60118092Y-90599500D01*
X59881908Y-90599500D01*
X59881903Y-90599500D01*
X59648631Y-90636446D01*
X59424003Y-90709433D01*
X59213566Y-90816657D01*
X59104550Y-90895862D01*
X59022490Y-90955483D01*
X59022488Y-90955485D01*
X59022487Y-90955485D01*
X58855485Y-91122487D01*
X58855485Y-91122488D01*
X58855483Y-91122490D01*
X58795862Y-91204550D01*
X58716657Y-91313566D01*
X58609433Y-91524003D01*
X58536446Y-91748631D01*
X58499500Y-91981902D01*
X38500500Y-91981902D01*
X38500500Y-76905513D01*
X44299500Y-76905513D01*
X44299500Y-77094486D01*
X44329059Y-77281118D01*
X44387454Y-77460836D01*
X44472788Y-77628312D01*
X44473240Y-77629199D01*
X44584310Y-77782073D01*
X44717927Y-77915690D01*
X44870801Y-78026760D01*
X44950347Y-78067290D01*
X45039163Y-78112545D01*
X45039165Y-78112545D01*
X45039168Y-78112547D01*
X45135497Y-78143846D01*
X45218881Y-78170940D01*
X45405514Y-78200500D01*
X45405519Y-78200500D01*
X45594486Y-78200500D01*
X45781118Y-78170940D01*
X45812670Y-78160688D01*
X45960832Y-78112547D01*
X46129199Y-78026760D01*
X46282073Y-77915690D01*
X46415690Y-77782073D01*
X46526760Y-77629199D01*
X46612547Y-77460832D01*
X46670940Y-77281118D01*
X46700500Y-77094486D01*
X46700500Y-76905514D01*
X46697646Y-76887497D01*
X46697646Y-76887496D01*
X46695215Y-76872149D01*
X49049500Y-76872149D01*
X49049500Y-77127850D01*
X49069679Y-77281118D01*
X49082874Y-77381340D01*
X49090620Y-77410248D01*
X49149050Y-77628312D01*
X49149053Y-77628322D01*
X49246894Y-77864531D01*
X49246899Y-77864542D01*
X49374734Y-78085957D01*
X49374745Y-78085973D01*
X49530388Y-78288811D01*
X49530394Y-78288818D01*
X49711181Y-78469605D01*
X49711187Y-78469610D01*
X49914035Y-78625261D01*
X49914042Y-78625265D01*
X50135457Y-78753100D01*
X50135462Y-78753102D01*
X50135465Y-78753104D01*
X50371687Y-78850950D01*
X50618660Y-78917126D01*
X50872157Y-78950500D01*
X50872164Y-78950500D01*
X51127836Y-78950500D01*
X51127843Y-78950500D01*
X51381340Y-78917126D01*
X51628313Y-78850950D01*
X51864535Y-78753104D01*
X52085965Y-78625261D01*
X52288813Y-78469610D01*
X52469610Y-78288813D01*
X52625261Y-78085965D01*
X52753104Y-77864535D01*
X52850950Y-77628313D01*
X52917126Y-77381340D01*
X52950500Y-77127843D01*
X52950500Y-76905513D01*
X55299500Y-76905513D01*
X55299500Y-77094486D01*
X55329059Y-77281118D01*
X55387454Y-77460836D01*
X55472788Y-77628312D01*
X55473240Y-77629199D01*
X55584310Y-77782073D01*
X55717927Y-77915690D01*
X55870801Y-78026760D01*
X55950347Y-78067290D01*
X56039163Y-78112545D01*
X56039165Y-78112545D01*
X56039168Y-78112547D01*
X56135497Y-78143846D01*
X56218881Y-78170940D01*
X56405514Y-78200500D01*
X56405519Y-78200500D01*
X56594486Y-78200500D01*
X56781118Y-78170940D01*
X56812670Y-78160688D01*
X56960832Y-78112547D01*
X57129199Y-78026760D01*
X57282073Y-77915690D01*
X57415690Y-77782073D01*
X57526760Y-77629199D01*
X57612547Y-77460832D01*
X57670940Y-77281118D01*
X57700500Y-77094486D01*
X57700500Y-76905513D01*
X57670940Y-76718881D01*
X57612545Y-76539163D01*
X57526759Y-76370800D01*
X57415690Y-76217927D01*
X57282073Y-76084310D01*
X57129199Y-75973240D01*
X56960836Y-75887454D01*
X56781118Y-75829059D01*
X56594486Y-75799500D01*
X56594481Y-75799500D01*
X56405519Y-75799500D01*
X56405514Y-75799500D01*
X56218881Y-75829059D01*
X56039163Y-75887454D01*
X55870800Y-75973240D01*
X55783579Y-76036610D01*
X55717927Y-76084310D01*
X55717925Y-76084312D01*
X55717924Y-76084312D01*
X55584312Y-76217924D01*
X55584312Y-76217925D01*
X55584310Y-76217927D01*
X55536610Y-76283579D01*
X55473240Y-76370800D01*
X55387454Y-76539163D01*
X55329059Y-76718881D01*
X55299500Y-76905513D01*
X52950500Y-76905513D01*
X52950500Y-76872157D01*
X52917126Y-76618660D01*
X52850950Y-76371687D01*
X52753104Y-76135465D01*
X52753102Y-76135462D01*
X52753100Y-76135457D01*
X52625265Y-75914042D01*
X52625261Y-75914035D01*
X52469610Y-75711187D01*
X52469605Y-75711181D01*
X52288818Y-75530394D01*
X52288811Y-75530388D01*
X52085973Y-75374745D01*
X52085971Y-75374743D01*
X52085965Y-75374739D01*
X52085960Y-75374736D01*
X52085957Y-75374734D01*
X51864542Y-75246899D01*
X51864531Y-75246894D01*
X51628322Y-75149053D01*
X51628315Y-75149051D01*
X51628313Y-75149050D01*
X51381340Y-75082874D01*
X51325007Y-75075457D01*
X51127850Y-75049500D01*
X51127843Y-75049500D01*
X50872157Y-75049500D01*
X50872149Y-75049500D01*
X50646826Y-75079165D01*
X50618660Y-75082874D01*
X50371687Y-75149050D01*
X50371677Y-75149053D01*
X50135468Y-75246894D01*
X50135457Y-75246899D01*
X49914042Y-75374734D01*
X49914026Y-75374745D01*
X49711188Y-75530388D01*
X49711181Y-75530394D01*
X49530394Y-75711181D01*
X49530388Y-75711188D01*
X49374745Y-75914026D01*
X49374734Y-75914042D01*
X49246899Y-76135457D01*
X49246894Y-76135468D01*
X49149053Y-76371677D01*
X49149050Y-76371687D01*
X49082874Y-76618661D01*
X49049500Y-76872149D01*
X46695215Y-76872149D01*
X46670940Y-76718881D01*
X46612545Y-76539163D01*
X46526759Y-76370800D01*
X46415690Y-76217927D01*
X46282073Y-76084310D01*
X46129199Y-75973240D01*
X45960836Y-75887454D01*
X45781118Y-75829059D01*
X45594486Y-75799500D01*
X45594481Y-75799500D01*
X45405519Y-75799500D01*
X45405514Y-75799500D01*
X45218881Y-75829059D01*
X45039163Y-75887454D01*
X44870800Y-75973240D01*
X44783579Y-76036610D01*
X44717927Y-76084310D01*
X44717925Y-76084312D01*
X44717924Y-76084312D01*
X44584312Y-76217924D01*
X44584312Y-76217925D01*
X44584310Y-76217927D01*
X44536610Y-76283579D01*
X44473240Y-76370800D01*
X44387454Y-76539163D01*
X44329059Y-76718881D01*
X44299500Y-76905513D01*
X38500500Y-76905513D01*
X38500500Y-73081947D01*
X54500000Y-73081947D01*
X54500000Y-73318052D01*
X54536934Y-73551247D01*
X54609897Y-73775802D01*
X54717087Y-73986174D01*
X54807095Y-74110060D01*
X54807096Y-74110061D01*
X55457242Y-73459915D01*
X55519881Y-73568408D01*
X55631592Y-73680119D01*
X55740083Y-73742757D01*
X55089937Y-74392902D01*
X55089938Y-74392904D01*
X55213825Y-74482912D01*
X55424197Y-74590102D01*
X55648752Y-74663065D01*
X55648751Y-74663065D01*
X55881948Y-74700000D01*
X56118052Y-74700000D01*
X56351247Y-74663065D01*
X56575802Y-74590102D01*
X56786171Y-74482914D01*
X56910060Y-74392902D01*
X56910061Y-74392902D01*
X56259915Y-73742757D01*
X56368408Y-73680119D01*
X56480119Y-73568408D01*
X56542757Y-73459915D01*
X57192902Y-74110061D01*
X57192902Y-74110060D01*
X57282914Y-73986171D01*
X57390102Y-73775802D01*
X57463065Y-73551247D01*
X57500000Y-73318052D01*
X57500000Y-73081947D01*
X57463065Y-72848752D01*
X57390102Y-72624197D01*
X57282912Y-72413825D01*
X57192904Y-72289938D01*
X57192902Y-72289937D01*
X56542757Y-72940083D01*
X56480119Y-72831592D01*
X56368408Y-72719881D01*
X56259915Y-72657242D01*
X56910061Y-72007096D01*
X56910060Y-72007095D01*
X56786174Y-71917087D01*
X56575802Y-71809897D01*
X56351247Y-71736934D01*
X56351248Y-71736934D01*
X56118052Y-71700000D01*
X55881948Y-71700000D01*
X55648752Y-71736934D01*
X55424197Y-71809897D01*
X55213832Y-71917083D01*
X55089938Y-72007096D01*
X55740084Y-72657242D01*
X55631592Y-72719881D01*
X55519881Y-72831592D01*
X55457242Y-72940084D01*
X54807096Y-72289938D01*
X54717083Y-72413832D01*
X54609897Y-72624197D01*
X54536934Y-72848752D01*
X54500000Y-73081947D01*
X38500500Y-73081947D01*
X38500500Y-70981902D01*
X49499500Y-70981902D01*
X49499500Y-71218097D01*
X49536446Y-71451368D01*
X49609433Y-71675996D01*
X49640483Y-71736934D01*
X49716657Y-71886433D01*
X49855483Y-72077510D01*
X50022490Y-72244517D01*
X50213567Y-72383343D01*
X50273405Y-72413832D01*
X50424003Y-72490566D01*
X50424005Y-72490566D01*
X50424008Y-72490568D01*
X50535478Y-72526787D01*
X50648631Y-72563553D01*
X50881903Y-72600500D01*
X50881908Y-72600500D01*
X51118097Y-72600500D01*
X51351368Y-72563553D01*
X51575992Y-72490568D01*
X51786433Y-72383343D01*
X51977510Y-72244517D01*
X52144517Y-72077510D01*
X52283343Y-71886433D01*
X52390568Y-71675992D01*
X52463553Y-71451368D01*
X52471794Y-71399339D01*
X52500500Y-71218097D01*
X52500500Y-70981902D01*
X52463553Y-70748631D01*
X52429689Y-70644412D01*
X52390568Y-70524008D01*
X52390566Y-70524005D01*
X52390566Y-70524003D01*
X52334002Y-70412991D01*
X52283343Y-70313567D01*
X52144517Y-70122490D01*
X51977510Y-69955483D01*
X51786433Y-69816657D01*
X51575996Y-69709433D01*
X51351368Y-69636446D01*
X51118097Y-69599500D01*
X51118092Y-69599500D01*
X50881908Y-69599500D01*
X50881903Y-69599500D01*
X50648631Y-69636446D01*
X50424003Y-69709433D01*
X50213566Y-69816657D01*
X50104550Y-69895862D01*
X50022490Y-69955483D01*
X50022488Y-69955485D01*
X50022487Y-69955485D01*
X49855485Y-70122487D01*
X49855485Y-70122488D01*
X49855483Y-70122490D01*
X49795862Y-70204550D01*
X49716657Y-70313566D01*
X49609433Y-70524003D01*
X49536446Y-70748631D01*
X49499500Y-70981902D01*
X38500500Y-70981902D01*
X38500500Y-59905513D01*
X44299500Y-59905513D01*
X44299500Y-60094486D01*
X44329059Y-60281118D01*
X44387454Y-60460836D01*
X44472788Y-60628312D01*
X44473240Y-60629199D01*
X44584310Y-60782073D01*
X44717927Y-60915690D01*
X44870801Y-61026760D01*
X44950347Y-61067290D01*
X45039163Y-61112545D01*
X45039165Y-61112545D01*
X45039168Y-61112547D01*
X45135497Y-61143846D01*
X45218881Y-61170940D01*
X45405514Y-61200500D01*
X45405519Y-61200500D01*
X45594486Y-61200500D01*
X45781118Y-61170940D01*
X45960832Y-61112547D01*
X46129199Y-61026760D01*
X46282073Y-60915690D01*
X46415690Y-60782073D01*
X46526760Y-60629199D01*
X46612547Y-60460832D01*
X46670940Y-60281118D01*
X46700500Y-60094486D01*
X46700500Y-59905513D01*
X46670940Y-59718881D01*
X46638376Y-59618660D01*
X46612547Y-59539168D01*
X46612545Y-59539165D01*
X46612545Y-59539163D01*
X46526759Y-59370800D01*
X46415690Y-59217927D01*
X46282073Y-59084310D01*
X46129199Y-58973240D01*
X45960836Y-58887454D01*
X45781118Y-58829059D01*
X45594486Y-58799500D01*
X45594481Y-58799500D01*
X45405519Y-58799500D01*
X45405514Y-58799500D01*
X45218881Y-58829059D01*
X45039163Y-58887454D01*
X44870800Y-58973240D01*
X44783579Y-59036610D01*
X44717927Y-59084310D01*
X44717925Y-59084312D01*
X44717924Y-59084312D01*
X44584312Y-59217924D01*
X44584312Y-59217925D01*
X44584310Y-59217927D01*
X44536610Y-59283579D01*
X44473240Y-59370800D01*
X44387454Y-59539163D01*
X44329059Y-59718881D01*
X44299500Y-59905513D01*
X38500500Y-59905513D01*
X38500500Y-49905513D01*
X40299500Y-49905513D01*
X40299500Y-50094486D01*
X40329059Y-50281118D01*
X40387454Y-50460836D01*
X40454900Y-50593205D01*
X40473240Y-50629199D01*
X40584310Y-50782073D01*
X40717927Y-50915690D01*
X40870801Y-51026760D01*
X40950347Y-51067290D01*
X41039163Y-51112545D01*
X41039165Y-51112545D01*
X41039168Y-51112547D01*
X41131812Y-51142649D01*
X41218881Y-51170940D01*
X41405514Y-51200500D01*
X41405519Y-51200500D01*
X41594486Y-51200500D01*
X41781118Y-51170940D01*
X41782623Y-51170451D01*
X41960832Y-51112547D01*
X42129199Y-51026760D01*
X42282073Y-50915690D01*
X42415690Y-50782073D01*
X42526760Y-50629199D01*
X42612547Y-50460832D01*
X42670940Y-50281118D01*
X42670958Y-50281002D01*
X42700500Y-50094486D01*
X42700500Y-49905552D01*
X45300000Y-49905552D01*
X45300000Y-50094447D01*
X45329548Y-50281002D01*
X45387914Y-50460637D01*
X45473666Y-50628933D01*
X45521872Y-50695284D01*
X46113629Y-50103528D01*
X46127259Y-50154394D01*
X46179920Y-50245606D01*
X46254394Y-50320080D01*
X46345606Y-50372741D01*
X46396471Y-50386370D01*
X45804713Y-50978126D01*
X45804714Y-50978127D01*
X45871059Y-51026329D01*
X46039362Y-51112085D01*
X46218997Y-51170451D01*
X46405553Y-51200000D01*
X46594447Y-51200000D01*
X46781002Y-51170451D01*
X46960637Y-51112085D01*
X47128937Y-51026331D01*
X47195284Y-50978126D01*
X47195285Y-50978126D01*
X46603529Y-50386370D01*
X46654394Y-50372741D01*
X46745606Y-50320080D01*
X46820080Y-50245606D01*
X46872741Y-50154394D01*
X46886370Y-50103529D01*
X47478126Y-50695285D01*
X47478126Y-50695284D01*
X47526331Y-50628937D01*
X47612085Y-50460637D01*
X47670451Y-50281002D01*
X47700000Y-50094447D01*
X47700000Y-49905552D01*
X47670451Y-49718997D01*
X47612085Y-49539362D01*
X47526329Y-49371059D01*
X47478127Y-49304714D01*
X47478126Y-49304713D01*
X46886370Y-49896470D01*
X46872741Y-49845606D01*
X46820080Y-49754394D01*
X46745606Y-49679920D01*
X46654394Y-49627259D01*
X46603528Y-49613629D01*
X47195284Y-49021872D01*
X47128933Y-48973666D01*
X46960637Y-48887914D01*
X46781002Y-48829548D01*
X46594447Y-48800000D01*
X46405553Y-48800000D01*
X46218997Y-48829548D01*
X46039362Y-48887914D01*
X45871064Y-48973667D01*
X45871062Y-48973668D01*
X45804714Y-49021871D01*
X45804714Y-49021872D01*
X46396471Y-49613629D01*
X46345606Y-49627259D01*
X46254394Y-49679920D01*
X46179920Y-49754394D01*
X46127259Y-49845606D01*
X46113629Y-49896471D01*
X45521872Y-49304714D01*
X45521871Y-49304714D01*
X45473668Y-49371062D01*
X45473667Y-49371064D01*
X45387914Y-49539362D01*
X45329548Y-49718997D01*
X45300000Y-49905552D01*
X42700500Y-49905552D01*
X42700500Y-49905513D01*
X42671943Y-49725215D01*
X42670940Y-49718882D01*
X42658455Y-49680460D01*
X42656461Y-49610620D01*
X42688704Y-49554464D01*
X51681351Y-40561819D01*
X51742674Y-40528334D01*
X51769032Y-40525500D01*
X52382183Y-40525500D01*
X52449222Y-40545185D01*
X52492668Y-40593205D01*
X52537715Y-40681613D01*
X52658028Y-40847213D01*
X52802786Y-40991971D01*
X52898012Y-41061155D01*
X52968390Y-41112287D01*
X53084607Y-41171503D01*
X53150776Y-41205218D01*
X53150778Y-41205218D01*
X53150781Y-41205220D01*
X53194423Y-41219400D01*
X53345465Y-41268477D01*
X53445020Y-41284245D01*
X53547648Y-41300500D01*
X53547649Y-41300500D01*
X53752351Y-41300500D01*
X53752352Y-41300500D01*
X53954534Y-41268477D01*
X54048898Y-41237815D01*
X54118738Y-41235821D01*
X54174896Y-41268066D01*
X63327335Y-50420505D01*
X63327336Y-50420506D01*
X63327338Y-50420507D01*
X63447161Y-50489687D01*
X63447162Y-50489687D01*
X63447165Y-50489689D01*
X63580817Y-50525501D01*
X63580819Y-50525501D01*
X63726780Y-50525501D01*
X63726796Y-50525500D01*
X65344415Y-50525500D01*
X65411454Y-50545185D01*
X65454899Y-50593205D01*
X65473236Y-50629194D01*
X65473240Y-50629199D01*
X65584310Y-50782073D01*
X65717927Y-50915690D01*
X65870801Y-51026760D01*
X65950347Y-51067290D01*
X66039163Y-51112545D01*
X66039165Y-51112545D01*
X66039168Y-51112547D01*
X66131812Y-51142649D01*
X66218881Y-51170940D01*
X66405514Y-51200500D01*
X66405519Y-51200500D01*
X66594486Y-51200500D01*
X66781118Y-51170940D01*
X66782623Y-51170451D01*
X66960832Y-51112547D01*
X67129199Y-51026760D01*
X67282073Y-50915690D01*
X67415690Y-50782073D01*
X67526760Y-50629199D01*
X67612547Y-50460832D01*
X67670940Y-50281118D01*
X67670958Y-50281002D01*
X67700500Y-50094486D01*
X67700500Y-49905513D01*
X67670940Y-49718881D01*
X67629348Y-49590875D01*
X67612547Y-49539168D01*
X67612545Y-49539165D01*
X67612545Y-49539163D01*
X67545100Y-49406795D01*
X67526760Y-49370801D01*
X67415690Y-49217927D01*
X67282073Y-49084310D01*
X67129199Y-48973240D01*
X66960836Y-48887454D01*
X66781118Y-48829059D01*
X66594486Y-48799500D01*
X66594481Y-48799500D01*
X66405519Y-48799500D01*
X66405514Y-48799500D01*
X66218881Y-48829059D01*
X66039163Y-48887454D01*
X65870800Y-48973240D01*
X65812378Y-49015687D01*
X65717927Y-49084310D01*
X65717925Y-49084312D01*
X65717924Y-49084312D01*
X65584312Y-49217924D01*
X65584312Y-49217925D01*
X65584310Y-49217927D01*
X65567676Y-49240822D01*
X65473236Y-49370805D01*
X65454899Y-49406795D01*
X65406925Y-49457591D01*
X65344415Y-49474500D01*
X63919032Y-49474500D01*
X63851993Y-49454815D01*
X63831351Y-49438181D01*
X55888780Y-41495610D01*
X55855295Y-41434287D01*
X55860279Y-41364595D01*
X55902151Y-41308662D01*
X55967615Y-41284245D01*
X55995860Y-41285456D01*
X56087684Y-41300000D01*
X56292317Y-41300000D01*
X56494417Y-41267990D01*
X56689031Y-41204755D01*
X56871349Y-41111859D01*
X56956876Y-41049719D01*
X56956877Y-41049719D01*
X56375177Y-40468019D01*
X56382993Y-40465925D01*
X56497007Y-40400099D01*
X56590099Y-40307007D01*
X56655925Y-40192993D01*
X56658019Y-40185177D01*
X57239718Y-40766877D01*
X57239719Y-40766876D01*
X57301861Y-40681347D01*
X57349234Y-40588371D01*
X57397208Y-40537575D01*
X57465028Y-40520779D01*
X57531164Y-40543316D01*
X57570203Y-40588369D01*
X57617713Y-40681611D01*
X57738028Y-40847213D01*
X57882786Y-40991971D01*
X57978012Y-41061155D01*
X58048390Y-41112287D01*
X58164607Y-41171503D01*
X58230776Y-41205218D01*
X58230778Y-41205218D01*
X58230781Y-41205220D01*
X58274423Y-41219400D01*
X58425465Y-41268477D01*
X58525020Y-41284245D01*
X58627648Y-41300500D01*
X58627649Y-41300500D01*
X58832351Y-41300500D01*
X58832352Y-41300500D01*
X59034534Y-41268477D01*
X59229219Y-41205220D01*
X59411610Y-41112287D01*
X59504590Y-41044732D01*
X59577213Y-40991971D01*
X59577215Y-40991968D01*
X59577219Y-40991966D01*
X59721966Y-40847219D01*
X59721968Y-40847215D01*
X59721971Y-40847213D01*
X59842284Y-40681614D01*
X59842286Y-40681611D01*
X59842287Y-40681610D01*
X59889516Y-40588917D01*
X59937489Y-40538123D01*
X60005310Y-40521328D01*
X60071445Y-40543865D01*
X60110483Y-40588917D01*
X60154348Y-40675006D01*
X60157715Y-40681614D01*
X60278028Y-40847213D01*
X60422786Y-40991971D01*
X60518012Y-41061155D01*
X60588390Y-41112287D01*
X60704607Y-41171503D01*
X60770776Y-41205218D01*
X60770778Y-41205218D01*
X60770781Y-41205220D01*
X60814423Y-41219400D01*
X60965465Y-41268477D01*
X61065020Y-41284245D01*
X61167648Y-41300500D01*
X61167649Y-41300500D01*
X61372351Y-41300500D01*
X61372352Y-41300500D01*
X61574534Y-41268477D01*
X61668900Y-41237814D01*
X61738737Y-41235819D01*
X61794896Y-41268065D01*
X62679209Y-42152378D01*
X62712694Y-42213701D01*
X62707710Y-42283393D01*
X62665838Y-42339326D01*
X62629847Y-42357989D01*
X62539168Y-42387453D01*
X62539165Y-42387454D01*
X62370800Y-42473240D01*
X62283579Y-42536610D01*
X62217927Y-42584310D01*
X62217925Y-42584312D01*
X62217924Y-42584312D01*
X62084312Y-42717924D01*
X62084312Y-42717925D01*
X62084310Y-42717927D01*
X62069112Y-42738845D01*
X61973240Y-42870800D01*
X61887454Y-43039163D01*
X61829059Y-43218881D01*
X61799500Y-43405513D01*
X61799500Y-43594486D01*
X61829059Y-43781118D01*
X61887454Y-43960836D01*
X61973240Y-44129199D01*
X62084310Y-44282073D01*
X62217927Y-44415690D01*
X62370801Y-44526760D01*
X62450347Y-44567290D01*
X62539163Y-44612545D01*
X62539165Y-44612545D01*
X62539168Y-44612547D01*
X62635497Y-44643846D01*
X62718881Y-44670940D01*
X62905514Y-44700500D01*
X62905519Y-44700500D01*
X63094486Y-44700500D01*
X63281118Y-44670940D01*
X63460832Y-44612547D01*
X63629199Y-44526760D01*
X63782073Y-44415690D01*
X63915690Y-44282073D01*
X64026760Y-44129199D01*
X64112547Y-43960832D01*
X64142010Y-43870153D01*
X64181448Y-43812478D01*
X64245806Y-43785280D01*
X64314653Y-43797195D01*
X64347622Y-43820791D01*
X68438281Y-47911450D01*
X68471766Y-47972773D01*
X68474600Y-47999131D01*
X68474600Y-49030813D01*
X68474599Y-49030817D01*
X68474599Y-49169183D01*
X68490966Y-49230263D01*
X68493794Y-49240820D01*
X68493795Y-49240822D01*
X68510413Y-49302838D01*
X68579592Y-49422661D01*
X68579596Y-49422666D01*
X68684500Y-49527570D01*
X68684506Y-49527575D01*
X71232281Y-52075350D01*
X71265766Y-52136673D01*
X71268600Y-52163031D01*
X71268600Y-70240769D01*
X71248915Y-70307808D01*
X71196111Y-70353563D01*
X71126953Y-70363507D01*
X71063397Y-70334482D01*
X71056919Y-70328450D01*
X68677275Y-67948806D01*
X68677273Y-67948803D01*
X68572366Y-67843896D01*
X68572361Y-67843892D01*
X68452540Y-67774713D01*
X68424292Y-67767143D01*
X68424291Y-67767143D01*
X68318883Y-67738899D01*
X68180517Y-67738899D01*
X68172921Y-67738899D01*
X68172905Y-67738900D01*
X62797031Y-67738900D01*
X62729992Y-67719215D01*
X62709350Y-67702581D01*
X56418950Y-61412181D01*
X56385465Y-61350858D01*
X56390449Y-61281166D01*
X56432321Y-61225233D01*
X56497785Y-61200816D01*
X56506631Y-61200500D01*
X56594486Y-61200500D01*
X56781118Y-61170940D01*
X56960832Y-61112547D01*
X57129199Y-61026760D01*
X57282073Y-60915690D01*
X57415690Y-60782073D01*
X57526760Y-60629199D01*
X57612547Y-60460832D01*
X57670940Y-60281118D01*
X57700500Y-60094486D01*
X57700500Y-59905513D01*
X62299500Y-59905513D01*
X62299500Y-60094486D01*
X62329059Y-60281118D01*
X62387454Y-60460836D01*
X62472788Y-60628312D01*
X62473240Y-60629199D01*
X62584310Y-60782073D01*
X62717927Y-60915690D01*
X62870801Y-61026760D01*
X62950347Y-61067290D01*
X63039163Y-61112545D01*
X63039165Y-61112545D01*
X63039168Y-61112547D01*
X63135497Y-61143846D01*
X63218881Y-61170940D01*
X63405514Y-61200500D01*
X63405519Y-61200500D01*
X63594486Y-61200500D01*
X63781118Y-61170940D01*
X63960832Y-61112547D01*
X64129199Y-61026760D01*
X64282073Y-60915690D01*
X64415690Y-60782073D01*
X64526760Y-60629199D01*
X64612547Y-60460832D01*
X64670940Y-60281118D01*
X64700500Y-60094486D01*
X64700500Y-59905514D01*
X64697646Y-59887497D01*
X64697646Y-59887496D01*
X64695215Y-59872149D01*
X67049500Y-59872149D01*
X67049500Y-60127850D01*
X67069679Y-60281118D01*
X67082874Y-60381340D01*
X67104174Y-60460832D01*
X67149050Y-60628312D01*
X67149053Y-60628322D01*
X67246894Y-60864531D01*
X67246899Y-60864542D01*
X67374734Y-61085957D01*
X67374745Y-61085973D01*
X67530388Y-61288811D01*
X67530394Y-61288818D01*
X67711181Y-61469605D01*
X67711187Y-61469610D01*
X67914035Y-61625261D01*
X67914042Y-61625265D01*
X68135457Y-61753100D01*
X68135462Y-61753102D01*
X68135465Y-61753104D01*
X68371687Y-61850950D01*
X68618660Y-61917126D01*
X68872157Y-61950500D01*
X68872164Y-61950500D01*
X69127836Y-61950500D01*
X69127843Y-61950500D01*
X69381340Y-61917126D01*
X69628313Y-61850950D01*
X69864535Y-61753104D01*
X70085965Y-61625261D01*
X70288813Y-61469610D01*
X70469610Y-61288813D01*
X70625261Y-61085965D01*
X70753104Y-60864535D01*
X70850950Y-60628313D01*
X70917126Y-60381340D01*
X70950500Y-60127843D01*
X70950500Y-59872157D01*
X70917126Y-59618660D01*
X70850950Y-59371687D01*
X70753104Y-59135465D01*
X70753102Y-59135462D01*
X70753100Y-59135457D01*
X70625265Y-58914042D01*
X70625261Y-58914035D01*
X70469610Y-58711187D01*
X70469605Y-58711181D01*
X70288818Y-58530394D01*
X70288811Y-58530388D01*
X70085973Y-58374745D01*
X70085971Y-58374743D01*
X70085965Y-58374739D01*
X70085960Y-58374736D01*
X70085957Y-58374734D01*
X69864542Y-58246899D01*
X69864531Y-58246894D01*
X69628322Y-58149053D01*
X69628315Y-58149051D01*
X69628313Y-58149050D01*
X69381340Y-58082874D01*
X69325007Y-58075457D01*
X69127850Y-58049500D01*
X69127843Y-58049500D01*
X68872157Y-58049500D01*
X68872149Y-58049500D01*
X68646826Y-58079165D01*
X68618660Y-58082874D01*
X68371687Y-58149050D01*
X68371677Y-58149053D01*
X68135468Y-58246894D01*
X68135457Y-58246899D01*
X67914042Y-58374734D01*
X67914026Y-58374745D01*
X67711188Y-58530388D01*
X67711181Y-58530394D01*
X67530394Y-58711181D01*
X67530388Y-58711188D01*
X67374745Y-58914026D01*
X67374734Y-58914042D01*
X67246899Y-59135457D01*
X67246894Y-59135468D01*
X67149053Y-59371677D01*
X67149050Y-59371687D01*
X67082874Y-59618661D01*
X67049500Y-59872149D01*
X64695215Y-59872149D01*
X64670940Y-59718881D01*
X64638376Y-59618660D01*
X64612547Y-59539168D01*
X64612545Y-59539165D01*
X64612545Y-59539163D01*
X64526759Y-59370800D01*
X64415690Y-59217927D01*
X64282073Y-59084310D01*
X64129199Y-58973240D01*
X63960836Y-58887454D01*
X63781118Y-58829059D01*
X63594486Y-58799500D01*
X63594481Y-58799500D01*
X63405519Y-58799500D01*
X63405514Y-58799500D01*
X63218881Y-58829059D01*
X63039163Y-58887454D01*
X62870800Y-58973240D01*
X62783579Y-59036610D01*
X62717927Y-59084310D01*
X62717925Y-59084312D01*
X62717924Y-59084312D01*
X62584312Y-59217924D01*
X62584312Y-59217925D01*
X62584310Y-59217927D01*
X62536610Y-59283579D01*
X62473240Y-59370800D01*
X62387454Y-59539163D01*
X62329059Y-59718881D01*
X62299500Y-59905513D01*
X57700500Y-59905513D01*
X57670940Y-59718881D01*
X57638376Y-59618660D01*
X57612547Y-59539168D01*
X57612545Y-59539165D01*
X57612545Y-59539163D01*
X57526759Y-59370800D01*
X57415690Y-59217927D01*
X57282073Y-59084310D01*
X57129199Y-58973240D01*
X56960836Y-58887454D01*
X56781118Y-58829059D01*
X56594486Y-58799500D01*
X56594481Y-58799500D01*
X56405519Y-58799500D01*
X56405514Y-58799500D01*
X56218881Y-58829059D01*
X56039163Y-58887454D01*
X55870800Y-58973240D01*
X55783579Y-59036610D01*
X55717927Y-59084310D01*
X55717925Y-59084312D01*
X55717924Y-59084312D01*
X55584312Y-59217924D01*
X55584312Y-59217925D01*
X55584310Y-59217927D01*
X55536610Y-59283579D01*
X55473240Y-59370800D01*
X55387454Y-59539163D01*
X55329059Y-59718881D01*
X55299500Y-59905513D01*
X55299500Y-59993369D01*
X55279815Y-60060408D01*
X55227011Y-60106163D01*
X55157853Y-60116107D01*
X55094297Y-60087082D01*
X55087819Y-60081050D01*
X51561819Y-56555050D01*
X51528334Y-56493727D01*
X51525500Y-56467369D01*
X51525500Y-56081947D01*
X54500000Y-56081947D01*
X54500000Y-56318052D01*
X54536934Y-56551247D01*
X54609897Y-56775802D01*
X54717087Y-56986174D01*
X54807095Y-57110060D01*
X54807096Y-57110061D01*
X55457242Y-56459915D01*
X55519881Y-56568408D01*
X55631592Y-56680119D01*
X55740083Y-56742757D01*
X55089937Y-57392902D01*
X55089938Y-57392904D01*
X55213825Y-57482912D01*
X55424197Y-57590102D01*
X55648752Y-57663065D01*
X55648751Y-57663065D01*
X55881948Y-57700000D01*
X56118052Y-57700000D01*
X56351247Y-57663065D01*
X56575802Y-57590102D01*
X56786171Y-57482914D01*
X56910060Y-57392902D01*
X56910061Y-57392902D01*
X56259915Y-56742757D01*
X56368408Y-56680119D01*
X56480119Y-56568408D01*
X56542757Y-56459915D01*
X57192902Y-57110061D01*
X57192902Y-57110060D01*
X57282914Y-56986171D01*
X57390102Y-56775802D01*
X57463065Y-56551247D01*
X57500000Y-56318052D01*
X57500000Y-56081947D01*
X57463065Y-55848752D01*
X57390102Y-55624197D01*
X57282912Y-55413825D01*
X57192904Y-55289938D01*
X57192902Y-55289937D01*
X56542757Y-55940083D01*
X56480119Y-55831592D01*
X56368408Y-55719881D01*
X56259915Y-55657242D01*
X56910061Y-55007096D01*
X56910060Y-55007095D01*
X56786174Y-54917087D01*
X56575802Y-54809897D01*
X56351247Y-54736934D01*
X56351248Y-54736934D01*
X56118052Y-54700000D01*
X55881948Y-54700000D01*
X55648752Y-54736934D01*
X55424197Y-54809897D01*
X55213832Y-54917083D01*
X55089938Y-55007096D01*
X55740084Y-55657242D01*
X55631592Y-55719881D01*
X55519881Y-55831592D01*
X55457242Y-55940084D01*
X54807096Y-55289938D01*
X54717083Y-55413832D01*
X54609897Y-55624197D01*
X54536934Y-55848752D01*
X54500000Y-56081947D01*
X51525500Y-56081947D01*
X51525500Y-55592282D01*
X51545185Y-55525243D01*
X51593203Y-55481798D01*
X51786433Y-55383343D01*
X51977510Y-55244517D01*
X52144517Y-55077510D01*
X52283343Y-54886433D01*
X52390568Y-54675992D01*
X52463553Y-54451368D01*
X52500500Y-54218097D01*
X52500500Y-53981902D01*
X67499500Y-53981902D01*
X67499500Y-54218097D01*
X67536446Y-54451368D01*
X67609433Y-54675996D01*
X67640483Y-54736934D01*
X67716657Y-54886433D01*
X67855483Y-55077510D01*
X68022490Y-55244517D01*
X68213567Y-55383343D01*
X68273405Y-55413832D01*
X68424003Y-55490566D01*
X68424005Y-55490566D01*
X68424008Y-55490568D01*
X68530726Y-55525243D01*
X68648631Y-55563553D01*
X68881903Y-55600500D01*
X68881908Y-55600500D01*
X69118097Y-55600500D01*
X69351368Y-55563553D01*
X69575992Y-55490568D01*
X69786433Y-55383343D01*
X69977510Y-55244517D01*
X70144517Y-55077510D01*
X70283343Y-54886433D01*
X70390568Y-54675992D01*
X70463553Y-54451368D01*
X70500500Y-54218097D01*
X70500500Y-53981902D01*
X70463553Y-53748631D01*
X70390566Y-53524003D01*
X70283342Y-53313566D01*
X70144517Y-53122490D01*
X69977510Y-52955483D01*
X69786433Y-52816657D01*
X69575996Y-52709433D01*
X69351368Y-52636446D01*
X69118097Y-52599500D01*
X69118092Y-52599500D01*
X68881908Y-52599500D01*
X68881903Y-52599500D01*
X68648631Y-52636446D01*
X68424003Y-52709433D01*
X68213566Y-52816657D01*
X68104550Y-52895862D01*
X68022490Y-52955483D01*
X68022488Y-52955485D01*
X68022487Y-52955485D01*
X67855485Y-53122487D01*
X67855485Y-53122488D01*
X67855483Y-53122490D01*
X67795862Y-53204550D01*
X67716657Y-53313566D01*
X67609433Y-53524003D01*
X67536446Y-53748631D01*
X67499500Y-53981902D01*
X52500500Y-53981902D01*
X52463553Y-53748631D01*
X52390566Y-53524003D01*
X52283342Y-53313566D01*
X52144517Y-53122490D01*
X51977510Y-52955483D01*
X51786433Y-52816657D01*
X51575996Y-52709433D01*
X51351368Y-52636446D01*
X51118097Y-52599500D01*
X51118092Y-52599500D01*
X50881908Y-52599500D01*
X50881903Y-52599500D01*
X50648631Y-52636446D01*
X50424003Y-52709433D01*
X50213566Y-52816657D01*
X50104550Y-52895862D01*
X50022490Y-52955483D01*
X50022488Y-52955485D01*
X50022487Y-52955485D01*
X49855485Y-53122487D01*
X49855485Y-53122488D01*
X49855483Y-53122490D01*
X49795862Y-53204550D01*
X49716657Y-53313566D01*
X49609433Y-53524003D01*
X49536446Y-53748631D01*
X49499500Y-53981902D01*
X49499500Y-54218097D01*
X49536446Y-54451368D01*
X49609433Y-54675996D01*
X49640483Y-54736934D01*
X49716657Y-54886433D01*
X49855483Y-55077510D01*
X50022490Y-55244517D01*
X50213567Y-55383343D01*
X50406796Y-55481798D01*
X50457591Y-55529771D01*
X50474500Y-55592282D01*
X50474500Y-56659604D01*
X50474499Y-56659622D01*
X50474499Y-56667217D01*
X50474499Y-56805583D01*
X50502743Y-56910991D01*
X50509417Y-56935898D01*
X50510313Y-56939240D01*
X50579492Y-57059061D01*
X50579496Y-57059066D01*
X50684400Y-57163970D01*
X50684406Y-57163975D01*
X51378657Y-57858226D01*
X51412142Y-57919549D01*
X51407158Y-57989241D01*
X51365286Y-58045174D01*
X51299822Y-58069591D01*
X51274791Y-58068846D01*
X51127852Y-58049501D01*
X51127849Y-58049500D01*
X51127843Y-58049500D01*
X50872157Y-58049500D01*
X50872149Y-58049500D01*
X50646826Y-58079165D01*
X50618660Y-58082874D01*
X50371687Y-58149050D01*
X50371677Y-58149053D01*
X50135468Y-58246894D01*
X50135457Y-58246899D01*
X49914042Y-58374734D01*
X49914026Y-58374745D01*
X49711188Y-58530388D01*
X49711181Y-58530394D01*
X49530394Y-58711181D01*
X49530388Y-58711188D01*
X49374745Y-58914026D01*
X49374734Y-58914042D01*
X49246899Y-59135457D01*
X49246894Y-59135468D01*
X49149053Y-59371677D01*
X49149050Y-59371687D01*
X49082874Y-59618661D01*
X49049500Y-59872149D01*
X49049500Y-60127850D01*
X49069679Y-60281118D01*
X49082874Y-60381340D01*
X49104174Y-60460832D01*
X49149050Y-60628312D01*
X49149053Y-60628322D01*
X49246894Y-60864531D01*
X49246899Y-60864542D01*
X49374734Y-61085957D01*
X49374745Y-61085973D01*
X49530388Y-61288811D01*
X49530394Y-61288818D01*
X49711181Y-61469605D01*
X49711187Y-61469610D01*
X49914035Y-61625261D01*
X49914042Y-61625265D01*
X50135457Y-61753100D01*
X50135462Y-61753102D01*
X50135465Y-61753104D01*
X50371687Y-61850950D01*
X50618660Y-61917126D01*
X50872157Y-61950500D01*
X50872164Y-61950500D01*
X51127836Y-61950500D01*
X51127843Y-61950500D01*
X51381340Y-61917126D01*
X51628313Y-61850950D01*
X51864535Y-61753104D01*
X52085965Y-61625261D01*
X52288813Y-61469610D01*
X52469610Y-61288813D01*
X52625261Y-61085965D01*
X52753104Y-60864535D01*
X52850950Y-60628313D01*
X52917126Y-60381340D01*
X52950500Y-60127843D01*
X52950500Y-59872157D01*
X52931153Y-59725206D01*
X52941918Y-59656174D01*
X52988298Y-59603918D01*
X53055567Y-59585032D01*
X53122367Y-59605512D01*
X53141773Y-59621342D01*
X62103154Y-68582723D01*
X62103164Y-68582734D01*
X62107494Y-68587064D01*
X62107495Y-68587065D01*
X62205335Y-68684905D01*
X62325164Y-68754088D01*
X62343993Y-68759133D01*
X62353407Y-68761656D01*
X62353408Y-68761656D01*
X62458817Y-68789901D01*
X62458819Y-68789901D01*
X62604779Y-68789901D01*
X62604795Y-68789900D01*
X67980669Y-68789900D01*
X68047708Y-68809585D01*
X68068350Y-68826219D01*
X68679104Y-69436973D01*
X68712589Y-69498296D01*
X68707605Y-69567988D01*
X68665733Y-69623921D01*
X68629741Y-69642585D01*
X68424005Y-69709433D01*
X68213566Y-69816657D01*
X68104550Y-69895862D01*
X68022490Y-69955483D01*
X68022488Y-69955485D01*
X68022487Y-69955485D01*
X67855485Y-70122487D01*
X67855485Y-70122488D01*
X67855483Y-70122490D01*
X67795862Y-70204550D01*
X67716657Y-70313566D01*
X67609433Y-70524003D01*
X67536446Y-70748631D01*
X67499500Y-70981902D01*
X67499500Y-71218097D01*
X67536446Y-71451368D01*
X67574876Y-71569641D01*
X67603462Y-71657618D01*
X67605457Y-71727457D01*
X67573212Y-71783616D01*
X65868837Y-73487993D01*
X65770996Y-73585833D01*
X65770992Y-73585838D01*
X65701811Y-73705663D01*
X65701812Y-73705663D01*
X65701812Y-73705665D01*
X65665999Y-73839318D01*
X65665999Y-73987672D01*
X65666000Y-73987685D01*
X65666000Y-76321868D01*
X65646315Y-76388907D01*
X65629681Y-76409549D01*
X64912181Y-77127049D01*
X64850858Y-77160534D01*
X64781166Y-77155550D01*
X64725233Y-77113678D01*
X64700816Y-77048214D01*
X64700500Y-77039368D01*
X64700500Y-76905513D01*
X64670940Y-76718881D01*
X64612545Y-76539163D01*
X64526759Y-76370800D01*
X64415690Y-76217927D01*
X64282073Y-76084310D01*
X64129199Y-75973240D01*
X63960836Y-75887454D01*
X63781118Y-75829059D01*
X63594486Y-75799500D01*
X63594481Y-75799500D01*
X63405519Y-75799500D01*
X63405514Y-75799500D01*
X63218881Y-75829059D01*
X63039163Y-75887454D01*
X62870800Y-75973240D01*
X62783579Y-76036610D01*
X62717927Y-76084310D01*
X62717925Y-76084312D01*
X62717924Y-76084312D01*
X62584312Y-76217924D01*
X62584312Y-76217925D01*
X62584310Y-76217927D01*
X62536610Y-76283579D01*
X62473240Y-76370800D01*
X62387454Y-76539163D01*
X62329059Y-76718881D01*
X62299500Y-76905513D01*
X62299500Y-77094486D01*
X62329059Y-77281118D01*
X62387454Y-77460836D01*
X62472788Y-77628312D01*
X62473240Y-77629199D01*
X62584310Y-77782073D01*
X62717927Y-77915690D01*
X62870801Y-78026760D01*
X62950347Y-78067290D01*
X63039163Y-78112545D01*
X63039165Y-78112545D01*
X63039168Y-78112547D01*
X63135497Y-78143846D01*
X63218881Y-78170940D01*
X63405514Y-78200500D01*
X63539368Y-78200500D01*
X63606407Y-78220185D01*
X63652162Y-78272989D01*
X63662106Y-78342147D01*
X63633081Y-78405703D01*
X63627049Y-78412181D01*
X62715596Y-79323633D01*
X62715592Y-79323638D01*
X62646411Y-79443463D01*
X62646412Y-79443463D01*
X62646412Y-79443465D01*
X62610599Y-79577118D01*
X62610599Y-79725472D01*
X62610600Y-79725485D01*
X62610600Y-105814868D01*
X62590915Y-105881907D01*
X62574281Y-105902549D01*
X53296210Y-115180619D01*
X53234887Y-115214104D01*
X53165195Y-115209120D01*
X53109262Y-115167248D01*
X53084845Y-115101784D01*
X53086055Y-115073549D01*
X53100500Y-114982352D01*
X53100500Y-114777648D01*
X53076988Y-114629199D01*
X53068477Y-114575465D01*
X53031167Y-114460637D01*
X53005220Y-114380781D01*
X53005218Y-114380778D01*
X53005218Y-114380776D01*
X52971503Y-114314607D01*
X52912287Y-114198390D01*
X52904556Y-114187749D01*
X52791971Y-114032786D01*
X52647213Y-113888028D01*
X52481613Y-113767715D01*
X52481612Y-113767714D01*
X52481610Y-113767713D01*
X52386000Y-113718997D01*
X52299223Y-113674781D01*
X52104534Y-113611522D01*
X51929995Y-113583878D01*
X51902352Y-113579500D01*
X51697648Y-113579500D01*
X51673329Y-113583351D01*
X51495465Y-113611522D01*
X51300776Y-113674781D01*
X51118386Y-113767715D01*
X50952786Y-113888028D01*
X50904249Y-113936565D01*
X50842926Y-113970049D01*
X50773234Y-113965064D01*
X50717301Y-113923192D01*
X50694096Y-113868281D01*
X50670451Y-113718997D01*
X50612085Y-113539362D01*
X50526329Y-113371059D01*
X50478127Y-113304714D01*
X50478126Y-113304713D01*
X49886370Y-113896470D01*
X49872741Y-113845606D01*
X49820080Y-113754394D01*
X49745606Y-113679920D01*
X49654394Y-113627259D01*
X49603528Y-113613629D01*
X50195284Y-113021872D01*
X50128933Y-112973666D01*
X49960637Y-112887914D01*
X49781002Y-112829548D01*
X49594447Y-112800000D01*
X49405553Y-112800000D01*
X49218997Y-112829548D01*
X49039362Y-112887914D01*
X48871064Y-112973667D01*
X48871062Y-112973668D01*
X48804714Y-113021871D01*
X48804714Y-113021872D01*
X49396471Y-113613629D01*
X49345606Y-113627259D01*
X49254394Y-113679920D01*
X49179920Y-113754394D01*
X49127259Y-113845606D01*
X49113629Y-113896471D01*
X48521872Y-113304714D01*
X48521871Y-113304714D01*
X48473668Y-113371062D01*
X48473667Y-113371064D01*
X48387914Y-113539362D01*
X48329548Y-113718997D01*
X48300000Y-113905552D01*
X48300000Y-114094447D01*
X48329548Y-114281002D01*
X48387914Y-114460637D01*
X48473666Y-114628933D01*
X48521872Y-114695284D01*
X49113629Y-114103528D01*
X49127259Y-114154394D01*
X49179920Y-114245606D01*
X49254394Y-114320080D01*
X49345606Y-114372741D01*
X49396471Y-114386370D01*
X48804713Y-114978126D01*
X48804714Y-114978127D01*
X48871059Y-115026329D01*
X49039362Y-115112085D01*
X49218997Y-115170451D01*
X49405553Y-115200000D01*
X49594447Y-115200000D01*
X49781002Y-115170451D01*
X49960637Y-115112085D01*
X50128937Y-115026331D01*
X50195284Y-114978126D01*
X50195285Y-114978126D01*
X49603529Y-114386370D01*
X49654394Y-114372741D01*
X49745606Y-114320080D01*
X49820080Y-114245606D01*
X49872741Y-114154394D01*
X49886370Y-114103529D01*
X50463528Y-114680687D01*
X50497013Y-114742010D01*
X50499103Y-114772776D01*
X50499500Y-114772776D01*
X50499500Y-114982351D01*
X50531522Y-115184534D01*
X50594781Y-115379223D01*
X50687715Y-115561613D01*
X50808028Y-115727213D01*
X50952786Y-115871971D01*
X51092899Y-115973767D01*
X51118390Y-115992287D01*
X51209840Y-116038883D01*
X51211080Y-116039515D01*
X51261876Y-116087490D01*
X51278671Y-116155311D01*
X51256134Y-116221446D01*
X51211080Y-116260485D01*
X51118386Y-116307715D01*
X50952786Y-116428028D01*
X50808028Y-116572786D01*
X50687715Y-116738386D01*
X50594781Y-116920776D01*
X50531522Y-117115465D01*
X50499500Y-117317648D01*
X50499500Y-117522351D01*
X50531522Y-117724534D01*
X50594781Y-117919223D01*
X50658691Y-118044653D01*
X50667867Y-118062661D01*
X50687715Y-118101613D01*
X50808028Y-118267213D01*
X50952786Y-118411971D01*
X51092899Y-118513767D01*
X51118390Y-118532287D01*
X51209840Y-118578883D01*
X51211080Y-118579515D01*
X51261876Y-118627490D01*
X51278671Y-118695311D01*
X51256134Y-118761446D01*
X51211080Y-118800485D01*
X51118386Y-118847715D01*
X50952786Y-118968028D01*
X50808028Y-119112786D01*
X50687715Y-119278386D01*
X50594781Y-119460776D01*
X50531522Y-119655465D01*
X50499500Y-119857648D01*
X50499500Y-120062351D01*
X50531522Y-120264534D01*
X50594781Y-120459223D01*
X50687715Y-120641613D01*
X50808028Y-120807213D01*
X50952786Y-120951971D01*
X51092899Y-121053767D01*
X51118390Y-121072287D01*
X51209840Y-121118883D01*
X51211080Y-121119515D01*
X51261876Y-121167490D01*
X51278671Y-121235311D01*
X51256134Y-121301446D01*
X51211080Y-121340485D01*
X51118386Y-121387715D01*
X50952786Y-121508028D01*
X50808028Y-121652786D01*
X50687715Y-121818386D01*
X50594781Y-122000776D01*
X50531522Y-122195465D01*
X50499500Y-122397648D01*
X50499500Y-122602351D01*
X50513943Y-122693541D01*
X50504988Y-122762835D01*
X50459992Y-122816287D01*
X50393241Y-122836926D01*
X50325927Y-122818201D01*
X50303789Y-122800620D01*
X45061819Y-117558650D01*
X45028334Y-117497327D01*
X45025500Y-117470969D01*
X45025500Y-115155584D01*
X45045185Y-115088545D01*
X45093205Y-115045099D01*
X45129199Y-115026760D01*
X45282073Y-114915690D01*
X45415690Y-114782073D01*
X45526760Y-114629199D01*
X45612547Y-114460832D01*
X45670940Y-114281118D01*
X45670958Y-114281002D01*
X45700500Y-114094486D01*
X45700500Y-113905513D01*
X45670940Y-113718881D01*
X45612545Y-113539163D01*
X45526894Y-113371064D01*
X45526760Y-113370801D01*
X45415690Y-113217927D01*
X45282073Y-113084310D01*
X45129199Y-112973240D01*
X44960836Y-112887454D01*
X44781118Y-112829059D01*
X44594486Y-112799500D01*
X44594481Y-112799500D01*
X44405519Y-112799500D01*
X44405514Y-112799500D01*
X44218881Y-112829059D01*
X44039163Y-112887454D01*
X43870800Y-112973240D01*
X43803866Y-113021871D01*
X43717927Y-113084310D01*
X43717925Y-113084312D01*
X43717924Y-113084312D01*
X43584312Y-113217924D01*
X43584312Y-113217925D01*
X43584310Y-113217927D01*
X43536610Y-113283579D01*
X43473240Y-113370800D01*
X43387454Y-113539163D01*
X43329059Y-113718881D01*
X43299500Y-113905513D01*
X43299500Y-114094486D01*
X43329059Y-114281118D01*
X43387454Y-114460836D01*
X43473104Y-114628933D01*
X43473240Y-114629199D01*
X43584310Y-114782073D01*
X43717927Y-114915690D01*
X43870801Y-115026760D01*
X43906794Y-115045099D01*
X43957590Y-115093072D01*
X43974500Y-115155584D01*
X43974500Y-117663204D01*
X43974499Y-117663222D01*
X43974499Y-117670817D01*
X43974499Y-117809183D01*
X44001430Y-117909688D01*
X44001429Y-117909688D01*
X44010310Y-117942831D01*
X44010313Y-117942838D01*
X44079492Y-118062661D01*
X44079496Y-118062666D01*
X44184400Y-118167570D01*
X44184406Y-118167575D01*
X50531933Y-124515102D01*
X50565418Y-124576425D01*
X50562183Y-124641101D01*
X50531523Y-124735461D01*
X50531523Y-124735464D01*
X50499500Y-124937648D01*
X50499500Y-125142351D01*
X50531522Y-125344534D01*
X50594781Y-125539223D01*
X50687715Y-125721613D01*
X50808028Y-125887213D01*
X50952786Y-126031971D01*
X51118385Y-126152284D01*
X51118387Y-126152285D01*
X51118390Y-126152287D01*
X51211080Y-126199515D01*
X51211630Y-126199795D01*
X51262426Y-126247770D01*
X51279221Y-126315591D01*
X51256684Y-126381725D01*
X51211630Y-126420765D01*
X51118649Y-126468141D01*
X51033122Y-126530278D01*
X51033122Y-126530279D01*
X51614823Y-127111980D01*
X51607007Y-127114075D01*
X51492993Y-127179901D01*
X51399901Y-127272993D01*
X51334075Y-127387007D01*
X51331980Y-127394823D01*
X50750279Y-126813122D01*
X50750278Y-126813122D01*
X50688141Y-126898648D01*
X50595244Y-127080968D01*
X50532009Y-127275582D01*
X50500000Y-127477682D01*
X50500000Y-127682317D01*
X50532009Y-127884417D01*
X50595244Y-128079031D01*
X50688139Y-128261347D01*
X50750279Y-128346876D01*
X51331980Y-127765176D01*
X51334075Y-127772993D01*
X51399901Y-127887007D01*
X51492993Y-127980099D01*
X51607007Y-128045925D01*
X51614822Y-128048019D01*
X51033121Y-128629719D01*
X51033122Y-128629720D01*
X51118640Y-128691852D01*
X51118654Y-128691861D01*
X51211629Y-128739234D01*
X51262426Y-128787208D01*
X51279221Y-128855029D01*
X51256684Y-128921164D01*
X51211631Y-128960203D01*
X51118388Y-129007713D01*
X50952786Y-129128028D01*
X50808028Y-129272786D01*
X50687715Y-129438386D01*
X50594781Y-129620776D01*
X50531522Y-129815465D01*
X50499500Y-130017648D01*
X50499500Y-130222351D01*
X50531522Y-130424534D01*
X50594781Y-130619223D01*
X50687715Y-130801613D01*
X50808028Y-130967213D01*
X50952786Y-131111971D01*
X51107749Y-131224556D01*
X51118390Y-131232287D01*
X51234607Y-131291503D01*
X51300776Y-131325218D01*
X51300778Y-131325218D01*
X51300781Y-131325220D01*
X51405137Y-131359127D01*
X51495465Y-131388477D01*
X51571381Y-131400501D01*
X51697648Y-131420500D01*
X51697649Y-131420500D01*
X51902351Y-131420500D01*
X51902352Y-131420500D01*
X52104534Y-131388477D01*
X52299219Y-131325220D01*
X52481610Y-131232287D01*
X52616746Y-131134106D01*
X52647213Y-131111971D01*
X52647215Y-131111968D01*
X52647219Y-131111966D01*
X52791966Y-130967219D01*
X52791968Y-130967215D01*
X52791971Y-130967213D01*
X52844732Y-130894590D01*
X52912287Y-130801610D01*
X53005220Y-130619219D01*
X53068477Y-130424534D01*
X53100500Y-130222352D01*
X53100500Y-130017648D01*
X53068477Y-129815466D01*
X53066824Y-129810380D01*
X53005218Y-129620776D01*
X52967938Y-129547611D01*
X52912287Y-129438390D01*
X52890673Y-129408640D01*
X52791971Y-129272786D01*
X52647213Y-129128028D01*
X52481611Y-129007713D01*
X52388369Y-128960203D01*
X52337574Y-128912229D01*
X52320779Y-128844407D01*
X52343317Y-128778273D01*
X52388371Y-128739234D01*
X52481347Y-128691861D01*
X52566876Y-128629719D01*
X52566877Y-128629718D01*
X51985178Y-128048019D01*
X51992993Y-128045925D01*
X52107007Y-127980099D01*
X52200099Y-127887007D01*
X52265925Y-127772993D01*
X52268019Y-127765177D01*
X52849718Y-128346877D01*
X52849719Y-128346876D01*
X52911859Y-128261349D01*
X53004755Y-128079031D01*
X53067990Y-127884417D01*
X53100000Y-127682317D01*
X53100000Y-127477682D01*
X53067990Y-127275582D01*
X53004755Y-127080968D01*
X52911858Y-126898649D01*
X52911852Y-126898640D01*
X52849720Y-126813122D01*
X52849719Y-126813121D01*
X52268019Y-127394821D01*
X52265925Y-127387007D01*
X52200099Y-127272993D01*
X52107007Y-127179901D01*
X51992993Y-127114075D01*
X51985176Y-127111980D01*
X52566876Y-126530279D01*
X52481347Y-126468139D01*
X52388369Y-126420765D01*
X52337573Y-126372790D01*
X52320778Y-126304969D01*
X52343315Y-126238835D01*
X52388370Y-126199795D01*
X52388920Y-126199515D01*
X52481610Y-126152287D01*
X52531144Y-126116298D01*
X52647213Y-126031971D01*
X52647215Y-126031968D01*
X52647219Y-126031966D01*
X52791966Y-125887219D01*
X52791968Y-125887215D01*
X52791971Y-125887213D01*
X52844732Y-125814590D01*
X52912287Y-125721610D01*
X53005220Y-125539219D01*
X53068477Y-125344534D01*
X53100500Y-125142352D01*
X53100500Y-124937648D01*
X53068477Y-124735466D01*
X53068476Y-124735464D01*
X53005218Y-124540776D01*
X52971503Y-124474607D01*
X52912287Y-124358390D01*
X52881663Y-124316239D01*
X52791971Y-124192786D01*
X52647213Y-124048028D01*
X52481614Y-123927715D01*
X52414881Y-123893713D01*
X52388917Y-123880483D01*
X52338123Y-123832511D01*
X52321328Y-123764690D01*
X52343865Y-123698555D01*
X52388917Y-123659516D01*
X52481610Y-123612287D01*
X52502770Y-123596913D01*
X52647213Y-123491971D01*
X52647215Y-123491968D01*
X52647219Y-123491966D01*
X52791966Y-123347219D01*
X52791968Y-123347215D01*
X52791971Y-123347213D01*
X52844732Y-123274590D01*
X52912287Y-123181610D01*
X53005220Y-122999219D01*
X53068477Y-122804534D01*
X53100500Y-122602352D01*
X53100500Y-122397648D01*
X53068477Y-122195466D01*
X53005220Y-122000781D01*
X53005218Y-122000778D01*
X53005218Y-122000776D01*
X52971503Y-121934607D01*
X52912287Y-121818390D01*
X52904556Y-121807749D01*
X52791971Y-121652786D01*
X52647213Y-121508028D01*
X52481614Y-121387715D01*
X52475006Y-121384348D01*
X52388917Y-121340483D01*
X52338123Y-121292511D01*
X52321328Y-121224690D01*
X52343865Y-121158555D01*
X52388917Y-121119516D01*
X52481610Y-121072287D01*
X52507101Y-121053767D01*
X52647213Y-120951971D01*
X52647215Y-120951968D01*
X52647219Y-120951966D01*
X52791966Y-120807219D01*
X52791968Y-120807215D01*
X52791971Y-120807213D01*
X52844732Y-120734590D01*
X52912287Y-120641610D01*
X53005220Y-120459219D01*
X53068477Y-120264534D01*
X53100500Y-120062352D01*
X53100500Y-119857648D01*
X53068477Y-119655466D01*
X53005220Y-119460781D01*
X53005218Y-119460778D01*
X53005218Y-119460776D01*
X52936752Y-119326406D01*
X52912287Y-119278390D01*
X52876088Y-119228566D01*
X52791971Y-119112786D01*
X52647213Y-118968028D01*
X52481614Y-118847715D01*
X52445123Y-118829122D01*
X52388917Y-118800483D01*
X52338123Y-118752511D01*
X52321328Y-118684690D01*
X52343865Y-118618555D01*
X52388917Y-118579516D01*
X52481610Y-118532287D01*
X52507101Y-118513767D01*
X52647213Y-118411971D01*
X52647215Y-118411968D01*
X52647219Y-118411966D01*
X52791966Y-118267219D01*
X52791968Y-118267215D01*
X52791971Y-118267213D01*
X52864361Y-118167575D01*
X52912287Y-118101610D01*
X53005220Y-117919219D01*
X53068477Y-117724534D01*
X53100500Y-117522352D01*
X53100500Y-117317648D01*
X53068477Y-117115466D01*
X53037814Y-117021099D01*
X53035820Y-116951261D01*
X53068063Y-116895104D01*
X63448555Y-106514613D01*
X63448560Y-106514609D01*
X63458763Y-106504405D01*
X63458765Y-106504405D01*
X63556605Y-106406565D01*
X63625788Y-106286736D01*
X63661600Y-106153083D01*
X63661600Y-97905513D01*
X64299500Y-97905513D01*
X64299500Y-98094486D01*
X64329059Y-98281118D01*
X64387454Y-98460836D01*
X64472788Y-98628312D01*
X64473240Y-98629199D01*
X64584310Y-98782073D01*
X64717927Y-98915690D01*
X64870801Y-99026760D01*
X64950347Y-99067290D01*
X65039163Y-99112545D01*
X65039165Y-99112545D01*
X65039168Y-99112547D01*
X65135497Y-99143846D01*
X65218881Y-99170940D01*
X65405514Y-99200500D01*
X65405519Y-99200500D01*
X65594486Y-99200500D01*
X65781118Y-99170940D01*
X65960832Y-99112547D01*
X66129199Y-99026760D01*
X66282073Y-98915690D01*
X66415690Y-98782073D01*
X66526760Y-98629199D01*
X66612547Y-98460832D01*
X66670940Y-98281118D01*
X66700500Y-98094486D01*
X66700500Y-97905513D01*
X66670940Y-97718881D01*
X66612545Y-97539163D01*
X66526759Y-97370800D01*
X66415690Y-97217927D01*
X66282073Y-97084310D01*
X66129199Y-96973240D01*
X65960836Y-96887454D01*
X65781118Y-96829059D01*
X65594486Y-96799500D01*
X65594481Y-96799500D01*
X65405519Y-96799500D01*
X65405514Y-96799500D01*
X65218881Y-96829059D01*
X65039163Y-96887454D01*
X64870800Y-96973240D01*
X64783579Y-97036610D01*
X64717927Y-97084310D01*
X64717925Y-97084312D01*
X64717924Y-97084312D01*
X64584312Y-97217924D01*
X64584312Y-97217925D01*
X64584310Y-97217927D01*
X64536610Y-97283579D01*
X64473240Y-97370800D01*
X64387454Y-97539163D01*
X64329059Y-97718881D01*
X64299500Y-97905513D01*
X63661600Y-97905513D01*
X63661600Y-79915330D01*
X63681285Y-79848291D01*
X63697914Y-79827654D01*
X66503955Y-77021612D01*
X66503960Y-77021609D01*
X66514163Y-77011405D01*
X66514165Y-77011405D01*
X66612005Y-76913565D01*
X66681188Y-76793736D01*
X66717000Y-76660083D01*
X66717000Y-74177531D01*
X66736685Y-74110492D01*
X66753319Y-74089850D01*
X67525117Y-73318052D01*
X68316383Y-72526785D01*
X68377704Y-72493302D01*
X68442378Y-72496536D01*
X68587373Y-72543648D01*
X68648631Y-72563553D01*
X68881903Y-72600500D01*
X68881908Y-72600500D01*
X69118097Y-72600500D01*
X69351368Y-72563553D01*
X69575992Y-72490568D01*
X69786433Y-72383343D01*
X69977510Y-72244517D01*
X70144517Y-72077510D01*
X70283343Y-71886433D01*
X70390568Y-71675992D01*
X70457415Y-71470259D01*
X70458967Y-71467988D01*
X70459164Y-71465243D01*
X70478575Y-71439313D01*
X70496853Y-71412583D01*
X70499387Y-71411511D01*
X70501036Y-71409310D01*
X70531370Y-71397995D01*
X70561211Y-71385385D01*
X70563922Y-71385854D01*
X70566500Y-71384893D01*
X70598144Y-71391776D01*
X70630058Y-71397300D01*
X70632907Y-71399339D01*
X70634773Y-71399745D01*
X70663027Y-71420896D01*
X70753981Y-71511850D01*
X70787466Y-71573173D01*
X70790300Y-71599531D01*
X70790300Y-75763825D01*
X70770615Y-75830864D01*
X70717811Y-75876619D01*
X70648653Y-75886563D01*
X70585097Y-75857538D01*
X70567924Y-75839312D01*
X70537375Y-75799500D01*
X70469610Y-75711187D01*
X70469608Y-75711185D01*
X70469605Y-75711181D01*
X70288818Y-75530394D01*
X70288811Y-75530388D01*
X70085973Y-75374745D01*
X70085971Y-75374743D01*
X70085965Y-75374739D01*
X70085960Y-75374736D01*
X70085957Y-75374734D01*
X69864542Y-75246899D01*
X69864531Y-75246894D01*
X69628322Y-75149053D01*
X69628315Y-75149051D01*
X69628313Y-75149050D01*
X69381340Y-75082874D01*
X69325007Y-75075457D01*
X69127850Y-75049500D01*
X69127843Y-75049500D01*
X68872157Y-75049500D01*
X68872149Y-75049500D01*
X68646826Y-75079165D01*
X68618660Y-75082874D01*
X68371687Y-75149050D01*
X68371677Y-75149053D01*
X68135468Y-75246894D01*
X68135457Y-75246899D01*
X67914042Y-75374734D01*
X67914026Y-75374745D01*
X67711188Y-75530388D01*
X67711181Y-75530394D01*
X67530394Y-75711181D01*
X67530388Y-75711188D01*
X67374745Y-75914026D01*
X67374734Y-75914042D01*
X67246899Y-76135457D01*
X67246894Y-76135468D01*
X67149053Y-76371677D01*
X67149050Y-76371687D01*
X67082874Y-76618661D01*
X67049500Y-76872149D01*
X67049500Y-77127850D01*
X67069679Y-77281118D01*
X67082874Y-77381340D01*
X67090620Y-77410248D01*
X67149050Y-77628312D01*
X67149053Y-77628322D01*
X67246894Y-77864531D01*
X67246899Y-77864542D01*
X67374734Y-78085957D01*
X67374745Y-78085973D01*
X67530388Y-78288811D01*
X67530394Y-78288818D01*
X67711181Y-78469605D01*
X67711187Y-78469610D01*
X67914035Y-78625261D01*
X67914042Y-78625265D01*
X68135457Y-78753100D01*
X68135462Y-78753102D01*
X68135465Y-78753104D01*
X68371687Y-78850950D01*
X68618660Y-78917126D01*
X68872157Y-78950500D01*
X68872164Y-78950500D01*
X69127836Y-78950500D01*
X69127843Y-78950500D01*
X69381340Y-78917126D01*
X69628313Y-78850950D01*
X69864535Y-78753104D01*
X70085965Y-78625261D01*
X70288813Y-78469610D01*
X70469610Y-78288813D01*
X70567924Y-78160688D01*
X70624352Y-78119485D01*
X70694098Y-78115330D01*
X70755018Y-78149542D01*
X70787771Y-78211259D01*
X70790300Y-78236174D01*
X70790300Y-104447868D01*
X70770615Y-104514907D01*
X70753981Y-104535549D01*
X66546896Y-108742633D01*
X66546892Y-108742638D01*
X66477711Y-108862463D01*
X66477712Y-108862463D01*
X66477712Y-108862465D01*
X66441899Y-108996118D01*
X66441899Y-109144472D01*
X66441900Y-109144485D01*
X66441900Y-123738213D01*
X66441899Y-123738217D01*
X66441899Y-123876583D01*
X66455600Y-123927713D01*
X66458556Y-123938748D01*
X66458557Y-123938749D01*
X66477712Y-124010237D01*
X66477713Y-124010238D01*
X66546892Y-124130061D01*
X66546896Y-124130066D01*
X66651800Y-124234970D01*
X66651806Y-124234975D01*
X66931933Y-124515103D01*
X66965418Y-124576426D01*
X66962183Y-124641102D01*
X66931523Y-124735464D01*
X66899500Y-124937648D01*
X66899500Y-125142351D01*
X66931522Y-125344534D01*
X66994781Y-125539223D01*
X67087715Y-125721613D01*
X67208028Y-125887213D01*
X67352786Y-126031971D01*
X67507749Y-126144556D01*
X67518390Y-126152287D01*
X67609840Y-126198883D01*
X67611080Y-126199515D01*
X67661876Y-126247490D01*
X67678671Y-126315311D01*
X67656134Y-126381446D01*
X67611080Y-126420485D01*
X67518386Y-126467715D01*
X67352786Y-126588028D01*
X67208028Y-126732786D01*
X67087715Y-126898386D01*
X66994781Y-127080776D01*
X66931522Y-127275465D01*
X66899500Y-127477648D01*
X66899500Y-127682351D01*
X66931522Y-127884534D01*
X66994781Y-128079223D01*
X67087715Y-128261613D01*
X67208028Y-128427213D01*
X67352786Y-128571971D01*
X67507749Y-128684556D01*
X67518390Y-128692287D01*
X67609840Y-128738883D01*
X67611080Y-128739515D01*
X67661876Y-128787490D01*
X67678671Y-128855311D01*
X67656134Y-128921446D01*
X67611080Y-128960485D01*
X67518386Y-129007715D01*
X67352786Y-129128028D01*
X67208028Y-129272786D01*
X67087715Y-129438386D01*
X66994781Y-129620776D01*
X66931522Y-129815465D01*
X66899500Y-130017648D01*
X66899500Y-130222351D01*
X66931522Y-130424534D01*
X66994781Y-130619223D01*
X67087715Y-130801613D01*
X67208028Y-130967213D01*
X67352786Y-131111971D01*
X67507749Y-131224556D01*
X67518390Y-131232287D01*
X67634607Y-131291503D01*
X67700776Y-131325218D01*
X67700778Y-131325218D01*
X67700781Y-131325220D01*
X67805137Y-131359127D01*
X67895465Y-131388477D01*
X67971381Y-131400501D01*
X68097648Y-131420500D01*
X68097649Y-131420500D01*
X68302351Y-131420500D01*
X68302352Y-131420500D01*
X68504534Y-131388477D01*
X68699219Y-131325220D01*
X68881610Y-131232287D01*
X69016746Y-131134106D01*
X69047213Y-131111971D01*
X69047215Y-131111968D01*
X69047219Y-131111966D01*
X69191966Y-130967219D01*
X69191968Y-130967215D01*
X69191971Y-130967213D01*
X69244732Y-130894590D01*
X69312287Y-130801610D01*
X69405220Y-130619219D01*
X69468477Y-130424534D01*
X69500500Y-130222352D01*
X69500500Y-130017648D01*
X69468477Y-129815466D01*
X69466824Y-129810380D01*
X69405218Y-129620776D01*
X69367938Y-129547611D01*
X69312287Y-129438390D01*
X69290673Y-129408640D01*
X69191971Y-129272786D01*
X69047213Y-129128028D01*
X68881614Y-129007715D01*
X68875006Y-129004348D01*
X68788917Y-128960483D01*
X68738123Y-128912511D01*
X68721328Y-128844690D01*
X68743865Y-128778555D01*
X68788917Y-128739516D01*
X68881610Y-128692287D01*
X68902770Y-128676913D01*
X69047213Y-128571971D01*
X69047215Y-128571968D01*
X69047219Y-128571966D01*
X69191966Y-128427219D01*
X69191968Y-128427215D01*
X69191971Y-128427213D01*
X69301908Y-128275895D01*
X69312287Y-128261610D01*
X69405220Y-128079219D01*
X69468477Y-127884534D01*
X69500500Y-127682352D01*
X69500500Y-127477648D01*
X69471913Y-127297157D01*
X69468477Y-127275465D01*
X69416038Y-127114075D01*
X69405220Y-127080781D01*
X69405218Y-127080778D01*
X69405218Y-127080776D01*
X69371503Y-127014607D01*
X69312287Y-126898390D01*
X69250337Y-126813122D01*
X69191971Y-126732786D01*
X69047213Y-126588028D01*
X68881614Y-126467715D01*
X68875006Y-126464348D01*
X68788917Y-126420483D01*
X68738123Y-126372511D01*
X68721328Y-126304690D01*
X68743865Y-126238555D01*
X68788917Y-126199516D01*
X68881610Y-126152287D01*
X68902770Y-126136913D01*
X69047213Y-126031971D01*
X69047215Y-126031968D01*
X69047219Y-126031966D01*
X69191966Y-125887219D01*
X69191968Y-125887215D01*
X69191971Y-125887213D01*
X69244732Y-125814590D01*
X69312287Y-125721610D01*
X69405220Y-125539219D01*
X69468477Y-125344534D01*
X69500500Y-125142352D01*
X69500500Y-124937648D01*
X69468477Y-124735466D01*
X69468476Y-124735464D01*
X69405218Y-124540776D01*
X69371503Y-124474607D01*
X69312287Y-124358390D01*
X69281663Y-124316239D01*
X69191971Y-124192786D01*
X69047213Y-124048028D01*
X68970118Y-123992017D01*
X68970115Y-123992015D01*
X68881610Y-123927713D01*
X68814882Y-123893713D01*
X77149500Y-123893713D01*
X77149500Y-124106287D01*
X77153266Y-124130065D01*
X77169881Y-124234970D01*
X77182754Y-124316243D01*
X77196448Y-124358390D01*
X77248444Y-124518414D01*
X77344951Y-124707820D01*
X77469890Y-124879786D01*
X77620213Y-125030109D01*
X77792179Y-125155048D01*
X77792181Y-125155049D01*
X77792184Y-125155051D01*
X77981588Y-125251557D01*
X78183757Y-125317246D01*
X78393713Y-125350500D01*
X78393714Y-125350500D01*
X78606286Y-125350500D01*
X78606287Y-125350500D01*
X78816243Y-125317246D01*
X79018412Y-125251557D01*
X79207816Y-125155051D01*
X79229789Y-125139086D01*
X79379786Y-125030109D01*
X79379788Y-125030106D01*
X79379792Y-125030104D01*
X79530104Y-124879792D01*
X79530106Y-124879788D01*
X79530109Y-124879786D01*
X79655048Y-124707820D01*
X79655047Y-124707820D01*
X79655051Y-124707816D01*
X79751557Y-124518412D01*
X79817246Y-124316243D01*
X79850500Y-124106287D01*
X79850500Y-123893713D01*
X79817246Y-123683757D01*
X79751557Y-123481588D01*
X79655051Y-123292184D01*
X79655049Y-123292181D01*
X79655048Y-123292179D01*
X79530109Y-123120213D01*
X79379786Y-122969890D01*
X79207820Y-122844951D01*
X79018414Y-122748444D01*
X79018413Y-122748443D01*
X79018412Y-122748443D01*
X78816243Y-122682754D01*
X78816241Y-122682753D01*
X78816240Y-122682753D01*
X78654957Y-122657208D01*
X78606287Y-122649500D01*
X78393713Y-122649500D01*
X78345042Y-122657208D01*
X78183760Y-122682753D01*
X77981585Y-122748444D01*
X77792179Y-122844951D01*
X77620213Y-122969890D01*
X77469890Y-123120213D01*
X77344951Y-123292179D01*
X77248444Y-123481585D01*
X77182753Y-123683760D01*
X77158834Y-123834780D01*
X77149500Y-123893713D01*
X68814882Y-123893713D01*
X68784568Y-123878267D01*
X68780406Y-123875716D01*
X68760121Y-123853287D01*
X68738123Y-123832511D01*
X68736913Y-123827625D01*
X68733540Y-123823896D01*
X68728600Y-123794057D01*
X68721328Y-123764690D01*
X68722950Y-123759928D01*
X68722129Y-123754965D01*
X68734107Y-123727189D01*
X68743865Y-123698555D01*
X68748001Y-123694970D01*
X68749797Y-123690807D01*
X68763280Y-123681730D01*
X68788917Y-123659516D01*
X68881610Y-123612287D01*
X68902770Y-123596913D01*
X69047213Y-123491971D01*
X69047215Y-123491968D01*
X69047219Y-123491966D01*
X69191966Y-123347219D01*
X69191968Y-123347215D01*
X69191971Y-123347213D01*
X69244732Y-123274590D01*
X69312287Y-123181610D01*
X69405220Y-122999219D01*
X69468477Y-122804534D01*
X69500500Y-122602352D01*
X69500500Y-122397648D01*
X69468477Y-122195466D01*
X69437814Y-122101099D01*
X69435820Y-122031261D01*
X69468063Y-121975104D01*
X72106555Y-119336613D01*
X72106560Y-119336609D01*
X72116763Y-119326405D01*
X72116765Y-119326405D01*
X72214605Y-119228565D01*
X72283788Y-119108736D01*
X72296981Y-119059500D01*
X72319601Y-118975083D01*
X72319601Y-118836717D01*
X72319601Y-118829122D01*
X72319600Y-118829104D01*
X72319600Y-76905513D01*
X73299500Y-76905513D01*
X73299500Y-77094486D01*
X73329059Y-77281118D01*
X73387454Y-77460836D01*
X73472788Y-77628312D01*
X73473240Y-77629199D01*
X73584310Y-77782073D01*
X73717927Y-77915690D01*
X73870801Y-78026760D01*
X73950347Y-78067290D01*
X74039163Y-78112545D01*
X74039165Y-78112545D01*
X74039168Y-78112547D01*
X74135497Y-78143846D01*
X74218881Y-78170940D01*
X74405514Y-78200500D01*
X74405519Y-78200500D01*
X74594486Y-78200500D01*
X74781118Y-78170940D01*
X74812670Y-78160688D01*
X74960832Y-78112547D01*
X75129199Y-78026760D01*
X75282073Y-77915690D01*
X75415690Y-77782073D01*
X75526760Y-77629199D01*
X75612547Y-77460832D01*
X75670940Y-77281118D01*
X75700500Y-77094486D01*
X75700500Y-76905513D01*
X75670940Y-76718881D01*
X75612545Y-76539163D01*
X75526759Y-76370800D01*
X75415690Y-76217927D01*
X75282073Y-76084310D01*
X75129199Y-75973240D01*
X74960836Y-75887454D01*
X74781118Y-75829059D01*
X74594486Y-75799500D01*
X74594481Y-75799500D01*
X74405519Y-75799500D01*
X74405514Y-75799500D01*
X74218881Y-75829059D01*
X74039163Y-75887454D01*
X73870800Y-75973240D01*
X73783579Y-76036610D01*
X73717927Y-76084310D01*
X73717925Y-76084312D01*
X73717924Y-76084312D01*
X73584312Y-76217924D01*
X73584312Y-76217925D01*
X73584310Y-76217927D01*
X73536610Y-76283579D01*
X73473240Y-76370800D01*
X73387454Y-76539163D01*
X73329059Y-76718881D01*
X73299500Y-76905513D01*
X72319600Y-76905513D01*
X72319600Y-73665266D01*
X72339285Y-73598227D01*
X72392089Y-73552472D01*
X72461247Y-73542528D01*
X72524803Y-73571553D01*
X72561531Y-73626948D01*
X72609897Y-73775802D01*
X72717087Y-73986174D01*
X72807095Y-74110060D01*
X72807096Y-74110061D01*
X73457242Y-73459915D01*
X73519881Y-73568408D01*
X73631592Y-73680119D01*
X73740083Y-73742757D01*
X73089937Y-74392902D01*
X73089938Y-74392904D01*
X73213825Y-74482912D01*
X73424197Y-74590102D01*
X73648752Y-74663065D01*
X73648751Y-74663065D01*
X73881948Y-74700000D01*
X74118052Y-74700000D01*
X74351247Y-74663065D01*
X74575802Y-74590102D01*
X74786171Y-74482914D01*
X74910060Y-74392902D01*
X74910061Y-74392902D01*
X74259915Y-73742757D01*
X74368408Y-73680119D01*
X74480119Y-73568408D01*
X74542757Y-73459916D01*
X75192902Y-74110061D01*
X75192902Y-74110060D01*
X75282914Y-73986171D01*
X75390102Y-73775802D01*
X75463065Y-73551247D01*
X75500000Y-73318052D01*
X75500000Y-73081947D01*
X75463065Y-72848752D01*
X75390102Y-72624197D01*
X75282912Y-72413825D01*
X75192904Y-72289938D01*
X75192902Y-72289937D01*
X74542757Y-72940083D01*
X74480119Y-72831592D01*
X74368408Y-72719881D01*
X74259915Y-72657242D01*
X74910061Y-72007096D01*
X74910060Y-72007095D01*
X74786174Y-71917087D01*
X74575802Y-71809897D01*
X74351247Y-71736934D01*
X74351248Y-71736934D01*
X74118052Y-71700000D01*
X73881948Y-71700000D01*
X73648752Y-71736934D01*
X73424197Y-71809897D01*
X73213832Y-71917083D01*
X73089938Y-72007096D01*
X73740084Y-72657242D01*
X73631592Y-72719881D01*
X73519881Y-72831592D01*
X73457242Y-72940084D01*
X72807096Y-72289938D01*
X72717083Y-72413832D01*
X72609897Y-72624195D01*
X72561531Y-72773052D01*
X72522093Y-72830727D01*
X72457734Y-72857925D01*
X72388888Y-72846010D01*
X72337412Y-72798766D01*
X72319600Y-72734733D01*
X72319600Y-59905513D01*
X73299500Y-59905513D01*
X73299500Y-60094486D01*
X73329059Y-60281118D01*
X73387454Y-60460836D01*
X73472788Y-60628312D01*
X73473240Y-60629199D01*
X73584310Y-60782073D01*
X73717927Y-60915690D01*
X73870801Y-61026760D01*
X73950347Y-61067290D01*
X74039163Y-61112545D01*
X74039165Y-61112545D01*
X74039168Y-61112547D01*
X74135497Y-61143846D01*
X74218881Y-61170940D01*
X74405514Y-61200500D01*
X74405519Y-61200500D01*
X74594486Y-61200500D01*
X74781118Y-61170940D01*
X74960832Y-61112547D01*
X75129199Y-61026760D01*
X75282073Y-60915690D01*
X75415690Y-60782073D01*
X75526760Y-60629199D01*
X75612547Y-60460832D01*
X75670940Y-60281118D01*
X75700500Y-60094486D01*
X75700500Y-59905513D01*
X75670940Y-59718881D01*
X75638376Y-59618660D01*
X75612547Y-59539168D01*
X75612545Y-59539165D01*
X75612545Y-59539163D01*
X75526759Y-59370800D01*
X75415690Y-59217927D01*
X75282073Y-59084310D01*
X75129199Y-58973240D01*
X74960836Y-58887454D01*
X74781118Y-58829059D01*
X74594486Y-58799500D01*
X74594481Y-58799500D01*
X74405519Y-58799500D01*
X74405514Y-58799500D01*
X74218881Y-58829059D01*
X74039163Y-58887454D01*
X73870800Y-58973240D01*
X73783579Y-59036610D01*
X73717927Y-59084310D01*
X73717925Y-59084312D01*
X73717924Y-59084312D01*
X73584312Y-59217924D01*
X73584312Y-59217925D01*
X73584310Y-59217927D01*
X73536610Y-59283579D01*
X73473240Y-59370800D01*
X73387454Y-59539163D01*
X73329059Y-59718881D01*
X73299500Y-59905513D01*
X72319600Y-59905513D01*
X72319600Y-56665266D01*
X72339285Y-56598227D01*
X72392089Y-56552472D01*
X72461247Y-56542528D01*
X72524803Y-56571553D01*
X72561531Y-56626948D01*
X72609897Y-56775802D01*
X72717087Y-56986174D01*
X72807095Y-57110060D01*
X72807096Y-57110061D01*
X73457242Y-56459915D01*
X73519881Y-56568408D01*
X73631592Y-56680119D01*
X73740083Y-56742757D01*
X73089937Y-57392902D01*
X73089938Y-57392904D01*
X73213825Y-57482912D01*
X73424197Y-57590102D01*
X73648752Y-57663065D01*
X73648751Y-57663065D01*
X73881948Y-57700000D01*
X74118052Y-57700000D01*
X74351247Y-57663065D01*
X74575802Y-57590102D01*
X74786171Y-57482914D01*
X74910060Y-57392902D01*
X74910061Y-57392902D01*
X74259915Y-56742757D01*
X74368408Y-56680119D01*
X74480119Y-56568408D01*
X74542757Y-56459916D01*
X75192902Y-57110061D01*
X75192902Y-57110060D01*
X75282914Y-56986171D01*
X75390102Y-56775802D01*
X75463065Y-56551247D01*
X75500000Y-56318052D01*
X75500000Y-56081947D01*
X75463065Y-55848752D01*
X75390102Y-55624197D01*
X75282912Y-55413825D01*
X75192904Y-55289938D01*
X75192902Y-55289937D01*
X74542757Y-55940083D01*
X74480119Y-55831592D01*
X74368408Y-55719881D01*
X74259915Y-55657242D01*
X74910061Y-55007096D01*
X74910060Y-55007095D01*
X74786174Y-54917087D01*
X74575802Y-54809897D01*
X74351247Y-54736934D01*
X74351248Y-54736934D01*
X74118052Y-54700000D01*
X73881948Y-54700000D01*
X73648752Y-54736934D01*
X73424197Y-54809897D01*
X73213832Y-54917083D01*
X73089938Y-55007096D01*
X73740084Y-55657242D01*
X73631592Y-55719881D01*
X73519881Y-55831592D01*
X73457242Y-55940084D01*
X72807096Y-55289938D01*
X72717083Y-55413832D01*
X72609897Y-55624195D01*
X72561531Y-55773052D01*
X72522093Y-55830727D01*
X72457734Y-55857925D01*
X72388888Y-55846010D01*
X72337412Y-55798766D01*
X72319600Y-55734733D01*
X72319600Y-51973186D01*
X72319601Y-51973173D01*
X72319601Y-51824819D01*
X72319601Y-51824817D01*
X72283789Y-51691165D01*
X72214605Y-51571335D01*
X71945329Y-51302059D01*
X71911844Y-51240736D01*
X71916828Y-51171044D01*
X71958700Y-51115111D01*
X71976715Y-51103893D01*
X72128937Y-51026331D01*
X72195284Y-50978126D01*
X72195285Y-50978126D01*
X71603528Y-50386370D01*
X71654394Y-50372741D01*
X71745606Y-50320080D01*
X71820080Y-50245606D01*
X71872741Y-50154394D01*
X71886370Y-50103529D01*
X72478126Y-50695285D01*
X72478126Y-50695284D01*
X72526331Y-50628937D01*
X72612085Y-50460637D01*
X72670451Y-50281002D01*
X72700000Y-50094447D01*
X72700000Y-49905552D01*
X72670451Y-49718997D01*
X72612085Y-49539362D01*
X72526329Y-49371059D01*
X72478127Y-49304714D01*
X72478126Y-49304713D01*
X71886370Y-49896470D01*
X71872741Y-49845606D01*
X71820080Y-49754394D01*
X71745606Y-49679920D01*
X71654394Y-49627259D01*
X71603528Y-49613629D01*
X72195284Y-49021872D01*
X72128933Y-48973666D01*
X71960637Y-48887914D01*
X71781002Y-48829548D01*
X71594447Y-48800000D01*
X71405553Y-48800000D01*
X71218997Y-48829548D01*
X71039362Y-48887914D01*
X70871064Y-48973667D01*
X70871062Y-48973668D01*
X70804714Y-49021871D01*
X70804714Y-49021872D01*
X71396471Y-49613629D01*
X71345606Y-49627259D01*
X71254394Y-49679920D01*
X71179920Y-49754394D01*
X71127259Y-49845606D01*
X71113629Y-49896471D01*
X70521872Y-49304714D01*
X70521871Y-49304714D01*
X70473668Y-49371062D01*
X70473664Y-49371069D01*
X70396105Y-49523285D01*
X70348131Y-49574080D01*
X70280309Y-49590875D01*
X70214175Y-49568337D01*
X70197940Y-49554670D01*
X69561919Y-48918649D01*
X69528434Y-48857326D01*
X69525600Y-48830968D01*
X69525600Y-47660917D01*
X69519772Y-47639168D01*
X69489788Y-47527265D01*
X69489788Y-47527264D01*
X69420605Y-47407435D01*
X69322765Y-47309595D01*
X69322764Y-47309594D01*
X69318434Y-47305264D01*
X69318423Y-47305254D01*
X65418682Y-43405513D01*
X71799500Y-43405513D01*
X71799500Y-43594486D01*
X71829059Y-43781118D01*
X71887454Y-43960836D01*
X71973240Y-44129199D01*
X72084310Y-44282073D01*
X72217927Y-44415690D01*
X72370801Y-44526760D01*
X72450347Y-44567290D01*
X72539163Y-44612545D01*
X72539165Y-44612545D01*
X72539168Y-44612547D01*
X72635497Y-44643846D01*
X72718881Y-44670940D01*
X72905514Y-44700500D01*
X72905519Y-44700500D01*
X73094486Y-44700500D01*
X73281118Y-44670940D01*
X73460832Y-44612547D01*
X73629199Y-44526760D01*
X73782073Y-44415690D01*
X73915690Y-44282073D01*
X74026760Y-44129199D01*
X74112547Y-43960832D01*
X74170940Y-43781118D01*
X74189673Y-43662841D01*
X74200500Y-43594486D01*
X74200500Y-43405513D01*
X74170940Y-43218881D01*
X74139069Y-43120793D01*
X74112547Y-43039168D01*
X74112545Y-43039165D01*
X74112545Y-43039163D01*
X74035508Y-42887970D01*
X74026760Y-42870801D01*
X73915690Y-42717927D01*
X73782073Y-42584310D01*
X73629199Y-42473240D01*
X73460836Y-42387454D01*
X73281118Y-42329059D01*
X73094486Y-42299500D01*
X73094481Y-42299500D01*
X72905519Y-42299500D01*
X72905514Y-42299500D01*
X72718881Y-42329059D01*
X72539163Y-42387454D01*
X72370800Y-42473240D01*
X72283579Y-42536610D01*
X72217927Y-42584310D01*
X72217925Y-42584312D01*
X72217924Y-42584312D01*
X72084312Y-42717924D01*
X72084312Y-42717925D01*
X72084310Y-42717927D01*
X72069112Y-42738845D01*
X71973240Y-42870800D01*
X71887454Y-43039163D01*
X71829059Y-43218881D01*
X71799500Y-43405513D01*
X65418682Y-43405513D01*
X63509379Y-41496210D01*
X63475894Y-41434887D01*
X63480878Y-41365195D01*
X63522750Y-41309262D01*
X63588214Y-41284845D01*
X63616451Y-41286055D01*
X63707648Y-41300500D01*
X63707650Y-41300500D01*
X63912351Y-41300500D01*
X63912352Y-41300500D01*
X64114534Y-41268477D01*
X64309219Y-41205220D01*
X64491610Y-41112287D01*
X64584590Y-41044732D01*
X64657213Y-40991971D01*
X64657215Y-40991968D01*
X64657219Y-40991966D01*
X64801966Y-40847219D01*
X64801968Y-40847215D01*
X64801971Y-40847213D01*
X64922286Y-40681611D01*
X64922420Y-40681349D01*
X64969795Y-40588369D01*
X65017769Y-40537573D01*
X65085590Y-40520778D01*
X65151725Y-40543315D01*
X65190765Y-40588369D01*
X65238139Y-40681347D01*
X65300279Y-40766876D01*
X65881980Y-40185176D01*
X65884075Y-40192993D01*
X65949901Y-40307007D01*
X66042993Y-40400099D01*
X66157007Y-40465925D01*
X66164822Y-40468019D01*
X65583121Y-41049719D01*
X65583122Y-41049720D01*
X65668640Y-41111852D01*
X65668649Y-41111858D01*
X65850968Y-41204755D01*
X66045582Y-41267990D01*
X66247683Y-41300000D01*
X66452317Y-41300000D01*
X66654417Y-41267990D01*
X66849031Y-41204755D01*
X67031349Y-41111859D01*
X67116876Y-41049719D01*
X67116877Y-41049718D01*
X66535178Y-40468019D01*
X66542993Y-40465925D01*
X66657007Y-40400099D01*
X66750099Y-40307007D01*
X66815925Y-40192993D01*
X66818019Y-40185177D01*
X67399718Y-40766877D01*
X67399719Y-40766876D01*
X67461859Y-40681349D01*
X67554755Y-40499031D01*
X67617990Y-40304417D01*
X67650000Y-40102317D01*
X67650000Y-39897682D01*
X67617990Y-39695582D01*
X67554755Y-39500968D01*
X67461858Y-39318649D01*
X67461852Y-39318640D01*
X67399720Y-39233122D01*
X67399719Y-39233121D01*
X66818019Y-39814821D01*
X66815925Y-39807007D01*
X66750099Y-39692993D01*
X66657007Y-39599901D01*
X66542993Y-39534075D01*
X66535176Y-39531980D01*
X67116876Y-38950279D01*
X67031347Y-38888139D01*
X66849031Y-38795244D01*
X66654417Y-38732009D01*
X66452317Y-38700000D01*
X66247683Y-38700000D01*
X66045582Y-38732009D01*
X65850968Y-38795244D01*
X65668648Y-38888141D01*
X65583122Y-38950278D01*
X65583122Y-38950279D01*
X66164823Y-39531980D01*
X66157007Y-39534075D01*
X66042993Y-39599901D01*
X65949901Y-39692993D01*
X65884075Y-39807007D01*
X65881980Y-39814823D01*
X65300279Y-39233122D01*
X65300278Y-39233122D01*
X65238141Y-39318649D01*
X65190765Y-39411630D01*
X65142790Y-39462426D01*
X65074969Y-39479221D01*
X65008834Y-39456683D01*
X64969795Y-39411630D01*
X64922287Y-39318390D01*
X64922285Y-39318387D01*
X64922284Y-39318385D01*
X64801971Y-39152786D01*
X64657213Y-39008028D01*
X64491613Y-38887715D01*
X64491612Y-38887714D01*
X64491610Y-38887713D01*
X64434653Y-38858691D01*
X64309223Y-38794781D01*
X64114534Y-38731522D01*
X63939995Y-38703878D01*
X63912352Y-38699500D01*
X63707648Y-38699500D01*
X63683329Y-38703351D01*
X63505465Y-38731522D01*
X63310776Y-38794781D01*
X63128386Y-38887715D01*
X62962786Y-39008028D01*
X62818028Y-39152786D01*
X62697715Y-39318386D01*
X62650485Y-39411080D01*
X62602510Y-39461876D01*
X62534689Y-39478671D01*
X62468554Y-39456134D01*
X62429515Y-39411080D01*
X62427332Y-39406795D01*
X62382287Y-39318390D01*
X62320337Y-39233122D01*
X62261971Y-39152786D01*
X62117213Y-39008028D01*
X61951613Y-38887715D01*
X61951612Y-38887714D01*
X61951610Y-38887713D01*
X61894653Y-38858691D01*
X61769223Y-38794781D01*
X61574534Y-38731522D01*
X61399995Y-38703878D01*
X61372352Y-38699500D01*
X61167648Y-38699500D01*
X61143329Y-38703351D01*
X60965465Y-38731522D01*
X60770776Y-38794781D01*
X60588386Y-38887715D01*
X60422786Y-39008028D01*
X60278028Y-39152786D01*
X60157715Y-39318386D01*
X60110485Y-39411080D01*
X60062510Y-39461876D01*
X59994689Y-39478671D01*
X59928554Y-39456134D01*
X59889515Y-39411080D01*
X59887332Y-39406795D01*
X59842287Y-39318390D01*
X59780337Y-39233122D01*
X59721971Y-39152786D01*
X59577213Y-39008028D01*
X59411613Y-38887715D01*
X59411612Y-38887714D01*
X59411610Y-38887713D01*
X59354653Y-38858691D01*
X59229223Y-38794781D01*
X59034534Y-38731522D01*
X58859995Y-38703878D01*
X58832352Y-38699500D01*
X58627648Y-38699500D01*
X58603329Y-38703351D01*
X58425465Y-38731522D01*
X58230776Y-38794781D01*
X58048386Y-38887715D01*
X57882786Y-39008028D01*
X57738028Y-39152786D01*
X57617713Y-39318388D01*
X57570203Y-39411631D01*
X57522229Y-39462426D01*
X57454407Y-39479221D01*
X57388273Y-39456683D01*
X57349234Y-39411629D01*
X57301861Y-39318654D01*
X57301852Y-39318640D01*
X57239720Y-39233122D01*
X57239719Y-39233121D01*
X56658019Y-39814821D01*
X56655925Y-39807007D01*
X56590099Y-39692993D01*
X56497007Y-39599901D01*
X56382993Y-39534075D01*
X56375176Y-39531980D01*
X56956876Y-38950279D01*
X56871347Y-38888139D01*
X56689031Y-38795244D01*
X56494417Y-38732009D01*
X56292317Y-38700000D01*
X56087683Y-38700000D01*
X55885582Y-38732009D01*
X55690968Y-38795244D01*
X55508648Y-38888141D01*
X55423122Y-38950278D01*
X55423122Y-38950279D01*
X56004823Y-39531980D01*
X55997007Y-39534075D01*
X55882993Y-39599901D01*
X55789901Y-39692993D01*
X55724075Y-39807007D01*
X55721980Y-39814823D01*
X55140279Y-39233122D01*
X55140278Y-39233122D01*
X55078141Y-39318649D01*
X55030765Y-39411630D01*
X54982790Y-39462426D01*
X54914969Y-39479221D01*
X54848834Y-39456683D01*
X54809795Y-39411630D01*
X54762287Y-39318390D01*
X54762285Y-39318387D01*
X54762284Y-39318385D01*
X54641971Y-39152786D01*
X54497213Y-39008028D01*
X54331613Y-38887715D01*
X54331612Y-38887714D01*
X54331610Y-38887713D01*
X54274653Y-38858691D01*
X54149223Y-38794781D01*
X53954534Y-38731522D01*
X53779995Y-38703878D01*
X53752352Y-38699500D01*
X53547648Y-38699500D01*
X53523329Y-38703351D01*
X53345465Y-38731522D01*
X53150776Y-38794781D01*
X52968386Y-38887715D01*
X52802786Y-39008028D01*
X52658028Y-39152786D01*
X52537715Y-39318386D01*
X52492668Y-39406795D01*
X52444693Y-39457591D01*
X52382183Y-39474500D01*
X51576796Y-39474500D01*
X51576780Y-39474499D01*
X51569184Y-39474499D01*
X51430817Y-39474499D01*
X51312952Y-39506080D01*
X51297161Y-39510312D01*
X51177338Y-39579492D01*
X51177332Y-39579497D01*
X41945536Y-48811292D01*
X41884213Y-48844777D01*
X41819539Y-48841543D01*
X41781117Y-48829059D01*
X41594486Y-48799500D01*
X41594481Y-48799500D01*
X41405519Y-48799500D01*
X41405514Y-48799500D01*
X41218881Y-48829059D01*
X41039163Y-48887454D01*
X40870800Y-48973240D01*
X40812378Y-49015687D01*
X40717927Y-49084310D01*
X40717925Y-49084312D01*
X40717924Y-49084312D01*
X40584312Y-49217924D01*
X40584312Y-49217925D01*
X40584310Y-49217927D01*
X40567676Y-49240822D01*
X40473240Y-49370800D01*
X40387454Y-49539163D01*
X40329059Y-49718881D01*
X40299500Y-49905513D01*
X38500500Y-49905513D01*
X38500500Y-35738318D01*
X38520185Y-35671279D01*
X38572989Y-35625524D01*
X38642147Y-35615580D01*
X38705703Y-35644605D01*
X38707472Y-35646168D01*
X38794040Y-35724115D01*
X38794049Y-35724122D01*
X39090874Y-35939777D01*
X39090876Y-35939778D01*
X39408625Y-36123230D01*
X39743810Y-36272463D01*
X40092758Y-36385842D01*
X40451645Y-36462125D01*
X40816540Y-36500477D01*
X41183445Y-36500476D01*
X41548340Y-36462124D01*
X41907227Y-36385839D01*
X42256175Y-36272459D01*
X42591359Y-36123225D01*
X42909106Y-35939774D01*
X42909107Y-35939774D01*
X42964663Y-35899409D01*
X43205940Y-35724111D01*
X43478604Y-35478604D01*
X43724111Y-35205940D01*
X43939773Y-34909108D01*
X44123225Y-34591359D01*
X44272459Y-34256175D01*
X44385839Y-33907227D01*
X44462124Y-33548340D01*
X44500476Y-33183445D01*
X44500477Y-32816540D01*
X44462125Y-32451645D01*
X44385842Y-32092758D01*
X44272463Y-31743810D01*
X44123230Y-31408625D01*
X43939778Y-31090876D01*
X43848896Y-30965787D01*
X43724122Y-30794049D01*
X43724114Y-30794040D01*
X43646169Y-30707472D01*
X43615939Y-30644480D01*
X43624565Y-30575145D01*
X43669306Y-30521480D01*
X43735959Y-30500522D01*
X43738319Y-30500500D01*
X76261681Y-30500500D01*
X76328720Y-30520185D01*
G37*
%TD.AperFunction*%
%TA.AperFunction,Conductor*%
G36*
X81461918Y-42920575D02*
G01*
X81496277Y-42981413D01*
X81499500Y-43009501D01*
X81499500Y-48990498D01*
X81479815Y-49057537D01*
X81427011Y-49103292D01*
X81357853Y-49113236D01*
X81294297Y-49084211D01*
X81275184Y-49063386D01*
X81270798Y-49057349D01*
X81092654Y-48879205D01*
X81092649Y-48879201D01*
X80888848Y-48731132D01*
X80888847Y-48731131D01*
X80888845Y-48731130D01*
X80818747Y-48695413D01*
X80664383Y-48616760D01*
X80424785Y-48538909D01*
X80324021Y-48522950D01*
X80260886Y-48493021D01*
X80223955Y-48433709D01*
X80220946Y-48381079D01*
X80250500Y-48194486D01*
X80250500Y-48005513D01*
X80220940Y-47818881D01*
X80193846Y-47735497D01*
X80162547Y-47639168D01*
X80162545Y-47639165D01*
X80162545Y-47639163D01*
X80076759Y-47470800D01*
X79965690Y-47317927D01*
X79832073Y-47184310D01*
X79784861Y-47150008D01*
X79784860Y-47150007D01*
X79742195Y-47094676D01*
X79736217Y-47025063D01*
X79742533Y-47013093D01*
X79745285Y-46978126D01*
X79153529Y-46386370D01*
X79204394Y-46372741D01*
X79295606Y-46320080D01*
X79370080Y-46245606D01*
X79422741Y-46154394D01*
X79436370Y-46103529D01*
X80028126Y-46695285D01*
X80028126Y-46695284D01*
X80076331Y-46628937D01*
X80162085Y-46460637D01*
X80220451Y-46281002D01*
X80250000Y-46094447D01*
X80250000Y-45905552D01*
X80220451Y-45718997D01*
X80162085Y-45539362D01*
X80076329Y-45371059D01*
X80028127Y-45304714D01*
X80028126Y-45304713D01*
X79436370Y-45896470D01*
X79422741Y-45845606D01*
X79370080Y-45754394D01*
X79295606Y-45679920D01*
X79204394Y-45627259D01*
X79153528Y-45613629D01*
X79745284Y-45021872D01*
X79743306Y-44996736D01*
X79742196Y-44995297D01*
X79736217Y-44925683D01*
X79768822Y-44863888D01*
X79784854Y-44849996D01*
X79832073Y-44815690D01*
X79965690Y-44682073D01*
X80076760Y-44529199D01*
X80162547Y-44360832D01*
X80220940Y-44181118D01*
X80229163Y-44129199D01*
X80250500Y-43994486D01*
X80250500Y-43805513D01*
X80220946Y-43618920D01*
X80229900Y-43549627D01*
X80274897Y-43496175D01*
X80324022Y-43477049D01*
X80424785Y-43461090D01*
X80664379Y-43383241D01*
X80888845Y-43268870D01*
X81092656Y-43120793D01*
X81270793Y-42942656D01*
X81275180Y-42936618D01*
X81330509Y-42893951D01*
X81400122Y-42887970D01*
X81461918Y-42920575D01*
G37*
%TD.AperFunction*%
%TD*%
M02*
