%TF.GenerationSoftware,KiCad,Pcbnew,10.0.4*%
%TF.CreationDate,2026-07-02T14:28:06-04:00*%
%TF.ProjectId,companion_carrier,636f6d70-616e-4696-9f6e-5f6361727269,rev?*%
%TF.SameCoordinates,Original*%
%TF.FileFunction,Soldermask,Bot*%
%TF.FilePolarity,Negative*%
%FSLAX46Y46*%
G04 Gerber Fmt 4.6, Leading zero omitted, Abs format (unit mm)*
G04 Created by KiCad (PCBNEW 10.0.4) date 2026-07-02 14:28:06*
%MOMM*%
%LPD*%
G01*
G04 APERTURE LIST*
%ADD10C,1.900000*%
%ADD11C,3.400000*%
%ADD12C,2.200000*%
%ADD13C,1.600000*%
%ADD14C,1.800000*%
%ADD15C,2.400000*%
G04 APERTURE END LIST*
D10*
%TO.C,SW4*%
X63500000Y-77000000D03*
D11*
X69000000Y-77000000D03*
D10*
X74500000Y-77000000D03*
D12*
X69000000Y-71100000D03*
X74000000Y-73200000D03*
%TD*%
D13*
%TO.C,R1*%
X63000000Y-43500000D03*
X73000000Y-43500000D03*
%TD*%
D10*
%TO.C,SW3*%
X45500000Y-77000000D03*
D11*
X51000000Y-77000000D03*
D10*
X56500000Y-77000000D03*
D12*
X51000000Y-71100000D03*
X56000000Y-73200000D03*
%TD*%
D10*
%TO.C,SW2*%
X63500000Y-60000000D03*
D11*
X69000000Y-60000000D03*
D10*
X74500000Y-60000000D03*
D12*
X69000000Y-54100000D03*
X74000000Y-56200000D03*
%TD*%
%TO.C,H2*%
X78500000Y-34000000D03*
%TD*%
D14*
%TO.C,MK1*%
X53650000Y-40000000D03*
X56190000Y-40000000D03*
X58730000Y-40000000D03*
X61270000Y-40000000D03*
X63810000Y-40000000D03*
X66350000Y-40000000D03*
%TD*%
D13*
%TO.C,C2*%
X66500000Y-50000000D03*
X71500000Y-50000000D03*
%TD*%
D12*
%TO.C,H1*%
X41500000Y-34000000D03*
%TD*%
%TO.C,H3*%
X41500000Y-124000000D03*
%TD*%
D10*
%TO.C,SW5*%
X54500000Y-98000000D03*
D11*
X60000000Y-98000000D03*
D10*
X65500000Y-98000000D03*
D12*
X60000000Y-92100000D03*
X65000000Y-94200000D03*
%TD*%
D13*
%TO.C,C1*%
X41500000Y-50000000D03*
X46500000Y-50000000D03*
%TD*%
D12*
%TO.C,H4*%
X78500000Y-124000000D03*
%TD*%
D13*
%TO.C,C3*%
X44500000Y-114000000D03*
X49500000Y-114000000D03*
%TD*%
%TO.C,SW6*%
X79050000Y-43900000D03*
X79050000Y-46000000D03*
X79050000Y-48100000D03*
D15*
X80050000Y-41900000D03*
X80050000Y-50100000D03*
%TD*%
D10*
%TO.C,SW1*%
X45500000Y-60000000D03*
D11*
X51000000Y-60000000D03*
D10*
X56500000Y-60000000D03*
D12*
X51000000Y-54100000D03*
X56000000Y-56200000D03*
%TD*%
D14*
%TO.C,U1*%
X51800000Y-114880000D03*
X51800000Y-117420000D03*
X51800000Y-119960000D03*
X51800000Y-122500000D03*
X51800000Y-125040000D03*
X51800000Y-127580000D03*
X51800000Y-130120000D03*
X68200000Y-114880000D03*
X68200000Y-117420000D03*
X68200000Y-119960000D03*
X68200000Y-122500000D03*
X68200000Y-125040000D03*
X68200000Y-127580000D03*
X68200000Y-130120000D03*
%TD*%
M02*
