M48
; DRILL file KiCad 10.0.4 date 2026-07-02T14:28:06
; FORMAT={-:-/ absolute / metric / decimal}
; #@! TF.CreationDate,2026-07-02T14:28:06-04:00
; #@! TF.GenerationSoftware,Kicad,Pcbnew,10.0.4
; #@! TF.FileFunction,Plated,1,2,PTH
FMAT,2
METRIC
; #@! TA.AperFunction,Plated,PTH,ComponentDrill
T1C0.800
; #@! TA.AperFunction,Plated,PTH,ComponentDrill
T2C1.000
; #@! TA.AperFunction,Plated,PTH,ComponentDrill
T3C1.200
; #@! TA.AperFunction,Plated,PTH,ComponentDrill
T4C1.500
%
G90
G05
T1
X41.5Y-50.0
X44.5Y-114.0
X46.5Y-50.0
X49.5Y-114.0
X63.0Y-43.5
X66.5Y-50.0
X71.5Y-50.0
X73.0Y-43.5
X79.05Y-43.9
X79.05Y-46.0
X79.05Y-48.1
T2
X51.8Y-114.88
X51.8Y-117.42
X51.8Y-119.96
X51.8Y-122.5
X51.8Y-125.04
X51.8Y-127.58
X51.8Y-130.12
X53.65Y-40.0
X56.19Y-40.0
X58.73Y-40.0
X61.27Y-40.0
X63.81Y-40.0
X66.35Y-40.0
X68.2Y-114.88
X68.2Y-117.42
X68.2Y-119.96
X68.2Y-122.5
X68.2Y-125.04
X68.2Y-127.58
X68.2Y-130.12
T3
X51.0Y-54.1
X51.0Y-71.1
X56.0Y-56.2
X56.0Y-73.2
X60.0Y-92.1
X65.0Y-94.2
X69.0Y-54.1
X69.0Y-71.1
X74.0Y-56.2
X74.0Y-73.2
T4
X80.05Y-41.9
X80.05Y-50.1
M30
