%TF.GenerationSoftware,KiCad,Pcbnew,10.0.4*%
%TF.CreationDate,2026-07-02T14:28:06-04:00*%
%TF.ProjectId,companion_carrier,636f6d70-616e-4696-9f6e-5f6361727269,rev?*%
%TF.SameCoordinates,Original*%
%TF.FileFunction,Legend,Top*%
%TF.FilePolarity,Positive*%
%FSLAX46Y46*%
G04 Gerber Fmt 4.6, Leading zero omitted, Abs format (unit mm)*
G04 Created by KiCad (PCBNEW 10.0.4) date 2026-07-02 14:28:06*
%MOMM*%
%LPD*%
G01*
G04 APERTURE LIST*
%ADD10C,0.150000*%
%ADD11C,0.120000*%
G04 APERTURE END LIST*
D10*
X53309522Y-110702438D02*
X53214284Y-110654819D01*
X53214284Y-110654819D02*
X53071427Y-110654819D01*
X53071427Y-110654819D02*
X52928570Y-110702438D01*
X52928570Y-110702438D02*
X52833332Y-110797676D01*
X52833332Y-110797676D02*
X52785713Y-110892914D01*
X52785713Y-110892914D02*
X52738094Y-111083390D01*
X52738094Y-111083390D02*
X52738094Y-111226247D01*
X52738094Y-111226247D02*
X52785713Y-111416723D01*
X52785713Y-111416723D02*
X52833332Y-111511961D01*
X52833332Y-111511961D02*
X52928570Y-111607200D01*
X52928570Y-111607200D02*
X53071427Y-111654819D01*
X53071427Y-111654819D02*
X53166665Y-111654819D01*
X53166665Y-111654819D02*
X53309522Y-111607200D01*
X53309522Y-111607200D02*
X53357141Y-111559580D01*
X53357141Y-111559580D02*
X53357141Y-111226247D01*
X53357141Y-111226247D02*
X53166665Y-111226247D01*
X54166665Y-111607200D02*
X54071427Y-111654819D01*
X54071427Y-111654819D02*
X53880951Y-111654819D01*
X53880951Y-111654819D02*
X53785713Y-111607200D01*
X53785713Y-111607200D02*
X53738094Y-111511961D01*
X53738094Y-111511961D02*
X53738094Y-111131009D01*
X53738094Y-111131009D02*
X53785713Y-111035771D01*
X53785713Y-111035771D02*
X53880951Y-110988152D01*
X53880951Y-110988152D02*
X54071427Y-110988152D01*
X54071427Y-110988152D02*
X54166665Y-111035771D01*
X54166665Y-111035771D02*
X54214284Y-111131009D01*
X54214284Y-111131009D02*
X54214284Y-111226247D01*
X54214284Y-111226247D02*
X53738094Y-111321485D01*
X54785713Y-111654819D02*
X54690475Y-111607200D01*
X54690475Y-111607200D02*
X54642856Y-111559580D01*
X54642856Y-111559580D02*
X54595237Y-111464342D01*
X54595237Y-111464342D02*
X54595237Y-111178628D01*
X54595237Y-111178628D02*
X54642856Y-111083390D01*
X54642856Y-111083390D02*
X54690475Y-111035771D01*
X54690475Y-111035771D02*
X54785713Y-110988152D01*
X54785713Y-110988152D02*
X54928570Y-110988152D01*
X54928570Y-110988152D02*
X55023808Y-111035771D01*
X55023808Y-111035771D02*
X55071427Y-111083390D01*
X55071427Y-111083390D02*
X55119046Y-111178628D01*
X55119046Y-111178628D02*
X55119046Y-111464342D01*
X55119046Y-111464342D02*
X55071427Y-111559580D01*
X55071427Y-111559580D02*
X55023808Y-111607200D01*
X55023808Y-111607200D02*
X54928570Y-111654819D01*
X54928570Y-111654819D02*
X54785713Y-111654819D01*
X55404761Y-110988152D02*
X55785713Y-110988152D01*
X55547618Y-111654819D02*
X55547618Y-110797676D01*
X55547618Y-110797676D02*
X55595237Y-110702438D01*
X55595237Y-110702438D02*
X55690475Y-110654819D01*
X55690475Y-110654819D02*
X55785713Y-110654819D01*
X55976190Y-110988152D02*
X56357142Y-110988152D01*
X56119047Y-111654819D02*
X56119047Y-110797676D01*
X56119047Y-110797676D02*
X56166666Y-110702438D01*
X56166666Y-110702438D02*
X56261904Y-110654819D01*
X56261904Y-110654819D02*
X56357142Y-110654819D01*
X57452381Y-111654819D02*
X57452381Y-110654819D01*
X57452381Y-110654819D02*
X57690476Y-110654819D01*
X57690476Y-110654819D02*
X57833333Y-110702438D01*
X57833333Y-110702438D02*
X57928571Y-110797676D01*
X57928571Y-110797676D02*
X57976190Y-110892914D01*
X57976190Y-110892914D02*
X58023809Y-111083390D01*
X58023809Y-111083390D02*
X58023809Y-111226247D01*
X58023809Y-111226247D02*
X57976190Y-111416723D01*
X57976190Y-111416723D02*
X57928571Y-111511961D01*
X57928571Y-111511961D02*
X57833333Y-111607200D01*
X57833333Y-111607200D02*
X57690476Y-111654819D01*
X57690476Y-111654819D02*
X57452381Y-111654819D01*
X58880952Y-110988152D02*
X58880952Y-111654819D01*
X58452381Y-110988152D02*
X58452381Y-111511961D01*
X58452381Y-111511961D02*
X58500000Y-111607200D01*
X58500000Y-111607200D02*
X58595238Y-111654819D01*
X58595238Y-111654819D02*
X58738095Y-111654819D01*
X58738095Y-111654819D02*
X58833333Y-111607200D01*
X58833333Y-111607200D02*
X58880952Y-111559580D01*
X59785714Y-111654819D02*
X59785714Y-110654819D01*
X59785714Y-111607200D02*
X59690476Y-111654819D01*
X59690476Y-111654819D02*
X59500000Y-111654819D01*
X59500000Y-111654819D02*
X59404762Y-111607200D01*
X59404762Y-111607200D02*
X59357143Y-111559580D01*
X59357143Y-111559580D02*
X59309524Y-111464342D01*
X59309524Y-111464342D02*
X59309524Y-111178628D01*
X59309524Y-111178628D02*
X59357143Y-111083390D01*
X59357143Y-111083390D02*
X59404762Y-111035771D01*
X59404762Y-111035771D02*
X59500000Y-110988152D01*
X59500000Y-110988152D02*
X59690476Y-110988152D01*
X59690476Y-110988152D02*
X59785714Y-111035771D01*
X60690476Y-110988152D02*
X60690476Y-111797676D01*
X60690476Y-111797676D02*
X60642857Y-111892914D01*
X60642857Y-111892914D02*
X60595238Y-111940533D01*
X60595238Y-111940533D02*
X60500000Y-111988152D01*
X60500000Y-111988152D02*
X60357143Y-111988152D01*
X60357143Y-111988152D02*
X60261905Y-111940533D01*
X60690476Y-111607200D02*
X60595238Y-111654819D01*
X60595238Y-111654819D02*
X60404762Y-111654819D01*
X60404762Y-111654819D02*
X60309524Y-111607200D01*
X60309524Y-111607200D02*
X60261905Y-111559580D01*
X60261905Y-111559580D02*
X60214286Y-111464342D01*
X60214286Y-111464342D02*
X60214286Y-111178628D01*
X60214286Y-111178628D02*
X60261905Y-111083390D01*
X60261905Y-111083390D02*
X60309524Y-111035771D01*
X60309524Y-111035771D02*
X60404762Y-110988152D01*
X60404762Y-110988152D02*
X60595238Y-110988152D01*
X60595238Y-110988152D02*
X60690476Y-111035771D01*
X61547619Y-111607200D02*
X61452381Y-111654819D01*
X61452381Y-111654819D02*
X61261905Y-111654819D01*
X61261905Y-111654819D02*
X61166667Y-111607200D01*
X61166667Y-111607200D02*
X61119048Y-111511961D01*
X61119048Y-111511961D02*
X61119048Y-111131009D01*
X61119048Y-111131009D02*
X61166667Y-111035771D01*
X61166667Y-111035771D02*
X61261905Y-110988152D01*
X61261905Y-110988152D02*
X61452381Y-110988152D01*
X61452381Y-110988152D02*
X61547619Y-111035771D01*
X61547619Y-111035771D02*
X61595238Y-111131009D01*
X61595238Y-111131009D02*
X61595238Y-111226247D01*
X61595238Y-111226247D02*
X61119048Y-111321485D01*
X62166667Y-111654819D02*
X62071429Y-111607200D01*
X62071429Y-111607200D02*
X62023810Y-111559580D01*
X62023810Y-111559580D02*
X61976191Y-111464342D01*
X61976191Y-111464342D02*
X61976191Y-111178628D01*
X61976191Y-111178628D02*
X62023810Y-111083390D01*
X62023810Y-111083390D02*
X62071429Y-111035771D01*
X62071429Y-111035771D02*
X62166667Y-110988152D01*
X62166667Y-110988152D02*
X62309524Y-110988152D01*
X62309524Y-110988152D02*
X62404762Y-111035771D01*
X62404762Y-111035771D02*
X62452381Y-111083390D01*
X62452381Y-111083390D02*
X62500000Y-111178628D01*
X62500000Y-111178628D02*
X62500000Y-111464342D01*
X62500000Y-111464342D02*
X62452381Y-111559580D01*
X62452381Y-111559580D02*
X62404762Y-111607200D01*
X62404762Y-111607200D02*
X62309524Y-111654819D01*
X62309524Y-111654819D02*
X62166667Y-111654819D01*
X62928572Y-110988152D02*
X62928572Y-111654819D01*
X62928572Y-111083390D02*
X62976191Y-111035771D01*
X62976191Y-111035771D02*
X63071429Y-110988152D01*
X63071429Y-110988152D02*
X63214286Y-110988152D01*
X63214286Y-110988152D02*
X63309524Y-111035771D01*
X63309524Y-111035771D02*
X63357143Y-111131009D01*
X63357143Y-111131009D02*
X63357143Y-111654819D01*
X65404763Y-111654819D02*
X65357144Y-111654819D01*
X65357144Y-111654819D02*
X65261905Y-111607200D01*
X65261905Y-111607200D02*
X65119048Y-111464342D01*
X65119048Y-111464342D02*
X64880953Y-111178628D01*
X64880953Y-111178628D02*
X64785715Y-111035771D01*
X64785715Y-111035771D02*
X64738096Y-110892914D01*
X64738096Y-110892914D02*
X64738096Y-110797676D01*
X64738096Y-110797676D02*
X64785715Y-110702438D01*
X64785715Y-110702438D02*
X64880953Y-110654819D01*
X64880953Y-110654819D02*
X64928572Y-110654819D01*
X64928572Y-110654819D02*
X65023810Y-110702438D01*
X65023810Y-110702438D02*
X65071429Y-110797676D01*
X65071429Y-110797676D02*
X65071429Y-110845295D01*
X65071429Y-110845295D02*
X65023810Y-110940533D01*
X65023810Y-110940533D02*
X64976191Y-110988152D01*
X64976191Y-110988152D02*
X64690477Y-111178628D01*
X64690477Y-111178628D02*
X64642858Y-111226247D01*
X64642858Y-111226247D02*
X64595239Y-111321485D01*
X64595239Y-111321485D02*
X64595239Y-111464342D01*
X64595239Y-111464342D02*
X64642858Y-111559580D01*
X64642858Y-111559580D02*
X64690477Y-111607200D01*
X64690477Y-111607200D02*
X64785715Y-111654819D01*
X64785715Y-111654819D02*
X64928572Y-111654819D01*
X64928572Y-111654819D02*
X65023810Y-111607200D01*
X65023810Y-111607200D02*
X65071429Y-111559580D01*
X65071429Y-111559580D02*
X65214286Y-111369104D01*
X65214286Y-111369104D02*
X65261905Y-111226247D01*
X65261905Y-111226247D02*
X65261905Y-111131009D01*
X67166667Y-111559580D02*
X67119048Y-111607200D01*
X67119048Y-111607200D02*
X66976191Y-111654819D01*
X66976191Y-111654819D02*
X66880953Y-111654819D01*
X66880953Y-111654819D02*
X66738096Y-111607200D01*
X66738096Y-111607200D02*
X66642858Y-111511961D01*
X66642858Y-111511961D02*
X66595239Y-111416723D01*
X66595239Y-111416723D02*
X66547620Y-111226247D01*
X66547620Y-111226247D02*
X66547620Y-111083390D01*
X66547620Y-111083390D02*
X66595239Y-110892914D01*
X66595239Y-110892914D02*
X66642858Y-110797676D01*
X66642858Y-110797676D02*
X66738096Y-110702438D01*
X66738096Y-110702438D02*
X66880953Y-110654819D01*
X66880953Y-110654819D02*
X66976191Y-110654819D01*
X66976191Y-110654819D02*
X67119048Y-110702438D01*
X67119048Y-110702438D02*
X67166667Y-110750057D01*
X67738096Y-111654819D02*
X67642858Y-111607200D01*
X67642858Y-111607200D02*
X67595239Y-111511961D01*
X67595239Y-111511961D02*
X67595239Y-110654819D01*
X68547620Y-111654819D02*
X68547620Y-111131009D01*
X68547620Y-111131009D02*
X68500001Y-111035771D01*
X68500001Y-111035771D02*
X68404763Y-110988152D01*
X68404763Y-110988152D02*
X68214287Y-110988152D01*
X68214287Y-110988152D02*
X68119049Y-111035771D01*
X68547620Y-111607200D02*
X68452382Y-111654819D01*
X68452382Y-111654819D02*
X68214287Y-111654819D01*
X68214287Y-111654819D02*
X68119049Y-111607200D01*
X68119049Y-111607200D02*
X68071430Y-111511961D01*
X68071430Y-111511961D02*
X68071430Y-111416723D01*
X68071430Y-111416723D02*
X68119049Y-111321485D01*
X68119049Y-111321485D02*
X68214287Y-111273866D01*
X68214287Y-111273866D02*
X68452382Y-111273866D01*
X68452382Y-111273866D02*
X68547620Y-111226247D01*
X69452382Y-110988152D02*
X69452382Y-111654819D01*
X69023811Y-110988152D02*
X69023811Y-111511961D01*
X69023811Y-111511961D02*
X69071430Y-111607200D01*
X69071430Y-111607200D02*
X69166668Y-111654819D01*
X69166668Y-111654819D02*
X69309525Y-111654819D01*
X69309525Y-111654819D02*
X69404763Y-111607200D01*
X69404763Y-111607200D02*
X69452382Y-111559580D01*
X70357144Y-111654819D02*
X70357144Y-110654819D01*
X70357144Y-111607200D02*
X70261906Y-111654819D01*
X70261906Y-111654819D02*
X70071430Y-111654819D01*
X70071430Y-111654819D02*
X69976192Y-111607200D01*
X69976192Y-111607200D02*
X69928573Y-111559580D01*
X69928573Y-111559580D02*
X69880954Y-111464342D01*
X69880954Y-111464342D02*
X69880954Y-111178628D01*
X69880954Y-111178628D02*
X69928573Y-111083390D01*
X69928573Y-111083390D02*
X69976192Y-111035771D01*
X69976192Y-111035771D02*
X70071430Y-110988152D01*
X70071430Y-110988152D02*
X70261906Y-110988152D01*
X70261906Y-110988152D02*
X70357144Y-111035771D01*
X71214287Y-111607200D02*
X71119049Y-111654819D01*
X71119049Y-111654819D02*
X70928573Y-111654819D01*
X70928573Y-111654819D02*
X70833335Y-111607200D01*
X70833335Y-111607200D02*
X70785716Y-111511961D01*
X70785716Y-111511961D02*
X70785716Y-111131009D01*
X70785716Y-111131009D02*
X70833335Y-111035771D01*
X70833335Y-111035771D02*
X70928573Y-110988152D01*
X70928573Y-110988152D02*
X71119049Y-110988152D01*
X71119049Y-110988152D02*
X71214287Y-111035771D01*
X71214287Y-111035771D02*
X71261906Y-111131009D01*
X71261906Y-111131009D02*
X71261906Y-111226247D01*
X71261906Y-111226247D02*
X70785716Y-111321485D01*
X52228573Y-109147342D02*
X52228573Y-108518771D01*
X52228573Y-108518771D02*
X52171430Y-108404485D01*
X52171430Y-108404485D02*
X52057144Y-108347342D01*
X52057144Y-108347342D02*
X51828573Y-108347342D01*
X51828573Y-108347342D02*
X51714287Y-108404485D01*
X52228573Y-109090200D02*
X52114287Y-109147342D01*
X52114287Y-109147342D02*
X51828573Y-109147342D01*
X51828573Y-109147342D02*
X51714287Y-109090200D01*
X51714287Y-109090200D02*
X51657144Y-108975914D01*
X51657144Y-108975914D02*
X51657144Y-108861628D01*
X51657144Y-108861628D02*
X51714287Y-108747342D01*
X51714287Y-108747342D02*
X51828573Y-108690200D01*
X51828573Y-108690200D02*
X52114287Y-108690200D01*
X52114287Y-108690200D02*
X52228573Y-108633057D01*
X53314287Y-108347342D02*
X53314287Y-109318771D01*
X53314287Y-109318771D02*
X53257144Y-109433057D01*
X53257144Y-109433057D02*
X53200001Y-109490200D01*
X53200001Y-109490200D02*
X53085715Y-109547342D01*
X53085715Y-109547342D02*
X52914287Y-109547342D01*
X52914287Y-109547342D02*
X52800001Y-109490200D01*
X53314287Y-109090200D02*
X53200001Y-109147342D01*
X53200001Y-109147342D02*
X52971429Y-109147342D01*
X52971429Y-109147342D02*
X52857144Y-109090200D01*
X52857144Y-109090200D02*
X52800001Y-109033057D01*
X52800001Y-109033057D02*
X52742858Y-108918771D01*
X52742858Y-108918771D02*
X52742858Y-108575914D01*
X52742858Y-108575914D02*
X52800001Y-108461628D01*
X52800001Y-108461628D02*
X52857144Y-108404485D01*
X52857144Y-108404485D02*
X52971429Y-108347342D01*
X52971429Y-108347342D02*
X53200001Y-108347342D01*
X53200001Y-108347342D02*
X53314287Y-108404485D01*
X54342858Y-109090200D02*
X54228572Y-109147342D01*
X54228572Y-109147342D02*
X54000001Y-109147342D01*
X54000001Y-109147342D02*
X53885715Y-109090200D01*
X53885715Y-109090200D02*
X53828572Y-108975914D01*
X53828572Y-108975914D02*
X53828572Y-108518771D01*
X53828572Y-108518771D02*
X53885715Y-108404485D01*
X53885715Y-108404485D02*
X54000001Y-108347342D01*
X54000001Y-108347342D02*
X54228572Y-108347342D01*
X54228572Y-108347342D02*
X54342858Y-108404485D01*
X54342858Y-108404485D02*
X54400001Y-108518771D01*
X54400001Y-108518771D02*
X54400001Y-108633057D01*
X54400001Y-108633057D02*
X53828572Y-108747342D01*
X54914286Y-108347342D02*
X54914286Y-109147342D01*
X54914286Y-108461628D02*
X54971429Y-108404485D01*
X54971429Y-108404485D02*
X55085714Y-108347342D01*
X55085714Y-108347342D02*
X55257143Y-108347342D01*
X55257143Y-108347342D02*
X55371429Y-108404485D01*
X55371429Y-108404485D02*
X55428572Y-108518771D01*
X55428572Y-108518771D02*
X55428572Y-109147342D01*
X55828571Y-108347342D02*
X56285714Y-108347342D01*
X56000000Y-107947342D02*
X56000000Y-108975914D01*
X56000000Y-108975914D02*
X56057143Y-109090200D01*
X56057143Y-109090200D02*
X56171428Y-109147342D01*
X56171428Y-109147342D02*
X56285714Y-109147342D01*
X56685714Y-108690200D02*
X57600000Y-108690200D01*
X58171428Y-108347342D02*
X58171428Y-109547342D01*
X58171428Y-108404485D02*
X58285714Y-108347342D01*
X58285714Y-108347342D02*
X58514285Y-108347342D01*
X58514285Y-108347342D02*
X58628571Y-108404485D01*
X58628571Y-108404485D02*
X58685714Y-108461628D01*
X58685714Y-108461628D02*
X58742856Y-108575914D01*
X58742856Y-108575914D02*
X58742856Y-108918771D01*
X58742856Y-108918771D02*
X58685714Y-109033057D01*
X58685714Y-109033057D02*
X58628571Y-109090200D01*
X58628571Y-109090200D02*
X58514285Y-109147342D01*
X58514285Y-109147342D02*
X58285714Y-109147342D01*
X58285714Y-109147342D02*
X58171428Y-109090200D01*
X59085713Y-108347342D02*
X59542856Y-108347342D01*
X59257142Y-107947342D02*
X59257142Y-108975914D01*
X59257142Y-108975914D02*
X59314285Y-109090200D01*
X59314285Y-109090200D02*
X59428570Y-109147342D01*
X59428570Y-109147342D02*
X59542856Y-109147342D01*
X59771427Y-108347342D02*
X60228570Y-108347342D01*
X59942856Y-107947342D02*
X59942856Y-108975914D01*
X59942856Y-108975914D02*
X59999999Y-109090200D01*
X59999999Y-109090200D02*
X60114284Y-109147342D01*
X60114284Y-109147342D02*
X60228570Y-109147342D01*
X60628570Y-108690200D02*
X61542856Y-108690200D01*
X62114284Y-109147342D02*
X62114284Y-108347342D01*
X62114284Y-108461628D02*
X62171427Y-108404485D01*
X62171427Y-108404485D02*
X62285712Y-108347342D01*
X62285712Y-108347342D02*
X62457141Y-108347342D01*
X62457141Y-108347342D02*
X62571427Y-108404485D01*
X62571427Y-108404485D02*
X62628570Y-108518771D01*
X62628570Y-108518771D02*
X62628570Y-109147342D01*
X62628570Y-108518771D02*
X62685712Y-108404485D01*
X62685712Y-108404485D02*
X62799998Y-108347342D01*
X62799998Y-108347342D02*
X62971427Y-108347342D01*
X62971427Y-108347342D02*
X63085712Y-108404485D01*
X63085712Y-108404485D02*
X63142855Y-108518771D01*
X63142855Y-108518771D02*
X63142855Y-109147342D01*
X63714284Y-109147342D02*
X63714284Y-108347342D01*
X63714284Y-107947342D02*
X63657141Y-108004485D01*
X63657141Y-108004485D02*
X63714284Y-108061628D01*
X63714284Y-108061628D02*
X63771427Y-108004485D01*
X63771427Y-108004485D02*
X63714284Y-107947342D01*
X63714284Y-107947342D02*
X63714284Y-108061628D01*
X64799999Y-109090200D02*
X64685713Y-109147342D01*
X64685713Y-109147342D02*
X64457141Y-109147342D01*
X64457141Y-109147342D02*
X64342856Y-109090200D01*
X64342856Y-109090200D02*
X64285713Y-109033057D01*
X64285713Y-109033057D02*
X64228570Y-108918771D01*
X64228570Y-108918771D02*
X64228570Y-108575914D01*
X64228570Y-108575914D02*
X64285713Y-108461628D01*
X64285713Y-108461628D02*
X64342856Y-108404485D01*
X64342856Y-108404485D02*
X64457141Y-108347342D01*
X64457141Y-108347342D02*
X64685713Y-108347342D01*
X64685713Y-108347342D02*
X64799999Y-108404485D01*
X65314284Y-108690200D02*
X66228570Y-108690200D01*
X66685712Y-108347342D02*
X66971426Y-109147342D01*
X66971426Y-109147342D02*
X67257141Y-108347342D01*
X67942855Y-107947342D02*
X68057141Y-107947342D01*
X68057141Y-107947342D02*
X68171427Y-108004485D01*
X68171427Y-108004485D02*
X68228570Y-108061628D01*
X68228570Y-108061628D02*
X68285712Y-108175914D01*
X68285712Y-108175914D02*
X68342855Y-108404485D01*
X68342855Y-108404485D02*
X68342855Y-108690200D01*
X68342855Y-108690200D02*
X68285712Y-108918771D01*
X68285712Y-108918771D02*
X68228570Y-109033057D01*
X68228570Y-109033057D02*
X68171427Y-109090200D01*
X68171427Y-109090200D02*
X68057141Y-109147342D01*
X68057141Y-109147342D02*
X67942855Y-109147342D01*
X67942855Y-109147342D02*
X67828570Y-109090200D01*
X67828570Y-109090200D02*
X67771427Y-109033057D01*
X67771427Y-109033057D02*
X67714284Y-108918771D01*
X67714284Y-108918771D02*
X67657141Y-108690200D01*
X67657141Y-108690200D02*
X67657141Y-108404485D01*
X67657141Y-108404485D02*
X67714284Y-108175914D01*
X67714284Y-108175914D02*
X67771427Y-108061628D01*
X67771427Y-108061628D02*
X67828570Y-108004485D01*
X67828570Y-108004485D02*
X67942855Y-107947342D01*
D11*
X67933332Y-74325760D02*
X68047618Y-74363855D01*
X68047618Y-74363855D02*
X68238094Y-74363855D01*
X68238094Y-74363855D02*
X68314285Y-74325760D01*
X68314285Y-74325760D02*
X68352380Y-74287664D01*
X68352380Y-74287664D02*
X68390475Y-74211474D01*
X68390475Y-74211474D02*
X68390475Y-74135283D01*
X68390475Y-74135283D02*
X68352380Y-74059093D01*
X68352380Y-74059093D02*
X68314285Y-74020998D01*
X68314285Y-74020998D02*
X68238094Y-73982902D01*
X68238094Y-73982902D02*
X68085713Y-73944807D01*
X68085713Y-73944807D02*
X68009523Y-73906712D01*
X68009523Y-73906712D02*
X67971428Y-73868617D01*
X67971428Y-73868617D02*
X67933332Y-73792426D01*
X67933332Y-73792426D02*
X67933332Y-73716236D01*
X67933332Y-73716236D02*
X67971428Y-73640045D01*
X67971428Y-73640045D02*
X68009523Y-73601950D01*
X68009523Y-73601950D02*
X68085713Y-73563855D01*
X68085713Y-73563855D02*
X68276190Y-73563855D01*
X68276190Y-73563855D02*
X68390475Y-73601950D01*
X68657142Y-73563855D02*
X68847618Y-74363855D01*
X68847618Y-74363855D02*
X68999999Y-73792426D01*
X68999999Y-73792426D02*
X69152380Y-74363855D01*
X69152380Y-74363855D02*
X69342857Y-73563855D01*
X69990476Y-73830521D02*
X69990476Y-74363855D01*
X69800000Y-73525760D02*
X69609523Y-74097188D01*
X69609523Y-74097188D02*
X70104762Y-74097188D01*
X67866667Y-40863855D02*
X67600000Y-40482902D01*
X67409524Y-40863855D02*
X67409524Y-40063855D01*
X67409524Y-40063855D02*
X67714286Y-40063855D01*
X67714286Y-40063855D02*
X67790476Y-40101950D01*
X67790476Y-40101950D02*
X67828571Y-40140045D01*
X67828571Y-40140045D02*
X67866667Y-40216236D01*
X67866667Y-40216236D02*
X67866667Y-40330521D01*
X67866667Y-40330521D02*
X67828571Y-40406712D01*
X67828571Y-40406712D02*
X67790476Y-40444807D01*
X67790476Y-40444807D02*
X67714286Y-40482902D01*
X67714286Y-40482902D02*
X67409524Y-40482902D01*
X68628571Y-40863855D02*
X68171428Y-40863855D01*
X68400000Y-40863855D02*
X68400000Y-40063855D01*
X68400000Y-40063855D02*
X68323809Y-40178140D01*
X68323809Y-40178140D02*
X68247619Y-40254331D01*
X68247619Y-40254331D02*
X68171428Y-40292426D01*
X49933332Y-74325760D02*
X50047618Y-74363855D01*
X50047618Y-74363855D02*
X50238094Y-74363855D01*
X50238094Y-74363855D02*
X50314285Y-74325760D01*
X50314285Y-74325760D02*
X50352380Y-74287664D01*
X50352380Y-74287664D02*
X50390475Y-74211474D01*
X50390475Y-74211474D02*
X50390475Y-74135283D01*
X50390475Y-74135283D02*
X50352380Y-74059093D01*
X50352380Y-74059093D02*
X50314285Y-74020998D01*
X50314285Y-74020998D02*
X50238094Y-73982902D01*
X50238094Y-73982902D02*
X50085713Y-73944807D01*
X50085713Y-73944807D02*
X50009523Y-73906712D01*
X50009523Y-73906712D02*
X49971428Y-73868617D01*
X49971428Y-73868617D02*
X49933332Y-73792426D01*
X49933332Y-73792426D02*
X49933332Y-73716236D01*
X49933332Y-73716236D02*
X49971428Y-73640045D01*
X49971428Y-73640045D02*
X50009523Y-73601950D01*
X50009523Y-73601950D02*
X50085713Y-73563855D01*
X50085713Y-73563855D02*
X50276190Y-73563855D01*
X50276190Y-73563855D02*
X50390475Y-73601950D01*
X50657142Y-73563855D02*
X50847618Y-74363855D01*
X50847618Y-74363855D02*
X50999999Y-73792426D01*
X50999999Y-73792426D02*
X51152380Y-74363855D01*
X51152380Y-74363855D02*
X51342857Y-73563855D01*
X51571428Y-73563855D02*
X52066666Y-73563855D01*
X52066666Y-73563855D02*
X51800000Y-73868617D01*
X51800000Y-73868617D02*
X51914285Y-73868617D01*
X51914285Y-73868617D02*
X51990476Y-73906712D01*
X51990476Y-73906712D02*
X52028571Y-73944807D01*
X52028571Y-73944807D02*
X52066666Y-74020998D01*
X52066666Y-74020998D02*
X52066666Y-74211474D01*
X52066666Y-74211474D02*
X52028571Y-74287664D01*
X52028571Y-74287664D02*
X51990476Y-74325760D01*
X51990476Y-74325760D02*
X51914285Y-74363855D01*
X51914285Y-74363855D02*
X51685714Y-74363855D01*
X51685714Y-74363855D02*
X51609523Y-74325760D01*
X51609523Y-74325760D02*
X51571428Y-74287664D01*
X67933332Y-57325760D02*
X68047618Y-57363855D01*
X68047618Y-57363855D02*
X68238094Y-57363855D01*
X68238094Y-57363855D02*
X68314285Y-57325760D01*
X68314285Y-57325760D02*
X68352380Y-57287664D01*
X68352380Y-57287664D02*
X68390475Y-57211474D01*
X68390475Y-57211474D02*
X68390475Y-57135283D01*
X68390475Y-57135283D02*
X68352380Y-57059093D01*
X68352380Y-57059093D02*
X68314285Y-57020998D01*
X68314285Y-57020998D02*
X68238094Y-56982902D01*
X68238094Y-56982902D02*
X68085713Y-56944807D01*
X68085713Y-56944807D02*
X68009523Y-56906712D01*
X68009523Y-56906712D02*
X67971428Y-56868617D01*
X67971428Y-56868617D02*
X67933332Y-56792426D01*
X67933332Y-56792426D02*
X67933332Y-56716236D01*
X67933332Y-56716236D02*
X67971428Y-56640045D01*
X67971428Y-56640045D02*
X68009523Y-56601950D01*
X68009523Y-56601950D02*
X68085713Y-56563855D01*
X68085713Y-56563855D02*
X68276190Y-56563855D01*
X68276190Y-56563855D02*
X68390475Y-56601950D01*
X68657142Y-56563855D02*
X68847618Y-57363855D01*
X68847618Y-57363855D02*
X68999999Y-56792426D01*
X68999999Y-56792426D02*
X69152380Y-57363855D01*
X69152380Y-57363855D02*
X69342857Y-56563855D01*
X69609523Y-56640045D02*
X69647619Y-56601950D01*
X69647619Y-56601950D02*
X69723809Y-56563855D01*
X69723809Y-56563855D02*
X69914285Y-56563855D01*
X69914285Y-56563855D02*
X69990476Y-56601950D01*
X69990476Y-56601950D02*
X70028571Y-56640045D01*
X70028571Y-56640045D02*
X70066666Y-56716236D01*
X70066666Y-56716236D02*
X70066666Y-56792426D01*
X70066666Y-56792426D02*
X70028571Y-56906712D01*
X70028571Y-56906712D02*
X69571428Y-57363855D01*
X69571428Y-57363855D02*
X70066666Y-57363855D01*
X77890476Y-31363855D02*
X77890476Y-30563855D01*
X77890476Y-30944807D02*
X78347619Y-30944807D01*
X78347619Y-31363855D02*
X78347619Y-30563855D01*
X78690475Y-30640045D02*
X78728571Y-30601950D01*
X78728571Y-30601950D02*
X78804761Y-30563855D01*
X78804761Y-30563855D02*
X78995237Y-30563855D01*
X78995237Y-30563855D02*
X79071428Y-30601950D01*
X79071428Y-30601950D02*
X79109523Y-30640045D01*
X79109523Y-30640045D02*
X79147618Y-30716236D01*
X79147618Y-30716236D02*
X79147618Y-30792426D01*
X79147618Y-30792426D02*
X79109523Y-30906712D01*
X79109523Y-30906712D02*
X78652380Y-31363855D01*
X78652380Y-31363855D02*
X79147618Y-31363855D01*
X58952381Y-37363855D02*
X58952381Y-36563855D01*
X58952381Y-36563855D02*
X59219047Y-37135283D01*
X59219047Y-37135283D02*
X59485714Y-36563855D01*
X59485714Y-36563855D02*
X59485714Y-37363855D01*
X59866667Y-37363855D02*
X59866667Y-36563855D01*
X60323810Y-37363855D02*
X59980952Y-36906712D01*
X60323810Y-36563855D02*
X59866667Y-37020998D01*
X61085714Y-37363855D02*
X60628571Y-37363855D01*
X60857143Y-37363855D02*
X60857143Y-36563855D01*
X60857143Y-36563855D02*
X60780952Y-36678140D01*
X60780952Y-36678140D02*
X60704762Y-36754331D01*
X60704762Y-36754331D02*
X60628571Y-36792426D01*
X68866667Y-47287664D02*
X68828571Y-47325760D01*
X68828571Y-47325760D02*
X68714286Y-47363855D01*
X68714286Y-47363855D02*
X68638095Y-47363855D01*
X68638095Y-47363855D02*
X68523809Y-47325760D01*
X68523809Y-47325760D02*
X68447619Y-47249569D01*
X68447619Y-47249569D02*
X68409524Y-47173379D01*
X68409524Y-47173379D02*
X68371428Y-47020998D01*
X68371428Y-47020998D02*
X68371428Y-46906712D01*
X68371428Y-46906712D02*
X68409524Y-46754331D01*
X68409524Y-46754331D02*
X68447619Y-46678140D01*
X68447619Y-46678140D02*
X68523809Y-46601950D01*
X68523809Y-46601950D02*
X68638095Y-46563855D01*
X68638095Y-46563855D02*
X68714286Y-46563855D01*
X68714286Y-46563855D02*
X68828571Y-46601950D01*
X68828571Y-46601950D02*
X68866667Y-46640045D01*
X69171428Y-46640045D02*
X69209524Y-46601950D01*
X69209524Y-46601950D02*
X69285714Y-46563855D01*
X69285714Y-46563855D02*
X69476190Y-46563855D01*
X69476190Y-46563855D02*
X69552381Y-46601950D01*
X69552381Y-46601950D02*
X69590476Y-46640045D01*
X69590476Y-46640045D02*
X69628571Y-46716236D01*
X69628571Y-46716236D02*
X69628571Y-46792426D01*
X69628571Y-46792426D02*
X69590476Y-46906712D01*
X69590476Y-46906712D02*
X69133333Y-47363855D01*
X69133333Y-47363855D02*
X69628571Y-47363855D01*
X40890476Y-31363855D02*
X40890476Y-30563855D01*
X40890476Y-30944807D02*
X41347619Y-30944807D01*
X41347619Y-31363855D02*
X41347619Y-30563855D01*
X42147618Y-31363855D02*
X41690475Y-31363855D01*
X41919047Y-31363855D02*
X41919047Y-30563855D01*
X41919047Y-30563855D02*
X41842856Y-30678140D01*
X41842856Y-30678140D02*
X41766666Y-30754331D01*
X41766666Y-30754331D02*
X41690475Y-30792426D01*
X40890476Y-121363855D02*
X40890476Y-120563855D01*
X40890476Y-120944807D02*
X41347619Y-120944807D01*
X41347619Y-121363855D02*
X41347619Y-120563855D01*
X41652380Y-120563855D02*
X42147618Y-120563855D01*
X42147618Y-120563855D02*
X41880952Y-120868617D01*
X41880952Y-120868617D02*
X41995237Y-120868617D01*
X41995237Y-120868617D02*
X42071428Y-120906712D01*
X42071428Y-120906712D02*
X42109523Y-120944807D01*
X42109523Y-120944807D02*
X42147618Y-121020998D01*
X42147618Y-121020998D02*
X42147618Y-121211474D01*
X42147618Y-121211474D02*
X42109523Y-121287664D01*
X42109523Y-121287664D02*
X42071428Y-121325760D01*
X42071428Y-121325760D02*
X41995237Y-121363855D01*
X41995237Y-121363855D02*
X41766666Y-121363855D01*
X41766666Y-121363855D02*
X41690475Y-121325760D01*
X41690475Y-121325760D02*
X41652380Y-121287664D01*
X58933332Y-95325760D02*
X59047618Y-95363855D01*
X59047618Y-95363855D02*
X59238094Y-95363855D01*
X59238094Y-95363855D02*
X59314285Y-95325760D01*
X59314285Y-95325760D02*
X59352380Y-95287664D01*
X59352380Y-95287664D02*
X59390475Y-95211474D01*
X59390475Y-95211474D02*
X59390475Y-95135283D01*
X59390475Y-95135283D02*
X59352380Y-95059093D01*
X59352380Y-95059093D02*
X59314285Y-95020998D01*
X59314285Y-95020998D02*
X59238094Y-94982902D01*
X59238094Y-94982902D02*
X59085713Y-94944807D01*
X59085713Y-94944807D02*
X59009523Y-94906712D01*
X59009523Y-94906712D02*
X58971428Y-94868617D01*
X58971428Y-94868617D02*
X58933332Y-94792426D01*
X58933332Y-94792426D02*
X58933332Y-94716236D01*
X58933332Y-94716236D02*
X58971428Y-94640045D01*
X58971428Y-94640045D02*
X59009523Y-94601950D01*
X59009523Y-94601950D02*
X59085713Y-94563855D01*
X59085713Y-94563855D02*
X59276190Y-94563855D01*
X59276190Y-94563855D02*
X59390475Y-94601950D01*
X59657142Y-94563855D02*
X59847618Y-95363855D01*
X59847618Y-95363855D02*
X59999999Y-94792426D01*
X59999999Y-94792426D02*
X60152380Y-95363855D01*
X60152380Y-95363855D02*
X60342857Y-94563855D01*
X61028571Y-94563855D02*
X60647619Y-94563855D01*
X60647619Y-94563855D02*
X60609523Y-94944807D01*
X60609523Y-94944807D02*
X60647619Y-94906712D01*
X60647619Y-94906712D02*
X60723809Y-94868617D01*
X60723809Y-94868617D02*
X60914285Y-94868617D01*
X60914285Y-94868617D02*
X60990476Y-94906712D01*
X60990476Y-94906712D02*
X61028571Y-94944807D01*
X61028571Y-94944807D02*
X61066666Y-95020998D01*
X61066666Y-95020998D02*
X61066666Y-95211474D01*
X61066666Y-95211474D02*
X61028571Y-95287664D01*
X61028571Y-95287664D02*
X60990476Y-95325760D01*
X60990476Y-95325760D02*
X60914285Y-95363855D01*
X60914285Y-95363855D02*
X60723809Y-95363855D01*
X60723809Y-95363855D02*
X60647619Y-95325760D01*
X60647619Y-95325760D02*
X60609523Y-95287664D01*
X43866667Y-47287664D02*
X43828571Y-47325760D01*
X43828571Y-47325760D02*
X43714286Y-47363855D01*
X43714286Y-47363855D02*
X43638095Y-47363855D01*
X43638095Y-47363855D02*
X43523809Y-47325760D01*
X43523809Y-47325760D02*
X43447619Y-47249569D01*
X43447619Y-47249569D02*
X43409524Y-47173379D01*
X43409524Y-47173379D02*
X43371428Y-47020998D01*
X43371428Y-47020998D02*
X43371428Y-46906712D01*
X43371428Y-46906712D02*
X43409524Y-46754331D01*
X43409524Y-46754331D02*
X43447619Y-46678140D01*
X43447619Y-46678140D02*
X43523809Y-46601950D01*
X43523809Y-46601950D02*
X43638095Y-46563855D01*
X43638095Y-46563855D02*
X43714286Y-46563855D01*
X43714286Y-46563855D02*
X43828571Y-46601950D01*
X43828571Y-46601950D02*
X43866667Y-46640045D01*
X44628571Y-47363855D02*
X44171428Y-47363855D01*
X44400000Y-47363855D02*
X44400000Y-46563855D01*
X44400000Y-46563855D02*
X44323809Y-46678140D01*
X44323809Y-46678140D02*
X44247619Y-46754331D01*
X44247619Y-46754331D02*
X44171428Y-46792426D01*
X77890476Y-121363855D02*
X77890476Y-120563855D01*
X77890476Y-120944807D02*
X78347619Y-120944807D01*
X78347619Y-121363855D02*
X78347619Y-120563855D01*
X79071428Y-120830521D02*
X79071428Y-121363855D01*
X78880952Y-120525760D02*
X78690475Y-121097188D01*
X78690475Y-121097188D02*
X79185714Y-121097188D01*
X73409524Y-35363855D02*
X73409524Y-34563855D01*
X73409524Y-34563855D02*
X73600000Y-34563855D01*
X73600000Y-34563855D02*
X73714286Y-34601950D01*
X73714286Y-34601950D02*
X73790476Y-34678140D01*
X73790476Y-34678140D02*
X73828571Y-34754331D01*
X73828571Y-34754331D02*
X73866667Y-34906712D01*
X73866667Y-34906712D02*
X73866667Y-35020998D01*
X73866667Y-35020998D02*
X73828571Y-35173379D01*
X73828571Y-35173379D02*
X73790476Y-35249569D01*
X73790476Y-35249569D02*
X73714286Y-35325760D01*
X73714286Y-35325760D02*
X73600000Y-35363855D01*
X73600000Y-35363855D02*
X73409524Y-35363855D01*
X74628571Y-35363855D02*
X74171428Y-35363855D01*
X74400000Y-35363855D02*
X74400000Y-34563855D01*
X74400000Y-34563855D02*
X74323809Y-34678140D01*
X74323809Y-34678140D02*
X74247619Y-34754331D01*
X74247619Y-34754331D02*
X74171428Y-34792426D01*
X46866667Y-111287664D02*
X46828571Y-111325760D01*
X46828571Y-111325760D02*
X46714286Y-111363855D01*
X46714286Y-111363855D02*
X46638095Y-111363855D01*
X46638095Y-111363855D02*
X46523809Y-111325760D01*
X46523809Y-111325760D02*
X46447619Y-111249569D01*
X46447619Y-111249569D02*
X46409524Y-111173379D01*
X46409524Y-111173379D02*
X46371428Y-111020998D01*
X46371428Y-111020998D02*
X46371428Y-110906712D01*
X46371428Y-110906712D02*
X46409524Y-110754331D01*
X46409524Y-110754331D02*
X46447619Y-110678140D01*
X46447619Y-110678140D02*
X46523809Y-110601950D01*
X46523809Y-110601950D02*
X46638095Y-110563855D01*
X46638095Y-110563855D02*
X46714286Y-110563855D01*
X46714286Y-110563855D02*
X46828571Y-110601950D01*
X46828571Y-110601950D02*
X46866667Y-110640045D01*
X47133333Y-110563855D02*
X47628571Y-110563855D01*
X47628571Y-110563855D02*
X47361905Y-110868617D01*
X47361905Y-110868617D02*
X47476190Y-110868617D01*
X47476190Y-110868617D02*
X47552381Y-110906712D01*
X47552381Y-110906712D02*
X47590476Y-110944807D01*
X47590476Y-110944807D02*
X47628571Y-111020998D01*
X47628571Y-111020998D02*
X47628571Y-111211474D01*
X47628571Y-111211474D02*
X47590476Y-111287664D01*
X47590476Y-111287664D02*
X47552381Y-111325760D01*
X47552381Y-111325760D02*
X47476190Y-111363855D01*
X47476190Y-111363855D02*
X47247619Y-111363855D01*
X47247619Y-111363855D02*
X47171428Y-111325760D01*
X47171428Y-111325760D02*
X47133333Y-111287664D01*
X78983332Y-43325760D02*
X79097618Y-43363855D01*
X79097618Y-43363855D02*
X79288094Y-43363855D01*
X79288094Y-43363855D02*
X79364285Y-43325760D01*
X79364285Y-43325760D02*
X79402380Y-43287664D01*
X79402380Y-43287664D02*
X79440475Y-43211474D01*
X79440475Y-43211474D02*
X79440475Y-43135283D01*
X79440475Y-43135283D02*
X79402380Y-43059093D01*
X79402380Y-43059093D02*
X79364285Y-43020998D01*
X79364285Y-43020998D02*
X79288094Y-42982902D01*
X79288094Y-42982902D02*
X79135713Y-42944807D01*
X79135713Y-42944807D02*
X79059523Y-42906712D01*
X79059523Y-42906712D02*
X79021428Y-42868617D01*
X79021428Y-42868617D02*
X78983332Y-42792426D01*
X78983332Y-42792426D02*
X78983332Y-42716236D01*
X78983332Y-42716236D02*
X79021428Y-42640045D01*
X79021428Y-42640045D02*
X79059523Y-42601950D01*
X79059523Y-42601950D02*
X79135713Y-42563855D01*
X79135713Y-42563855D02*
X79326190Y-42563855D01*
X79326190Y-42563855D02*
X79440475Y-42601950D01*
X79707142Y-42563855D02*
X79897618Y-43363855D01*
X79897618Y-43363855D02*
X80049999Y-42792426D01*
X80049999Y-42792426D02*
X80202380Y-43363855D01*
X80202380Y-43363855D02*
X80392857Y-42563855D01*
X81040476Y-42563855D02*
X80888095Y-42563855D01*
X80888095Y-42563855D02*
X80811904Y-42601950D01*
X80811904Y-42601950D02*
X80773809Y-42640045D01*
X80773809Y-42640045D02*
X80697619Y-42754331D01*
X80697619Y-42754331D02*
X80659523Y-42906712D01*
X80659523Y-42906712D02*
X80659523Y-43211474D01*
X80659523Y-43211474D02*
X80697619Y-43287664D01*
X80697619Y-43287664D02*
X80735714Y-43325760D01*
X80735714Y-43325760D02*
X80811904Y-43363855D01*
X80811904Y-43363855D02*
X80964285Y-43363855D01*
X80964285Y-43363855D02*
X81040476Y-43325760D01*
X81040476Y-43325760D02*
X81078571Y-43287664D01*
X81078571Y-43287664D02*
X81116666Y-43211474D01*
X81116666Y-43211474D02*
X81116666Y-43020998D01*
X81116666Y-43020998D02*
X81078571Y-42944807D01*
X81078571Y-42944807D02*
X81040476Y-42906712D01*
X81040476Y-42906712D02*
X80964285Y-42868617D01*
X80964285Y-42868617D02*
X80811904Y-42868617D01*
X80811904Y-42868617D02*
X80735714Y-42906712D01*
X80735714Y-42906712D02*
X80697619Y-42944807D01*
X80697619Y-42944807D02*
X80659523Y-43020998D01*
X49933332Y-57325760D02*
X50047618Y-57363855D01*
X50047618Y-57363855D02*
X50238094Y-57363855D01*
X50238094Y-57363855D02*
X50314285Y-57325760D01*
X50314285Y-57325760D02*
X50352380Y-57287664D01*
X50352380Y-57287664D02*
X50390475Y-57211474D01*
X50390475Y-57211474D02*
X50390475Y-57135283D01*
X50390475Y-57135283D02*
X50352380Y-57059093D01*
X50352380Y-57059093D02*
X50314285Y-57020998D01*
X50314285Y-57020998D02*
X50238094Y-56982902D01*
X50238094Y-56982902D02*
X50085713Y-56944807D01*
X50085713Y-56944807D02*
X50009523Y-56906712D01*
X50009523Y-56906712D02*
X49971428Y-56868617D01*
X49971428Y-56868617D02*
X49933332Y-56792426D01*
X49933332Y-56792426D02*
X49933332Y-56716236D01*
X49933332Y-56716236D02*
X49971428Y-56640045D01*
X49971428Y-56640045D02*
X50009523Y-56601950D01*
X50009523Y-56601950D02*
X50085713Y-56563855D01*
X50085713Y-56563855D02*
X50276190Y-56563855D01*
X50276190Y-56563855D02*
X50390475Y-56601950D01*
X50657142Y-56563855D02*
X50847618Y-57363855D01*
X50847618Y-57363855D02*
X50999999Y-56792426D01*
X50999999Y-56792426D02*
X51152380Y-57363855D01*
X51152380Y-57363855D02*
X51342857Y-56563855D01*
X52066666Y-57363855D02*
X51609523Y-57363855D01*
X51838095Y-57363855D02*
X51838095Y-56563855D01*
X51838095Y-56563855D02*
X51761904Y-56678140D01*
X51761904Y-56678140D02*
X51685714Y-56754331D01*
X51685714Y-56754331D02*
X51609523Y-56792426D01*
%TO.C,SW4*%
X61500000Y-69500000D02*
X76500000Y-69500000D01*
X61500000Y-84500000D02*
X61500000Y-69500000D01*
X76500000Y-69500000D02*
X76500000Y-84500000D01*
X76500000Y-84500000D02*
X61500000Y-84500000D01*
%TO.C,SW3*%
X43500000Y-69500000D02*
X58500000Y-69500000D01*
X43500000Y-84500000D02*
X43500000Y-69500000D01*
X58500000Y-69500000D02*
X58500000Y-84500000D01*
X58500000Y-84500000D02*
X43500000Y-84500000D01*
%TO.C,SW2*%
X61500000Y-52500000D02*
X76500000Y-52500000D01*
X61500000Y-67500000D02*
X61500000Y-52500000D01*
X76500000Y-52500000D02*
X76500000Y-67500000D01*
X76500000Y-67500000D02*
X61500000Y-67500000D01*
%TO.C,MK1*%
X51650000Y-33650000D02*
X68350000Y-33650000D01*
X51650000Y-46350000D02*
X51650000Y-33650000D01*
X68350000Y-33650000D02*
X68350000Y-46350000D01*
X68350000Y-46350000D02*
X51650000Y-46350000D01*
%TO.C,SW5*%
X52500000Y-90500000D02*
X67500000Y-90500000D01*
X52500000Y-105500000D02*
X52500000Y-90500000D01*
X67500000Y-90500000D02*
X67500000Y-105500000D01*
X67500000Y-105500000D02*
X52500000Y-105500000D01*
%TO.C,D1*%
X71500000Y-35500000D02*
X76500000Y-35500000D01*
X71500000Y-40500000D02*
X71500000Y-35500000D01*
X76500000Y-35500000D02*
X76500000Y-40500000D01*
X76500000Y-40500000D02*
X71500000Y-40500000D01*
%TO.C,SW6*%
X78100000Y-41700000D02*
X82000000Y-41700000D01*
X78100000Y-50300000D02*
X78100000Y-41700000D01*
X82000000Y-41700000D02*
X82000000Y-50300000D01*
X82000000Y-50300000D02*
X78100000Y-50300000D01*
%TO.C,SW1*%
X43500000Y-52500000D02*
X58500000Y-52500000D01*
X43500000Y-67500000D02*
X43500000Y-52500000D01*
X58500000Y-52500000D02*
X58500000Y-67500000D01*
X58500000Y-67500000D02*
X43500000Y-67500000D01*
%TD*%
M02*
