%TF.GenerationSoftware,KiCad,Pcbnew,10.0.4*%
%TF.CreationDate,2026-07-02T14:28:06-04:00*%
%TF.ProjectId,companion_carrier,636f6d70-616e-4696-9f6e-5f6361727269,rev?*%
%TF.SameCoordinates,Original*%
%TF.FileFunction,Legend,Bot*%
%TF.FilePolarity,Positive*%
%FSLAX46Y46*%
G04 Gerber Fmt 4.6, Leading zero omitted, Abs format (unit mm)*
G04 Created by KiCad (PCBNEW 10.0.4) date 2026-07-02 14:28:06*
%MOMM*%
%LPD*%
G01*
G04 APERTURE LIST*
%ADD10C,0.120000*%
%ADD11C,0.110000*%
G04 APERTURE END LIST*
D10*
X59390476Y-119063855D02*
X59390476Y-119711474D01*
X59390476Y-119711474D02*
X59428571Y-119787664D01*
X59428571Y-119787664D02*
X59466666Y-119825760D01*
X59466666Y-119825760D02*
X59542857Y-119863855D01*
X59542857Y-119863855D02*
X59695238Y-119863855D01*
X59695238Y-119863855D02*
X59771428Y-119825760D01*
X59771428Y-119825760D02*
X59809523Y-119787664D01*
X59809523Y-119787664D02*
X59847619Y-119711474D01*
X59847619Y-119711474D02*
X59847619Y-119063855D01*
X60647618Y-119863855D02*
X60190475Y-119863855D01*
X60419047Y-119863855D02*
X60419047Y-119063855D01*
X60419047Y-119063855D02*
X60342856Y-119178140D01*
X60342856Y-119178140D02*
X60266666Y-119254331D01*
X60266666Y-119254331D02*
X60190475Y-119292426D01*
D11*
X53050001Y-130618113D02*
X53050001Y-131184780D01*
X53050001Y-131184780D02*
X53083335Y-131251446D01*
X53083335Y-131251446D02*
X53116668Y-131284780D01*
X53116668Y-131284780D02*
X53183335Y-131318113D01*
X53183335Y-131318113D02*
X53316668Y-131318113D01*
X53316668Y-131318113D02*
X53383335Y-131284780D01*
X53383335Y-131284780D02*
X53416668Y-131251446D01*
X53416668Y-131251446D02*
X53450001Y-131184780D01*
X53450001Y-131184780D02*
X53450001Y-130618113D01*
X53750001Y-131284780D02*
X53850001Y-131318113D01*
X53850001Y-131318113D02*
X54016668Y-131318113D01*
X54016668Y-131318113D02*
X54083334Y-131284780D01*
X54083334Y-131284780D02*
X54116668Y-131251446D01*
X54116668Y-131251446D02*
X54150001Y-131184780D01*
X54150001Y-131184780D02*
X54150001Y-131118113D01*
X54150001Y-131118113D02*
X54116668Y-131051446D01*
X54116668Y-131051446D02*
X54083334Y-131018113D01*
X54083334Y-131018113D02*
X54016668Y-130984780D01*
X54016668Y-130984780D02*
X53883334Y-130951446D01*
X53883334Y-130951446D02*
X53816668Y-130918113D01*
X53816668Y-130918113D02*
X53783334Y-130884780D01*
X53783334Y-130884780D02*
X53750001Y-130818113D01*
X53750001Y-130818113D02*
X53750001Y-130751446D01*
X53750001Y-130751446D02*
X53783334Y-130684780D01*
X53783334Y-130684780D02*
X53816668Y-130651446D01*
X53816668Y-130651446D02*
X53883334Y-130618113D01*
X53883334Y-130618113D02*
X54050001Y-130618113D01*
X54050001Y-130618113D02*
X54150001Y-130651446D01*
X54683335Y-130951446D02*
X54783335Y-130984780D01*
X54783335Y-130984780D02*
X54816668Y-131018113D01*
X54816668Y-131018113D02*
X54850001Y-131084780D01*
X54850001Y-131084780D02*
X54850001Y-131184780D01*
X54850001Y-131184780D02*
X54816668Y-131251446D01*
X54816668Y-131251446D02*
X54783335Y-131284780D01*
X54783335Y-131284780D02*
X54716668Y-131318113D01*
X54716668Y-131318113D02*
X54450001Y-131318113D01*
X54450001Y-131318113D02*
X54450001Y-130618113D01*
X54450001Y-130618113D02*
X54683335Y-130618113D01*
X54683335Y-130618113D02*
X54750001Y-130651446D01*
X54750001Y-130651446D02*
X54783335Y-130684780D01*
X54783335Y-130684780D02*
X54816668Y-130751446D01*
X54816668Y-130751446D02*
X54816668Y-130818113D01*
X54816668Y-130818113D02*
X54783335Y-130884780D01*
X54783335Y-130884780D02*
X54750001Y-130918113D01*
X54750001Y-130918113D02*
X54683335Y-130951446D01*
X54683335Y-130951446D02*
X54450001Y-130951446D01*
X55150001Y-131051446D02*
X55683335Y-131051446D01*
X56416668Y-131251446D02*
X56383335Y-131284780D01*
X56383335Y-131284780D02*
X56283335Y-131318113D01*
X56283335Y-131318113D02*
X56216668Y-131318113D01*
X56216668Y-131318113D02*
X56116668Y-131284780D01*
X56116668Y-131284780D02*
X56050002Y-131218113D01*
X56050002Y-131218113D02*
X56016668Y-131151446D01*
X56016668Y-131151446D02*
X55983335Y-131018113D01*
X55983335Y-131018113D02*
X55983335Y-130918113D01*
X55983335Y-130918113D02*
X56016668Y-130784780D01*
X56016668Y-130784780D02*
X56050002Y-130718113D01*
X56050002Y-130718113D02*
X56116668Y-130651446D01*
X56116668Y-130651446D02*
X56216668Y-130618113D01*
X56216668Y-130618113D02*
X56283335Y-130618113D01*
X56283335Y-130618113D02*
X56383335Y-130651446D01*
X56383335Y-130651446D02*
X56416668Y-130684780D01*
X57183335Y-130851446D02*
X57350001Y-131318113D01*
X57350001Y-131318113D02*
X57516668Y-130851446D01*
X58516667Y-131584780D02*
X58483334Y-131551446D01*
X58483334Y-131551446D02*
X58416667Y-131451446D01*
X58416667Y-131451446D02*
X58383334Y-131384780D01*
X58383334Y-131384780D02*
X58350001Y-131284780D01*
X58350001Y-131284780D02*
X58316667Y-131118113D01*
X58316667Y-131118113D02*
X58316667Y-130984780D01*
X58316667Y-130984780D02*
X58350001Y-130818113D01*
X58350001Y-130818113D02*
X58383334Y-130718113D01*
X58383334Y-130718113D02*
X58416667Y-130651446D01*
X58416667Y-130651446D02*
X58483334Y-130551446D01*
X58483334Y-130551446D02*
X58516667Y-130518113D01*
X58783334Y-131318113D02*
X58783334Y-130618113D01*
X59083334Y-131318113D02*
X59083334Y-130951446D01*
X59083334Y-130951446D02*
X59050001Y-130884780D01*
X59050001Y-130884780D02*
X58983334Y-130851446D01*
X58983334Y-130851446D02*
X58883334Y-130851446D01*
X58883334Y-130851446D02*
X58816668Y-130884780D01*
X58816668Y-130884780D02*
X58783334Y-130918113D01*
X59716667Y-131318113D02*
X59716667Y-130951446D01*
X59716667Y-130951446D02*
X59683334Y-130884780D01*
X59683334Y-130884780D02*
X59616667Y-130851446D01*
X59616667Y-130851446D02*
X59483334Y-130851446D01*
X59483334Y-130851446D02*
X59416667Y-130884780D01*
X59716667Y-131284780D02*
X59650001Y-131318113D01*
X59650001Y-131318113D02*
X59483334Y-131318113D01*
X59483334Y-131318113D02*
X59416667Y-131284780D01*
X59416667Y-131284780D02*
X59383334Y-131218113D01*
X59383334Y-131218113D02*
X59383334Y-131151446D01*
X59383334Y-131151446D02*
X59416667Y-131084780D01*
X59416667Y-131084780D02*
X59483334Y-131051446D01*
X59483334Y-131051446D02*
X59650001Y-131051446D01*
X59650001Y-131051446D02*
X59716667Y-131018113D01*
X60050000Y-130851446D02*
X60050000Y-131318113D01*
X60050000Y-130918113D02*
X60083334Y-130884780D01*
X60083334Y-130884780D02*
X60150000Y-130851446D01*
X60150000Y-130851446D02*
X60250000Y-130851446D01*
X60250000Y-130851446D02*
X60316667Y-130884780D01*
X60316667Y-130884780D02*
X60350000Y-130951446D01*
X60350000Y-130951446D02*
X60350000Y-131318113D01*
X60983333Y-130851446D02*
X60983333Y-131418113D01*
X60983333Y-131418113D02*
X60950000Y-131484780D01*
X60950000Y-131484780D02*
X60916667Y-131518113D01*
X60916667Y-131518113D02*
X60850000Y-131551446D01*
X60850000Y-131551446D02*
X60750000Y-131551446D01*
X60750000Y-131551446D02*
X60683333Y-131518113D01*
X60983333Y-131284780D02*
X60916667Y-131318113D01*
X60916667Y-131318113D02*
X60783333Y-131318113D01*
X60783333Y-131318113D02*
X60716667Y-131284780D01*
X60716667Y-131284780D02*
X60683333Y-131251446D01*
X60683333Y-131251446D02*
X60650000Y-131184780D01*
X60650000Y-131184780D02*
X60650000Y-130984780D01*
X60650000Y-130984780D02*
X60683333Y-130918113D01*
X60683333Y-130918113D02*
X60716667Y-130884780D01*
X60716667Y-130884780D02*
X60783333Y-130851446D01*
X60783333Y-130851446D02*
X60916667Y-130851446D01*
X60916667Y-130851446D02*
X60983333Y-130884780D01*
X61283333Y-131284780D02*
X61350000Y-131318113D01*
X61350000Y-131318113D02*
X61483333Y-131318113D01*
X61483333Y-131318113D02*
X61550000Y-131284780D01*
X61550000Y-131284780D02*
X61583333Y-131218113D01*
X61583333Y-131218113D02*
X61583333Y-131184780D01*
X61583333Y-131184780D02*
X61550000Y-131118113D01*
X61550000Y-131118113D02*
X61483333Y-131084780D01*
X61483333Y-131084780D02*
X61383333Y-131084780D01*
X61383333Y-131084780D02*
X61316666Y-131051446D01*
X61316666Y-131051446D02*
X61283333Y-130984780D01*
X61283333Y-130984780D02*
X61283333Y-130951446D01*
X61283333Y-130951446D02*
X61316666Y-130884780D01*
X61316666Y-130884780D02*
X61383333Y-130851446D01*
X61383333Y-130851446D02*
X61483333Y-130851446D01*
X61483333Y-130851446D02*
X61550000Y-130884780D01*
X62516666Y-131318113D02*
X62450000Y-131284780D01*
X62450000Y-131284780D02*
X62416666Y-131251446D01*
X62416666Y-131251446D02*
X62383333Y-131184780D01*
X62383333Y-131184780D02*
X62383333Y-130984780D01*
X62383333Y-130984780D02*
X62416666Y-130918113D01*
X62416666Y-130918113D02*
X62450000Y-130884780D01*
X62450000Y-130884780D02*
X62516666Y-130851446D01*
X62516666Y-130851446D02*
X62616666Y-130851446D01*
X62616666Y-130851446D02*
X62683333Y-130884780D01*
X62683333Y-130884780D02*
X62716666Y-130918113D01*
X62716666Y-130918113D02*
X62750000Y-130984780D01*
X62750000Y-130984780D02*
X62750000Y-131184780D01*
X62750000Y-131184780D02*
X62716666Y-131251446D01*
X62716666Y-131251446D02*
X62683333Y-131284780D01*
X62683333Y-131284780D02*
X62616666Y-131318113D01*
X62616666Y-131318113D02*
X62516666Y-131318113D01*
X62949999Y-130851446D02*
X63216666Y-130851446D01*
X63049999Y-131318113D02*
X63049999Y-130718113D01*
X63049999Y-130718113D02*
X63083333Y-130651446D01*
X63083333Y-130651446D02*
X63149999Y-130618113D01*
X63149999Y-130618113D02*
X63216666Y-130618113D01*
X63349999Y-130851446D02*
X63616666Y-130851446D01*
X63449999Y-131318113D02*
X63449999Y-130718113D01*
X63449999Y-130718113D02*
X63483333Y-130651446D01*
X63483333Y-130651446D02*
X63549999Y-130618113D01*
X63549999Y-130618113D02*
X63616666Y-130618113D01*
X64383332Y-131318113D02*
X64383332Y-130618113D01*
X64383332Y-130884780D02*
X64449999Y-130851446D01*
X64449999Y-130851446D02*
X64583332Y-130851446D01*
X64583332Y-130851446D02*
X64649999Y-130884780D01*
X64649999Y-130884780D02*
X64683332Y-130918113D01*
X64683332Y-130918113D02*
X64716666Y-130984780D01*
X64716666Y-130984780D02*
X64716666Y-131184780D01*
X64716666Y-131184780D02*
X64683332Y-131251446D01*
X64683332Y-131251446D02*
X64649999Y-131284780D01*
X64649999Y-131284780D02*
X64583332Y-131318113D01*
X64583332Y-131318113D02*
X64449999Y-131318113D01*
X64449999Y-131318113D02*
X64383332Y-131284780D01*
X65316665Y-131318113D02*
X65316665Y-130951446D01*
X65316665Y-130951446D02*
X65283332Y-130884780D01*
X65283332Y-130884780D02*
X65216665Y-130851446D01*
X65216665Y-130851446D02*
X65083332Y-130851446D01*
X65083332Y-130851446D02*
X65016665Y-130884780D01*
X65316665Y-131284780D02*
X65249999Y-131318113D01*
X65249999Y-131318113D02*
X65083332Y-131318113D01*
X65083332Y-131318113D02*
X65016665Y-131284780D01*
X65016665Y-131284780D02*
X64983332Y-131218113D01*
X64983332Y-131218113D02*
X64983332Y-131151446D01*
X64983332Y-131151446D02*
X65016665Y-131084780D01*
X65016665Y-131084780D02*
X65083332Y-131051446D01*
X65083332Y-131051446D02*
X65249999Y-131051446D01*
X65249999Y-131051446D02*
X65316665Y-131018113D01*
X65949998Y-131284780D02*
X65883332Y-131318113D01*
X65883332Y-131318113D02*
X65749998Y-131318113D01*
X65749998Y-131318113D02*
X65683332Y-131284780D01*
X65683332Y-131284780D02*
X65649998Y-131251446D01*
X65649998Y-131251446D02*
X65616665Y-131184780D01*
X65616665Y-131184780D02*
X65616665Y-130984780D01*
X65616665Y-130984780D02*
X65649998Y-130918113D01*
X65649998Y-130918113D02*
X65683332Y-130884780D01*
X65683332Y-130884780D02*
X65749998Y-130851446D01*
X65749998Y-130851446D02*
X65883332Y-130851446D01*
X65883332Y-130851446D02*
X65949998Y-130884780D01*
X66249998Y-131318113D02*
X66249998Y-130618113D01*
X66316665Y-131051446D02*
X66516665Y-131318113D01*
X66516665Y-130851446D02*
X66249998Y-131118113D01*
X66749999Y-131584780D02*
X66783332Y-131551446D01*
X66783332Y-131551446D02*
X66849999Y-131451446D01*
X66849999Y-131451446D02*
X66883332Y-131384780D01*
X66883332Y-131384780D02*
X66916665Y-131284780D01*
X66916665Y-131284780D02*
X66949999Y-131118113D01*
X66949999Y-131118113D02*
X66949999Y-130984780D01*
X66949999Y-130984780D02*
X66916665Y-130818113D01*
X66916665Y-130818113D02*
X66883332Y-130718113D01*
X66883332Y-130718113D02*
X66849999Y-130651446D01*
X66849999Y-130651446D02*
X66783332Y-130551446D01*
X66783332Y-130551446D02*
X66749999Y-130518113D01*
%TO.C,U1*%
D10*
X51100000Y-112000000D02*
X68900000Y-112000000D01*
X51100000Y-133000000D02*
X51100000Y-112000000D01*
X55530000Y-126950000D02*
X64470000Y-126950000D01*
X55530000Y-134300000D02*
X55530000Y-126950000D01*
X64470000Y-126950000D02*
X64470000Y-134300000D01*
X64470000Y-134300000D02*
X55530000Y-134300000D01*
X68900000Y-112000000D02*
X68900000Y-133000000D01*
X68900000Y-133000000D02*
X51100000Y-133000000D01*
%TD*%
M02*
